<?xml version="1.0" encoding="UTF-8"?>
<svg width="83px" height="81px" viewBox="0 0 83 81" version="1.1" xmlns="http://www.w3.org/2000/svg" xmlns:xlink="http://www.w3.org/1999/xlink">
    <!-- Generator: sketchtool 60.1 (101010) - https://sketch.com -->
    <title>BE364F4E-0682-4983-A23E-CF5737E1281C</title>
    <desc>Created with sketchtool.</desc>
    <defs>
        <polygon id="path-1" points="0 80.2173913 82.8913043 80.2173913 82.8913043 0.445652174 0 0.445652174"></polygon>
    </defs>
    <g id="Desktop" stroke="none" stroke-width="1" fill="none" fill-rule="evenodd">
        <g id="MPEd-Landing-Page---Design" transform="translate(-663.000000, -2593.000000)">
            <g id="Why-Choose-MPEd?" transform="translate(-70.000000, 1977.000000)">
                <g id="Career-Advancment---Card" transform="translate(698.000000, 582.000000)">
                    <g id="Group-4-Copy-3">
                        <g id="career-advancement" transform="translate(35.000000, 32.575000)">
                            <polygon id="Fill-1" fill="#7FCDF3" points="47.6847826 10.25 47.6847826 60.1630435 67.2257391 60.1630435 81.5543478 60.1630435 81.5543478 10.25"></polygon>
                            <g id="Group-34" transform="translate(0.000000, 1.336957)">
                                <path d="M54.8152174,60.1630435 L35.2065217,60.1630435 C34.4685217,60.1630435 33.8695652,59.564087 33.8695652,58.826087 L33.8695652,37.4347826 L36.5434783,37.4347826 L36.5434783,57.4891304 L54.8152174,57.4891304 L54.8152174,60.1630435 Z" id="Fill-2" fill="#000000"></path>
                                <path d="M81.5543478,60.1630435 L61.9456522,60.1630435 L61.9456522,57.4891304 L80.2173913,57.4891304 L80.2173913,10.25 L36.5434783,10.25 L36.5434783,19.6086957 L33.8695652,19.6086957 L33.8695652,8.91304348 C33.8695652,8.17504348 34.4685217,7.57608696 35.2065217,7.57608696 L81.5543478,7.57608696 C82.2923478,7.57608696 82.8913043,8.17504348 82.8913043,8.91304348 L82.8913043,58.826087 C82.8913043,59.564087 82.2923478,60.1630435 81.5543478,60.1630435" id="Fill-4" fill="#000000"></path>
                                <path d="M24.8572304,5.68028261 C24.8518826,5.66423913 24.8269261,5.58936957 24.800187,5.50736957 C24.7449261,5.42536957 24.6843174,5.31484783 24.695013,5.25423913 C24.6344043,5.15084783 24.572013,5.04745652 24.5114043,4.94406522 C24.4935783,4.92623913 24.4739696,4.90306522 24.4543609,4.8781087 C24.3991,4.82819565 24.3242304,4.76402174 24.2457957,4.69806522 C24.2047957,4.67845652 24.1602304,4.6731087 24.121013,4.65171739 C23.8946217,4.57863043 23.6842739,4.47702174 23.4864043,4.35402174 C23.4151,4.31658696 23.3366652,4.30232609 23.2671435,4.26132609 L22.5024043,3.6695 C22.1458826,3.31119565 21.9016652,2.88871739 21.7109261,2.43236957 C19.1243609,3.58393478 17.3809696,6.2525 17.3809696,9.42197826 L17.3809696,11.9675435 C17.3809696,14.8232826 18.7963609,17.2832826 20.9622304,18.5935 C21.4364043,17.4348043 22.0353609,16.4793261 22.9747957,15.6218913 C23.2582304,15.3651957 23.5523609,15.1209783 23.8322304,14.8607174 C23.9819696,14.7216739 24.121013,14.5701522 24.2707522,14.4311087 C24.3099696,14.3455435 24.3723609,14.2261087 24.4383174,14.1066739 C24.4401,14.0959783 24.4401,14.0995435 24.4418826,14.0870652 C24.4811,13.869587 24.5345783,13.6396304 24.595187,13.4292826 C24.5969696,13.418587 24.5969696,13.4203696 24.5987522,13.4132391 C24.6682739,12.6039348 24.6967957,11.7928478 24.7484913,10.9817609 C24.8518826,9.38097826 25.0622304,7.83367391 24.982013,6.22754348 C24.9214043,6.06176087 24.9017957,5.8425 24.8572304,5.68028261" id="Fill-6" fill="#ECB278"></path>
                                <path d="M17.3804348,24.9565217 C10.9933478,24.9565217 8.4673913,27.6518261 8.4673913,35.6521739 L8.4673913,48.1304348 C8.4673913,51.9541304 9.99152174,55.2608696 13.8152174,55.2608696 L13.8152174,80.2173913 L26.2667391,80.2173913 C26.453913,74.5166087 26.9993913,68.8247391 27.1847826,63.1150435 C27.4878261,53.8508261 27.0421739,44.5705652 26.2168261,35.3437826 C26.0243043,33.1850435 27.4147391,32.0013913 29.0547391,31.7696522 C29.4237391,31.6466522 29.8052174,31.5628696 30.1956087,31.5646522 C31.9603913,31.5753478 33.7180435,31.7464783 35.4810435,31.7446957 C35.8928261,31.7446957 36.3028261,31.7357826 36.7128261,31.7143913 C36.9445652,31.7001304 37.1763043,31.6733913 37.4080435,31.660913 C37.5845217,31.6234783 38.0016522,31.5414783 38.2886522,31.4737391 C38.384913,31.4184783 38.4847391,31.3667826 38.5827826,31.3133043 C39.2423478,30.955 39.9108261,30.6091739 40.5561304,30.2241304 C40.8110435,30.0743913 41.0534783,29.9086087 41.3030435,29.7481739 C41.369,29.6715217 41.459913,29.593087 41.5258696,29.5253478 C41.6025217,29.446913 41.6720435,29.3363913 41.7130435,29.265087 C41.7344348,29.2294348 41.738,29.224087 41.7397826,29.224087 C41.770087,29.1688261 41.7950435,29.1278261 41.8164348,29.0939565 C41.8217826,29.0832609 41.8253478,29.0761304 41.8306957,29.069 C41.8841739,28.9067826 41.9376522,28.7463478 41.9911304,28.5841304 C42.3173478,27.5626957 42.7006087,26.5537391 43.2015217,25.6018261 C43.328087,25.3647391 43.4885217,25.1508261 43.6667826,24.9565217 L17.3804348,24.9565217 Z" id="Fill-8" fill="#ECB278"></path>
                                <line x1="17.3804348" y1="49.9130435" x2="17.3804348" y2="80.2173913" id="Fill-10" fill="#ECB278"></line>
                                <line x1="8.4673913" y1="35.6521739" x2="8.4673913" y2="80.2173913" id="Fill-12" fill="#ECB278"></line>
                                <path d="M17.3804348,3.11956522 C14.1325217,3.11956522 11.5869565,5.88795652 11.5869565,9.42108696 L11.5869565,11.9684348 C11.5869565,15.5015652 14.1325217,18.2717391 17.3804348,18.2717391 C20.6283478,18.2717391 23.173913,15.5015652 23.173913,11.9684348 L23.173913,9.42108696 C23.173913,5.88795652 20.6283478,3.11956522 17.3804348,3.11956522 M17.3804348,20.9456522 C12.6333478,20.9456522 8.91304348,17.0025217 8.91304348,11.9684348 L8.91304348,9.42108696 C8.91304348,4.38878261 12.6333478,0.445652174 17.3804348,0.445652174 C22.1275217,0.445652174 25.8478261,4.38878261 25.8478261,9.42108696 L25.8478261,11.9684348 C25.8478261,17.0025217 22.1275217,20.9456522 17.3804348,20.9456522" id="Fill-14" fill="#000000"></path>
                                <path d="M27.6304348,80.2173913 L24.9565217,80.2173913 L24.9565217,32.0869565 C24.9565217,31.3489565 25.5554783,30.75 26.2934783,30.75 L35.2065217,30.75 C38.6826087,30.75 40.5258261,29.3256957 40.9197826,26.2934783 L10.25,26.2934783 C5.2266087,26.2934783 2.67391304,27.7409565 2.67391304,35.6521739 L2.67391304,48.1304348 C2.67391304,50.2945217 3.19443478,53.923913 6.68478261,53.923913 L8.4673913,53.923913 L8.4673913,56.5978261 L6.68478261,56.5978261 C2.5616087,56.5978261 0,53.3534783 0,48.1304348 L0,35.6521739 C0,27.1063478 2.96982609,23.6195652 10.25,23.6195652 L42.3369565,23.6195652 C43.0749565,23.6195652 43.673913,24.2185217 43.673913,24.9565217 C43.673913,30.4166522 40.6666522,33.423913 35.2065217,33.423913 L27.6304348,33.423913 L27.6304348,80.2173913 Z" id="Fill-16" fill="#000000"></path>
                                <path d="M65.5108696,48.1304348 C65.5108696,52.0682174 62.32,55.2608696 58.3804348,55.2608696 C54.4426522,55.2608696 51.25,52.0682174 51.25,48.1304348 C51.25,44.1908696 54.4426522,41 58.3804348,41 C62.32,41 65.5108696,44.1908696 65.5108696,48.1304348" id="Fill-18" fill="#FFFFFF"></path>
                                <mask id="mask-2" fill="white">
                                    <use xlink:href="#path-1"></use>
                                </mask>
                                <g id="Clip-21"></g>
                                <polygon id="Fill-20" fill="#000000" mask="url(#mask-2)" points="16.0434783 80.2173913 18.7173913 80.2173913 18.7173913 49.9130435 16.0434783 49.9130435"></polygon>
                                <polygon id="Fill-22" fill="#000000" mask="url(#mask-2)" points="7.13043478 80.2173913 9.80434783 80.2173913 9.80434783 35.6521739 7.13043478 35.6521739"></polygon>
                                <path d="M63.0389261,54.5679696 C63.0389261,53.5982304 63.4311,52.7871435 64.0193609,52.0616217 C64.1387957,51.8762304 64.2582304,51.696187 64.365187,51.5036652 C64.4525348,51.3485783 64.5327522,51.1881435 64.611187,51.0277087 C64.8625348,50.2968391 65.0532739,49.5606217 65.1905348,48.8065783 C65.2618391,48.0525348 65.267187,47.2967087 65.203013,46.5426652 C65.1459696,46.243187 65.0978391,45.9401435 65.0104913,45.6477957 C64.9891,45.5943174 64.9463174,45.4748826 64.8785783,45.2716652 C64.8678826,45.2467087 64.857187,45.2235348 64.8464913,45.2003609 C64.7680565,45.0559696 64.6771435,44.9187087 64.5915783,44.7796652 C64.5238391,44.7083609 64.4489696,44.6459696 64.3758826,44.5782304 C64.3455783,44.5604043 64.3170565,44.5407957 64.2867522,44.5229696 C63.0353609,43.7760565 62.4221435,42.4658391 62.4702739,41.1253174 C59.135013,41.7224913 56.5983609,44.6227957 56.5983609,48.1309696 C56.5983609,51.8548391 59.463013,54.8763609 63.1048826,55.1972304 C63.0674478,54.9833174 63.0389261,54.7694043 63.0389261,54.5679696" id="Fill-23" fill="#F1AE2C" mask="url(#mask-2)"></path>
                                <path d="M59.3656826,54.4948826 C57.4030304,54.4948826 55.623987,54.215013 54.0071609,53.7265783 L54.0071609,66.7824043 L59.354987,69.5222739 L60.2462913,69.5222739 L60.2462913,54.4521 C59.9503783,54.4627957 59.6687261,54.4948826 59.3656826,54.4948826" id="Fill-24" fill="#FFFFFF" mask="url(#mask-2)"></path>
                                <polygon id="Fill-25" fill="#F1AE2C" mask="url(#mask-2)" points="58.3804348 54.209487 58.3804348 64.928313 63.7282609 69.5220957 64.6195652 69.5220957 64.6195652 55.7389652"></polygon>
                                <path d="M58.3804348,42.3369565 C55.186,42.3369565 52.5869565,44.936 52.5869565,48.1304348 C52.5869565,51.3248696 55.186,53.923913 58.3804348,53.923913 C61.5748696,53.923913 64.173913,51.3248696 64.173913,48.1304348 C64.173913,44.936 61.5748696,42.3369565 58.3804348,42.3369565 M58.3804348,56.5978261 C53.7117826,56.5978261 49.9130435,52.799087 49.9130435,48.1304348 C49.9130435,43.4617826 53.7117826,39.6630435 58.3804348,39.6630435 C63.049087,39.6630435 66.8478261,43.4617826 66.8478261,48.1304348 C66.8478261,52.799087 63.049087,56.5978261 58.3804348,56.5978261" id="Fill-26" fill="#000000" mask="url(#mask-2)"></path>
                                <path d="M63.7282609,70.8588324 C63.3806522,70.8588324 63.0383913,70.7232174 62.7834783,70.4665217 L58.3804348,66.0652609 L53.9773913,70.4665217 C53.5941304,70.8497826 53.021913,70.9638696 52.521,70.757087 C52.0218696,70.5503043 51.6956522,70.0636522 51.6956522,69.5217391 L51.6956522,53.4782609 L54.3695652,53.4782609 L54.3695652,66.2934348 L57.4356522,63.2291304 C57.9579565,62.7068261 58.802913,62.7068261 59.3252174,63.2291304 L62.3913043,66.2934348 L62.3913043,53.4782609 L65.0652174,53.4782609 L65.0652174,69.5217391 C65.0652174,70.0636522 64.739,70.5503043 64.2398696,70.757087 C64.074087,70.8248261 63.9011739,70.8588324 63.7282609,70.8588324" id="Fill-27" fill="#000000" mask="url(#mask-2)"></path>
                                <polygon id="Fill-28" fill="#000000" mask="url(#mask-2)" points="49.4673913 26.2934783 67.2934783 26.2934783 67.2934783 23.6195652 49.4673913 23.6195652"></polygon>
                                <polygon id="Fill-29" fill="#000000" mask="url(#mask-2)" points="53.0326087 33.423913 63.7282609 33.423913 63.7282609 30.75 53.0326087 30.75"></polygon>
                                <path d="M41.8913043,17.826087 L39.2173913,17.826087 L39.2173913,14.2608696 C39.2173913,13.5228696 39.8163478,12.923913 40.5543478,12.923913 L44.1195652,12.923913 L44.1195652,15.5978261 L41.8913043,15.5978261 L41.8913043,17.826087 Z" id="Fill-30" fill="#000000" mask="url(#mask-2)"></path>
                                <path d="M77.5434783,17.826087 L74.8695652,17.826087 L74.8695652,15.5978261 L72.6413043,15.5978261 L72.6413043,12.923913 L76.2065217,12.923913 C76.9445217,12.923913 77.5434783,13.5228696 77.5434783,14.2608696 L77.5434783,17.826087 Z" id="Fill-31" fill="#000000" mask="url(#mask-2)"></path>
                                <path d="M76.2065217,54.8152174 L72.6413043,54.8152174 L72.6413043,52.1413043 L74.8695652,52.1413043 L74.8695652,49.9130435 L77.5434783,49.9130435 L77.5434783,53.4782609 C77.5434783,54.2162609 76.9445217,54.8152174 76.2065217,54.8152174" id="Fill-32" fill="#000000" mask="url(#mask-2)"></path>
                                <path d="M44.1195652,54.8152174 L40.5543478,54.8152174 C39.8163478,54.8152174 39.2173913,54.2162609 39.2173913,53.4782609 L39.2173913,49.9130435 L41.8913043,49.9130435 L41.8913043,52.1413043 L44.1195652,52.1413043 L44.1195652,54.8152174 Z" id="Fill-33" fill="#000000" mask="url(#mask-2)"></path>
                            </g>
                        </g>
                    </g>
                </g>
            </g>
        </g>
    </g>
</svg>