<?xml version="1.0" encoding="UTF-8"?>
<svg width="76px" height="80px" viewBox="0 0 76 80" version="1.1" xmlns="http://www.w3.org/2000/svg" xmlns:xlink="http://www.w3.org/1999/xlink">
    <!-- Generator: sketchtool 60.1 (101010) - https://sketch.com -->
    <title>C679AD3E-8B8F-4DEA-98D6-AD68A93415AA</title>
    <desc>Created with sketchtool.</desc>
    <defs>
        <polygon id="path-1" points="0.864758333 0.854166667 41.8541667 0.854166667 41.8541667 23.9166667 0.864758333 23.9166667"></polygon>
    </defs>
    <g id="Desktop" stroke="none" stroke-width="1" fill="none" fill-rule="evenodd">
        <g id="MPEd-Landing-Page---Design" transform="translate(-194.000000, -2593.000000)">
            <g id="Why-Choose-MPEd?" transform="translate(-70.000000, 1977.000000)">
                <g id="Continue-Working---Card" transform="translate(231.666667, 582.000000)">
                    <g id="Group-4-Copy-2">
                        <g id="continue-working" transform="translate(32.333333, 32.575000)">
                            <polygon id="Fill-1" fill="#7FCDF3" points="52.5317625 16.6569333 43.1273875 36.8665167 51.5306792 37.1569333 67.2593042 37.1569333 75.4593042 16.6569333"></polygon>
                            <polygon id="Fill-2" fill="#000000" points="23.4895833 43.5625 73.03125 43.5625 73.03125 41 23.4895833 41"></polygon>
                            <polygon id="Fill-3" fill="#000000" points="15.375 76.4479167 17.9375 76.4479167 17.9375 67.90625 15.375 67.90625"></polygon>
                            <g id="Group-21" transform="translate(0.000000, 0.854167)">
                                <path d="M47.5880167,77.7875917 C46.5391,74.862925 45.057975,72.1193417 44.0671417,69.1810083 C42.8405583,65.5337167 42.4168917,61.7412167 41.6071417,57.9999667 C41.265475,56.4214667 40.906725,54.8737167 40.1362667,53.450675 C39.3641,52.0225083 38.487725,50.662675 37.81635,49.1798417 C37.6865167,48.889425 37.5942667,48.5904667 37.5225167,48.2880917 C37.3995167,48.2829667 37.2799333,48.2607583 37.1569333,48.2607583 L28.6152667,48.2607583 L28.6152667,48.23855 C28.1335167,48.4982167 27.5680583,48.663925 26.8932667,48.663925 C22.2243917,48.663925 22.2329333,41.4223 26.8932667,41.4223 C27.5680583,41.4223 28.1335167,41.5863 28.6152667,41.8459667 L28.6152667,39.7190917 L30.3236,41.427425 L38.9609333,41.427425 C39.1761833,40.433175 39.7706833,39.5140917 40.6556,39.028925 C40.8725583,38.9093417 41.0878083,38.78805 41.296225,38.6548 C41.3765167,38.60355 41.4773083,38.52155 41.5610167,38.4463833 C41.8326417,38.1867167 41.7301417,38.2977583 41.5610167,38.4463833 C41.4995167,38.506175 41.4209333,38.5813417 41.316725,38.6821333 C41.6583917,38.3490083 42.0308083,38.0585917 42.3553917,37.70155 C42.5501417,37.3513417 42.6116417,37.306925 42.57235,37.3923417 C42.61335,37.3359667 42.6509333,37.2795917 42.6868083,37.2215083 C42.7739333,37.0763 42.8491,36.9157167 42.9276833,36.7619667 C42.9481833,36.702175 42.9703917,36.6423833 42.9891833,36.5825917 C43.0455583,36.394675 43.08485,36.2016333 43.1275583,36.0120083 C43.130975,35.7711333 43.1429333,35.5353833 43.130975,35.2962167 C43.1292667,35.2723 43.1275583,35.2535083 43.12585,35.2295917 L43.10535,35.144175 C43.0780167,35.1424667 43.0523917,35.13905 43.0250583,35.13905 C42.1384333,35.1048833 41.2483917,35.1202583 40.363475,35.051925 C39.2069333,34.9648 38.0452667,35.0040917 36.8853083,34.9648 C35.566475,34.9169667 34.2510583,34.7768833 32.9458917,34.5753 C32.4538917,34.6350917 31.9465167,34.6026333 31.5126,34.48305 C30.554225,34.2199667 29.9067667,33.6049667 29.3481417,32.8191333 C29.2405167,32.6670917 29.1260583,32.5184667 29.0150167,32.3681333 C27.9900167,31.0715083 26.8881417,29.8398 25.8733917,28.5346333 C25.1712667,27.6326333 24.4776833,26.7272167 23.8985583,25.7380917 C23.635475,25.2905083 23.40485,24.8190083 23.1861833,24.3440917 L20.0736,24.3440917 C16.2998917,24.3440917 13.2402667,27.4037167 13.2402667,31.177425 L13.2402667,49.9690917 C13.2402667,55.6288 17.82885,60.2190917 23.4902667,60.2190917 L35.4486,60.2190917 L45.6986,79.0107583 L48.0356,79.0107583 C47.8835583,78.6058833 47.7349333,78.1958833 47.5880167,77.7875917" id="Fill-4" fill="#7F85B4"></path>
                                <path d="M22.5636667,17.2785958 C22.7994167,17.1538875 23.03175,17.0240542 23.25725,16.8788458 C23.3631667,16.8122208 24.051625,16.3902625 23.52375,16.7114292 C23.0215,17.0172208 23.621125,16.6055125 23.733875,16.5013042 C23.8859167,16.3543875 24.026,16.1903875 24.1780417,16.0417625 L24.2173333,16.0041792 C24.2907917,15.8965542 24.3676667,15.7923458 24.436,15.6813042 C24.5829167,15.4506792 24.7042083,15.1602625 24.8425833,14.8954708 C24.7366667,15.0321375 24.6956667,14.9860125 24.97925,14.6358042 C25.0475833,14.4359292 25.1107917,14.2343458 25.1671667,14.0310542 C25.2645417,13.6808458 25.281625,13.1820125 25.4217083,12.8386375 C25.4422083,12.6199708 25.4541667,12.4030125 25.4644167,12.1843458 C25.4832083,11.7350542 25.4780833,11.2840542 25.455875,10.8364708 C25.445625,10.6109708 25.4285417,10.3837625 25.4063333,10.1582625 C25.4063333,10.1463042 25.404625,10.1360542 25.4029167,10.1258042 C25.2594167,9.76534583 25.256,9.24430417 25.168875,8.87359583 C25.0680833,8.42942917 24.9485,7.9903875 24.810125,7.55817917 C24.7059167,7.21992917 24.369375,6.68009583 24.36425,6.32647083 C24.2737083,6.13342917 24.17975,5.94209583 24.0840833,5.75247083 C23.887625,5.37322083 23.6757917,5.0025125 23.4502917,4.64205417 C23.3426667,4.47292917 23.2333333,4.30722083 23.118875,4.14322083 C22.70375,3.76397083 22.7720833,3.77934583 22.9172917,3.91430417 C22.7481667,3.71784583 22.585875,3.5111375 22.4082083,3.3317625 C22.0819167,3.00034583 21.84275,2.62280417 21.673625,2.22647083 C17.8520833,2.67917917 14.9479167,5.72342917 14.9479167,9.4561375 L14.9479167,11.8990542 C14.9479167,15.4301792 17.53775,18.3753458 21.0535,19.0655125 C21.3473333,18.3121375 21.858125,17.6527208 22.5636667,17.2785958" id="Fill-6" fill="#F0CCAE"></path>
                                <path d="M39.4484917,79.6243917 L29.5623667,61.5006833 L18.3642417,61.5006833 C12.0075333,61.5006833 6.83299167,56.3261417 6.83299167,49.9694333 L6.83299167,31.1777667 C6.83299167,26.7019333 10.47345,23.0631833 14.947575,23.0631833 L21.7809083,23.0631833 C22.1618667,23.0631833 22.522325,23.2306 22.7649083,23.522725 L30.9239083,33.3131833 L42.2809083,33.3131833 C42.9181167,33.3131833 43.4596583,33.7812667 43.5484917,34.4116417 C43.5689917,34.5483083 44.0080333,37.8061 41.9033667,40.2336417 C40.480325,41.87535 38.3090333,42.7090167 35.447575,42.7090167 L25.197575,42.7090167 C24.8576167,42.7090167 24.5330333,42.5740583 24.2921583,42.3331833 L17.458825,35.49985 L19.2696583,33.6873083 L25.7288667,40.1465167 L35.447575,40.1465167 C37.5214917,40.1465167 39.0384917,39.615225 39.9541583,38.569725 C40.6938667,37.7258083 40.941575,36.663225 41.0116167,35.8756833 L30.322575,35.8756833 C29.943325,35.8756833 29.5828667,35.7065583 29.338575,35.4144333 L21.1812833,25.6256833 L14.947575,25.6256833 C11.8862417,25.6256833 9.39549167,28.1164333 9.39549167,31.1777667 L9.39549167,49.9694333 C9.39549167,54.91335 13.420325,58.9381833 18.3642417,58.9381833 L30.322575,58.9381833 C30.7923667,58.9381833 31.224575,59.1944333 31.4466583,59.6044333 L41.6966583,78.3961 L39.4484917,79.6243917 Z" id="Fill-8" fill="#000000"></path>
                                <path d="M47.124375,79.41085 L38.8765417,54.3820583 C37.8669167,51.494975 35.1130833,49.54235 32.03125,49.54235 L23.4895833,49.54235 C22.7823333,49.54235 22.2083333,48.96835 22.2083333,48.2611 L22.2083333,39.6545167 L24.7708333,39.6545167 L24.7708333,46.97985 L32.03125,46.97985 C36.1995833,46.97985 39.9254583,49.6226417 41.302375,53.5586417 L49.5570417,78.6096417 L47.124375,79.41085 Z" id="Fill-10" fill="#000000"></path>
                                <path d="M26.90625,68.3333333 L14.9479167,68.3333333 C6.70520833,68.3333333 0,61.628125 0,53.3854167 L0,27.7604167 L2.5625,27.7604167 L2.5625,53.3854167 C2.5625,60.2153333 8.118,65.7708333 14.9479167,65.7708333 L26.90625,65.7708333 L26.90625,68.3333333 Z" id="Fill-12" fill="#000000"></path>
                                <path d="M26.90625,80.2916667 L20.0729167,80.2916667 C19.7329583,80.2916667 19.4066667,80.1567083 19.1675,79.9158333 L16.65625,77.4062917 L14.145,79.9158333 C13.9058333,80.1567083 13.5795417,80.2916667 13.2395833,80.2916667 L6.40625,80.2916667 L6.40625,77.7291667 L12.7082917,77.7291667 L15.7508333,74.6883333 C16.251375,74.1877917 17.061125,74.1877917 17.5616667,74.6883333 L20.6042083,77.7291667 L26.90625,77.7291667 L26.90625,80.2916667 Z" id="Fill-14" fill="#000000"></path>
                                <path d="M17.5104167,3.41666667 C13.9792917,3.41666667 11.1041667,6.12608333 11.1041667,9.455625 L11.1041667,11.8985417 C11.1041667,15.2280833 13.9792917,17.9375 17.5104167,17.9375 C21.0415417,17.9375 23.9166667,15.2280833 23.9166667,11.8985417 L23.9166667,9.455625 C23.9166667,6.12608333 21.0415417,3.41666667 17.5104167,3.41666667 M17.5104167,20.5 C12.5647917,20.5 8.54166667,16.640875 8.54166667,11.8985417 L8.54166667,9.455625 C8.54166667,4.71329167 12.5647917,0.854166667 17.5104167,0.854166667 C22.4560417,0.854166667 26.4791667,4.71329167 26.4791667,9.455625 L26.4791667,11.8985417 C26.4791667,16.640875 22.4560417,20.5 17.5104167,20.5" id="Fill-16" fill="#000000"></path>
                                <g id="Group-20" transform="translate(34.166667, 13.666667)">
                                    <mask id="mask-2" fill="white">
                                        <use xlink:href="#path-1"></use>
                                    </mask>
                                    <g id="Clip-19"></g>
                                    <path d="M32.3732583,23.9166667 L8.822175,23.9166667 L8.822175,21.3541667 L31.505425,21.3541667 L38.680425,3.41666667 L10.6791333,3.41666667 L3.23250833,21.417375 L0.864758333,20.4367917 L8.637675,1.645125 C8.83755,1.16679167 9.303925,0.854166667 9.82325833,0.854166667 L40.5732583,0.854166667 C40.9986333,0.854166667 41.3949667,1.06429167 41.6341333,1.41620833 C41.8733,1.768125 41.9211333,2.21741667 41.7622583,2.61033333 L33.5622583,23.1103333 C33.3675083,23.5972083 32.8977167,23.9166667 32.3732583,23.9166667" id="Fill-18" fill="#000000" mask="url(#mask-2)"></path>
                                </g>
                            </g>
                        </g>
                    </g>
                </g>
            </g>
        </g>
    </g>
</svg>