<?xml version="1.0" encoding="UTF-8"?>
<svg width="305px" height="27px" viewBox="0 0 305 27" version="1.1" xmlns="http://www.w3.org/2000/svg" xmlns:xlink="http://www.w3.org/1999/xlink">
    <!-- Generator: sketchtool 60.1 (101010) - https://sketch.com -->
    <title>013CDC72-A93C-4787-ABBC-111E0D8B3AE1</title>
    <desc>Created with sketchtool.</desc>
    <defs>
        <polygon id="path-1" points="0.0197847222 0.05114375 122.303397 0.05114375 122.303397 23.7694285 0.0197847222 23.7694285"></polygon>
        <polygon id="path-3" points="0.0172100798 0.575915278 21.2005288 0.575915278 21.2005288 26.9791667 0.0172100798 26.9791667"></polygon>
        <polygon id="path-5" points="0.626096528 0.54438125 19.6804028 0.54438125 19.6804028 16.9243326 0.626096528 16.9243326"></polygon>
    </defs>
    <g id="Desktop" stroke="none" stroke-width="1" fill="none" fill-rule="evenodd">
        <g id="MPEd-Landing-Page---Design" transform="translate(-467.000000, -32.000000)">
            <g id="Main-Nav">
                <g id="Group-29" transform="translate(467.500000, 31.000000)">
                    <g id="Group-3" transform="translate(0.000000, 2.002092)">
                        <mask id="mask-2" fill="white">
                            <use xlink:href="#path-1"></use>
                        </mask>
                        <g id="Clip-2"></g>
                        <path d="M17.2159458,6.90385208 C15.7950431,11.0100812 11.3560708,23.7244632 11.3560708,23.7244632 L10.6923833,23.7244632 L3.44218194,3.99010208 L2.25150139,0.846129861 L-0.000359722222,0.846129861 L-0.000359722222,0.05114375 L9.30385556,0.05114375 L9.30385556,0.846129861 L6.39190417,0.846129861 L7.28401528,3.49368542 L12.3507028,17.4652965 L12.4154528,17.4652965 L16.6224042,5.31387986 L14.9658833,0.846129861 L12.1510569,0.846129861 L12.1510569,0.05114375 L22.2826333,0.05114375 L22.2826333,0.846129861 L19.0055639,0.846129861 L19.9012722,3.42893542 L25.0327097,17.4652965 L25.0992583,17.4652965 L29.6677306,3.49368542 L30.4285431,0.846129861 L27.5147931,0.846129861 L27.5147931,0.05114375 L34.1031056,0.05114375 L34.1031056,0.846129861 L31.7523208,0.846129861 L30.7271125,3.75808125 L24.171175,23.7244632 L23.4751125,23.7244632 L17.2159458,6.90385208 Z M76.8848694,12.6989771 C77.0611333,10.2834424 77.9424528,7.94524792 80.4856889,7.94524792 C83.1925986,7.94524792 83.7897375,10.0604146 83.8490917,12.2996854 C83.8544875,12.5083243 83.8562861,13.2331646 83.8562861,13.4310118 L76.8560917,13.4310118 C76.8560917,13.2151785 76.8686819,12.9256021 76.8848694,12.6989771 L76.8848694,12.6989771 Z M86.8887444,18.9005882 C85.97505,21.0517271 84.4480292,22.7640049 81.6529875,22.7640049 C77.4712167,22.7640049 76.8560917,19.5786646 76.8560917,14.6954354 L76.8560917,14.4364354 L87.6153833,14.4364354 C87.6153833,10.0927896 85.2088417,7.11069236 80.7123139,7.11069236 C75.8093,7.11069236 73.1617444,10.8913729 73.1617444,15.4400604 C73.1617444,20.1829979 75.6456264,23.7694285 80.6817375,23.7694285 C83.7969319,23.7694285 86.3257792,22.5913382 87.6477583,19.1487965 L86.8887444,18.9005882 Z M34.9880222,12.6989771 C35.1642861,10.2834424 36.0438069,7.94524792 38.5888417,7.94524792 C41.2957514,7.94524792 41.8910917,10.0604146 41.9504458,12.2996854 C41.9558417,12.5083243 41.9594389,13.2331646 41.9594389,13.4310118 L34.9574458,13.4310118 C34.9574458,13.2151785 34.9718347,12.9256021 34.9880222,12.6989771 L34.9880222,12.6989771 Z M44.9918972,18.9005882 C44.0764042,21.0517271 42.5511819,22.7640049 39.7543417,22.7640049 C35.5743694,22.7640049 34.9574458,19.5786646 34.9574458,14.6954354 L34.9574458,14.4364354 L45.7167375,14.4364354 C45.7167375,10.0927896 43.3119944,7.11069236 38.8154667,7.11069236 C33.9106542,7.11069236 31.2630986,10.8913729 31.2630986,15.4400604 C31.2630986,20.1829979 33.7469806,23.7694285 38.7830917,23.7694285 C41.8982861,23.7694285 44.4271333,22.5913382 45.7509111,19.1487965 L44.9918972,18.9005882 Z M102.365793,9.30140069 C102.365793,8.01899097 101.416126,7.04594236 99.6534875,7.04594236 C97.0167236,7.04594236 95.7091333,9.41291458 95.0292583,11.2924632 L94.9860917,11.2924632 L94.9860917,6.91644236 C94.4626958,7.34631042 93.9321056,7.75999097 92.5327861,7.75999097 L88.8941958,7.75999097 L88.8941958,8.57116458 L91.6802444,8.57116458 L91.6802444,22.5697549 L88.8941958,22.5697549 L88.8941958,23.3809285 L97.6768139,23.3809285 L97.6768139,22.5697549 L94.9860917,22.5697549 L94.9860917,15.6666854 C94.9860917,11.9957201 96.7900986,8.00640069 99.1067097,8.00640069 C99.2793764,8.00640069 99.3962861,8.02618542 99.4916125,8.07115069 C99.0923208,8.39130347 98.8387167,8.88052569 98.8387167,9.43090069 C98.8387167,10.4489146 99.6193139,11.1755535 100.585168,11.1755535 C101.635557,11.1755535 102.365793,10.3032271 102.365793,9.30140069 L102.365793,9.30140069 Z M71.6347236,20.6002757 C71.21205,21.5427479 70.5393694,22.4708312 69.3378972,22.4708312 C68.10405,22.4708312 67.5914458,21.6956299 67.5914458,19.7837062 L67.5914458,8.57116458 L71.5789667,8.57116458 L71.5789667,7.75999097 L67.5914458,7.75999097 L67.5914458,2.40732431 L66.9079736,2.40732431 C66.4655153,5.86245625 64.7316542,7.63228958 61.5912792,7.93265764 L61.5912792,8.56936597 L61.5912792,8.57116458 L64.2172514,8.57116458 L64.2172514,19.6542062 C64.2172514,21.7280049 64.6201403,23.7046785 67.9907375,23.7046785 C70.1166958,23.7046785 71.4063,22.7244354 72.0789806,21.4510187 L72.3361819,20.9348174 L71.6347236,20.6002757 Z M103.214738,22.5697549 L103.214738,23.3809285 L111.867856,23.3809285 L111.867856,22.5697549 L109.308432,22.5697549 L109.308432,14.1450604 C109.308432,11.1305882 110.860633,8.21324097 113.792369,8.21324097 C115.439897,8.21324097 116.438126,9.14312292 116.438126,11.5838382 L116.438126,22.5697549 L113.876904,22.5697549 L113.876904,23.3809285 L122.303397,23.3809285 L122.303397,22.5697549 L119.743974,22.5697549 L119.743974,11.6809632 C119.743974,8.43986597 118.1558,7.04594236 114.979453,7.04594236 C112.322904,7.04594236 110.378606,8.34274097 109.373182,10.5478382 L109.308432,10.5478382 L109.308432,6.97939375 C108.871369,7.33911597 108.279626,7.75999097 106.840738,7.75999097 L103.410786,7.75999097 L103.410786,8.57116458 L106.002585,8.57116458 L106.002585,22.5697549 L103.214738,22.5697549 Z M58.3663694,6.97579653 C58.0660014,7.31393542 57.6667097,7.49919236 57.1756889,7.49919236 C56.0839319,7.49919236 55.4112514,7.04594236 53.7403417,7.04594236 C50.8823486,7.04594236 48.6682583,8.59994236 48.6682583,11.4201646 C48.6682583,17.1919076 57.5156264,15.959859 57.5156264,20.1074562 C57.5156264,21.9870049 56.1468833,22.8773174 54.4507931,22.8773174 C51.2798417,22.8773174 49.4182792,20.816109 48.7240153,17.7890465 L47.9362236,17.7890465 L48.9974042,23.5967618 C49.3391403,23.1956715 49.7905917,23.049984 50.2420431,23.049984 C51.1575361,23.049984 52.3140431,23.7478451 54.3716542,23.7478451 C57.6757028,23.7478451 60.172175,21.9096646 60.172175,18.7782826 C60.172175,12.5155187 51.1863139,14.170241 51.1863139,10.1215674 C51.1863139,8.83376181 52.1036056,7.88229653 53.7601264,7.88229653 C56.3860986,7.88229653 57.8555639,9.73486597 58.4868764,11.9381646 L59.2638764,11.9381646 L58.3663694,6.97579653 Z" id="Fill-1" fill="#4F2683" mask="url(#mask-2)"></path>
                    </g>
                    <g id="Group-28" transform="translate(126.680556, 0.446537)">
                        <path d="M21.1998111,11.4988806 L21.1980125,2.00581111 C18.7411097,1.13708194 14.8848875,0.575915278 10.5358458,0.575915278 C6.27133889,0.575915278 2.47447083,1.13528333 0.0193666667,2.00581111 L0.0175680556,11.6373736 C0.0175680556,13.0564778 -0.0471819444,15.5691375 1.24422083,18.5782139 C2.84678333,22.3139292 5.95118611,25.1233597 10.3793667,26.8842 L10.6077903,26.9777278 L10.8362139,26.8859986 C15.2679917,25.1233597 18.3687972,22.3139292 19.9731583,18.5782139 C21.2645611,15.5691375 21.1998111,12.8604292 21.1998111,11.4988806" id="Fill-4" fill="#FEFEFE"></path>
                        <g id="Group-8">
                            <mask id="mask-4" fill="white">
                                <use xlink:href="#path-3"></use>
                            </mask>
                            <g id="Clip-7"></g>
                            <path d="M16.4714424,15.585325 C16.4858313,15.5565472 16.4948243,15.5169778 16.4948243,15.4935958 C16.4948243,15.4774083 16.4930257,15.4540264 16.4750396,15.4360403 C16.4570535,15.4198528 16.4120882,15.4108597 16.3653243,15.4108597 C16.320359,15.4108597 16.2699979,15.4180542 16.2430188,15.4360403 C16.2394215,15.4486306 16.2340257,15.4648181 16.2268313,15.4828042 C16.311366,15.4828042 16.4030951,15.5043875 16.4714424,15.585325 L16.4714424,15.585325 Z M16.9049076,17.4792625 L16.8869215,17.4792625 C16.8725326,17.6267486 16.7897965,17.8497764 16.7394354,17.9307139 L16.8329632,17.8569708 L16.894116,17.9307139 L16.9570674,17.8569708 L17.0451993,17.9307139 C16.9966368,17.8461792 16.9192965,17.62495 16.9049076,17.4792625 L16.9049076,17.4792625 Z M18.0020604,17.5494083 C18.0236438,17.5206306 18.0470257,17.4774639 18.0470257,17.4774639 C17.9552965,17.3371722 17.8851507,17.1842903 17.897741,17.0062278 C17.9121299,16.8137764 18.0200465,16.7562208 18.1045813,16.7598181 C18.1801229,16.7634153 18.2322826,16.8209708 18.2358799,16.9055056 C18.3006299,16.8515472 18.327609,16.7867972 18.3330049,16.7238458 C18.3366021,16.6734847 18.3114215,16.5961444 18.2268868,16.5745611 C18.3797688,16.4324708 18.3653799,16.1482903 18.2089007,16.0403736 C18.230484,16.2436167 18.0794007,16.3839083 17.9427063,16.5152069 C17.7592479,16.6932694 17.735866,16.8947139 17.768241,17.1033528 C17.6585257,16.8929153 17.6081646,16.6950681 17.6225535,16.4990194 C17.638741,16.2795889 17.7484563,16.0529639 17.9085326,16.0655542 C17.9606924,16.0691514 18.0146507,16.0943319 18.0344354,16.1410958 C18.1117757,16.0115958 18.0578174,15.8713042 17.9355118,15.8605125 C18.059616,15.5583458 17.8563729,15.2543806 17.6873035,15.1896306 C17.7322688,15.2795611 17.7520535,15.3712903 17.744859,15.4756097 C17.7250743,15.7669847 17.4696715,15.9990056 17.444491,16.4306722 C17.4175118,16.8983111 17.6765118,17.3047972 17.9552965,17.6141583 C17.9552965,17.6141583 17.9786785,17.5835819 18.0020604,17.5494083 L18.0020604,17.5494083 Z M16.3401438,16.8371583 L16.3221576,16.8371583 C16.3077688,16.9846444 16.2268313,17.2076722 16.1746715,17.2904083 L16.2699979,17.2148667 L16.3311507,17.2904083 L16.3923035,17.2166653 L16.4804354,17.2904083 C16.4336715,17.204075 16.3545326,16.9846444 16.3401438,16.8371583 L16.3401438,16.8371583 Z M16.0109979,15.1518597 C15.996609,15.1770403 15.9984076,15.2004222 16.0020049,15.2202069 C16.0020049,15.2220056 16.0109979,15.2327972 16.0127965,15.2345958 C16.0038035,15.2723667 16.0056021,15.3209292 16.019991,15.3874778 C16.028984,15.4270472 16.0649563,15.4414361 16.1297063,15.4432347 C16.1297063,15.4594222 16.1333035,15.4738111 16.1369007,15.4899986 L16.1369007,15.4953944 C16.0991299,15.5061861 16.061359,15.5133806 16.0271854,15.5115819 C15.922866,15.5043875 15.858116,15.4468319 15.8725049,15.3425125 C15.8743035,15.3227278 15.8796993,15.3065403 15.8886924,15.2903528 C15.8940882,15.2813597 15.8886924,15.2741653 15.8814979,15.2705681 C15.8437271,15.2579778 15.737609,15.3461097 15.7214215,15.4666167 C15.7070326,15.5835264 15.7717826,15.6464778 15.867109,15.6536722 C15.9192688,15.6554708 15.9912132,15.6482764 16.0667549,15.6194986 C16.1944563,15.5673389 16.3419424,15.5511514 16.4300743,15.6410819 C16.3635257,15.6284917 16.1890604,15.6410819 16.1386993,15.650075 C16.0631576,15.6644639 16.0271854,15.8209431 16.1099215,15.8245403 C16.1746715,15.8281375 16.4102896,15.8137486 16.4228799,15.8173458 C16.3976993,15.9198667 16.246616,16.0493667 16.0991299,16.0799431 C16.0091993,16.0421722 15.7466021,16.0511653 15.6278938,16.0871375 C15.4768104,15.9180681 15.3688938,15.6033111 15.3563035,15.5007903 C15.349109,15.4522278 15.349109,15.3982694 15.372491,15.3551028 C15.4210535,15.2687694 15.5145813,15.2759639 15.5613451,15.2022208 C15.5865257,15.1626514 15.5739354,15.1158875 15.5829285,15.0727208 C15.5847271,15.0529361 15.6242965,14.9881861 15.5739354,14.9648042 C15.5541507,14.9917833 15.5199771,15.0115681 15.4768104,14.9989778 C15.4480326,14.9881861 15.4174563,14.9791931 15.3868799,14.9917833 C15.3347201,15.0151653 15.3239285,15.0799153 15.284359,15.1212833 C15.2627757,15.1446653 15.2339979,15.1356722 15.2393938,15.0979014 C15.251984,15.0385472 15.2807618,14.9827903 15.2717688,14.9216375 C15.2609771,14.8604847 15.2160118,14.8119222 15.1530604,14.7777486 C15.1278799,14.7633597 15.0973035,14.7381792 15.0667271,14.7291861 C15.0361507,14.7219917 15.0127688,14.7327833 15.0091715,14.7453736 C15.025359,14.7561653 15.0361507,14.7723528 15.0379493,14.7975333 C15.0397479,14.8514917 14.9785951,14.8820681 14.9785951,14.9342278 C14.9767965,15.0133667 15.0325535,15.0853111 15.0379493,15.1266792 C15.0415465,15.1590542 15.0145674,15.1590542 14.9947826,15.1500611 C14.9552132,15.1266792 14.8904632,15.0925056 14.8293104,15.0907069 C14.7807479,15.0907069 14.7483729,15.1284778 14.7052063,15.1464639 C14.6872201,15.1536583 14.6098799,15.1536583 14.6242688,15.1896306 C14.6674354,15.1986236 14.6980118,15.2274014 14.7141993,15.2669708 C14.724991,15.2975472 14.7303868,15.3209292 14.7591646,15.3425125 C14.8077271,15.3748875 14.9084493,15.3676931 14.9552132,15.3748875 C14.9875882,15.3820819 15.0235604,15.4000681 15.0325535,15.4648181 C15.0397479,15.5097833 15.0235604,15.5601444 15.0019771,15.5961167 C14.9642063,15.6626653 14.9444215,15.7328111 14.9624076,15.7957625 C14.9803938,15.7723806 14.9983799,15.7615889 15.0199632,15.7615889 C15.0613313,15.7615889 15.0739215,15.8101514 15.0433451,15.8749014 C15.016366,15.9342556 14.9983799,16.0026028 15.025359,16.0781444 C15.0379493,16.0529639 15.0595326,16.0367764 15.0847132,16.0367764 C15.1206854,16.0367764 15.1422688,16.0781444 15.1152896,16.1500889 C15.090109,16.2184361 15.0829146,16.2831861 15.1098938,16.3461375 C15.1206854,16.3191583 15.1440674,16.2993736 15.1710465,16.2993736 C15.210616,16.2993736 15.2286021,16.3407417 15.242991,16.3749153 C15.2897549,16.4900264 15.3652965,16.5493806 15.5523521,16.5493806 C15.4876021,16.6734847 14.9462201,16.5943458 14.7267896,16.5691653 C14.6800257,16.5637694 14.6530465,16.5493806 14.6386576,16.5116097 C14.604484,16.4252764 14.6854215,16.3533319 14.6386576,16.2634014 C14.6170743,16.2184361 14.5793035,16.2058458 14.5415326,16.1806653 C14.5235465,16.1698736 14.4731854,16.1069222 14.4408104,16.1339014 C14.4551993,16.168075 14.4516021,16.1968528 14.4138313,16.2310264 C14.3886507,16.2526097 14.3634701,16.2723944 14.3598729,16.3083667 C14.3526785,16.3695194 14.4030396,16.4288736 14.4192271,16.4810333 C14.433616,16.5206028 14.4084354,16.5367903 14.3760604,16.5116097 C14.3239007,16.4720403 14.248359,16.3803111 14.1674215,16.3803111 C14.1134632,16.3803111 14.0990743,16.4126861 14.0559076,16.4324708 C14.0361229,16.4396653 13.9515882,16.4486583 13.9605813,16.4900264 C13.9965535,16.4972208 14.0289285,16.5188042 14.0379215,16.5673667 C14.045116,16.6015403 14.054109,16.6339153 14.0828868,16.6554986 C14.1548313,16.7112556 14.2699424,16.6878736 14.336491,16.7004639 C14.3634701,16.7058597 14.368866,16.7292417 14.3436854,16.7454292 C14.2861299,16.7778042 14.2051924,16.8011861 14.1764146,16.8587417 C14.1548313,16.9037069 14.1674215,16.9576653 14.1674215,17.0026306 C14.1674215,17.0242139 14.1404424,17.0871653 14.1854076,17.0997556 C14.206991,17.0709778 14.2375674,17.0475958 14.2915257,17.0547903 C14.3239007,17.0601861 14.3526785,17.074575 14.3850535,17.0583875 C14.4408104,17.0296097 14.4462063,16.97745 14.474984,16.9288875 C14.4911715,16.9055056 14.5163521,16.880325 14.5559215,16.880325 C14.5811021,16.880325 14.6026854,16.8857208 14.6224701,16.9037069 C14.6674354,16.9414778 14.6620396,17.0332069 14.7951368,17.0529917 C14.7879424,17.0386028 14.7843451,17.0206167 14.7843451,17.0062278 C14.7843451,16.9792486 14.8005326,16.9576653 14.8275118,16.9576653 C14.8580882,16.9576653 14.8778729,16.9720542 14.9066507,17.0188181 C14.9408243,17.0799708 14.9785951,17.0979569 15.0379493,17.1051514 C15.0307549,17.0889639 15.025359,17.0709778 15.025359,17.0529917 C15.025359,17.0260125 15.0415465,17.0080264 15.0685257,17.0080264 C15.0829146,17.0080264 15.1116924,17.0134222 15.1350743,17.0547903 C15.1728451,17.1195403 15.2016229,17.1501167 15.2681715,17.1591097 C15.2483868,17.1213389 15.2645743,17.0691792 15.3149354,17.0691792 C15.3652965,17.0691792 15.4929979,17.1141444 15.5883243,17.1537139 C15.5847271,17.3965264 15.7412063,17.657325 15.9768243,17.8156028 C15.9678313,17.7706375 15.9930118,17.7436583 16.0271854,17.7436583 C16.1225118,17.7436583 16.1710743,17.9684847 16.3833104,18.0710056 C16.3725188,18.0278389 16.3959007,18.0008597 16.4264771,18.0008597 C16.4516576,18.0008597 16.4858313,18.0170472 16.505616,18.0260403 C16.6962688,18.1303597 16.8977132,18.2598597 16.9966368,18.3461931 C17.194484,18.2850403 17.518234,18.0907903 17.7304701,17.8731583 C17.5991715,17.8335889 17.2394493,17.5637972 17.1135465,17.4342972 C16.8887201,17.2004778 16.8275674,16.9576653 16.8275674,16.7778042 C16.8275674,16.7166514 16.8365604,16.6590958 16.8509493,16.6141306 C16.9174979,16.6537 17.0110257,16.6483042 17.0685813,16.5961444 C16.9642618,16.5152069 16.9804493,16.3551306 17.0146229,16.297575 C17.0721785,16.3443389 17.1764979,16.32995 17.2286576,16.2831861 C17.1495188,16.2346236 17.1081507,16.1069222 17.1495188,15.9972069 C17.1908868,16.0421722 17.2952063,16.0457694 17.356359,15.9936097 C17.2736229,15.9252625 17.2322549,15.8155472 17.2556368,15.6842486 C17.2934076,15.7364083 17.3671507,15.7454014 17.4193104,15.7220194 C17.3869354,15.6536722 17.3833382,15.5367625 17.3743451,15.4594222 C17.3617549,15.3551028 17.3311785,15.2345958 17.2952063,15.1716444 C17.1818938,15.0727208 16.8365604,14.9342278 16.6207271,14.9342278 C16.5919493,14.9342278 16.5631715,14.9396236 16.5397896,14.9450194 C16.4786368,14.9576097 16.4372688,14.9791931 16.4336715,14.9899847 C16.4030951,15.0403458 16.3221576,15.0511375 16.2502132,15.0709222 C16.1998521,15.0853111 16.061359,15.1212833 16.0109979,15.1518597 L16.0109979,15.1518597 Z M16.6836785,15.1158875 C16.667491,15.1158875 16.6513035,15.1140889 16.635116,15.1104917 C16.6189285,15.1068944 16.611734,15.0997 16.6081368,15.0943042 C16.602741,15.0889083 16.5883521,15.0727208 16.5505813,15.0691236 C16.4858313,15.0655264 16.4516576,15.1158875 16.4480604,15.1464639 C16.4462618,15.1698458 16.4516576,15.1932278 16.4642479,15.2094153 C16.4786368,15.2256028 16.4948243,15.2327972 16.514609,15.2345958 C16.5271993,15.2363944 16.5415882,15.2345958 16.5577757,15.2292 L16.5595743,15.2274014 C16.5847549,15.2130125 16.5991438,15.1896306 16.6081368,15.1662486 C16.611734,15.1554569 16.644109,15.1428667 16.6782826,15.1410681 C16.6854771,15.1410681 16.6926715,15.1374708 16.6926715,15.1302764 C16.6944701,15.1230819 16.6908729,15.1176861 16.6836785,15.1158875 L16.6836785,15.1158875 Z M17.3833382,14.6158736 C17.3977271,14.6356583 17.4085188,14.6590403 17.4103174,14.6842208 C17.4103174,14.7453736 17.3617549,14.7975333 17.3006021,14.7993319 C17.2376507,14.8011306 17.1872896,14.7525681 17.185491,14.6896167 C17.1836924,14.6338597 17.2250604,14.5852972 17.2808174,14.5763042 L17.1513174,14.3784569 L16.9318868,14.4737833 C16.9552688,14.4935681 16.9696576,14.5223458 16.9714563,14.5547208 C16.9732549,14.6158736 16.9246924,14.6680333 16.8635396,14.6698319 C16.8005882,14.6716306 16.7484285,14.6230681 16.7484285,14.5601167 C16.7466299,14.5133528 16.7754076,14.4719847 16.8167757,14.4539986 C16.7502271,14.3838528 16.6099354,14.2795333 16.4750396,14.2345681 C16.579359,14.4234222 16.6369146,14.6590403 16.6333174,14.8532903 C16.773609,14.8442972 17.1585118,14.9630056 17.3059979,15.0727208 C17.4247063,14.8964569 17.6027688,14.7291861 17.8024146,14.6590403 C17.7070882,14.6266653 17.5200326,14.5978875 17.3833382,14.6158736 L17.3833382,14.6158736 Z M13.7465444,16.3263528 C13.7501438,14.9396236 14.8670813,13.8190889 16.2412201,13.8208853 C17.6171576,13.8244847 18.7304979,14.9486167 18.7269094,16.3335472 C18.7269094,17.7184778 17.6081646,18.8408111 16.2340257,18.8390147 C14.8580882,18.8354153 13.7447479,17.6825056 13.7465444,16.3263528 L13.7465444,16.3263528 Z M4.72831042,15.3011444 C4.74090069,15.2903528 4.75888681,15.2723667 4.77687292,15.261575 C4.81464375,15.2417903 4.86860208,15.2292 4.90277569,15.2238042 C4.91896319,15.2489847 4.91176875,15.2921514 4.88299097,15.3245264 C4.85241458,15.3604986 4.81824097,15.3443111 4.78946319,15.3299222 C4.76608125,15.3191306 4.74809514,15.3209292 4.74090069,15.3209292 C4.72831042,15.3209292 4.72111597,15.3083389 4.72831042,15.3011444 L4.72831042,15.3011444 Z M6.57908125,15.2885542 C6.58447708,15.3640958 6.54670625,15.4917972 6.51792847,15.5259708 C6.49094931,15.5331653 6.42080347,15.5403597 6.36684514,15.5439569 C6.33447014,15.5457556 6.32547708,15.5493528 6.30569236,15.5835264 C6.24274097,15.6878458 6.18698403,15.7867694 6.12223403,15.9126722 C6.10784514,16.0583597 6.10784514,16.2022486 6.09705347,16.3767139 C6.09345625,16.4378667 6.10065069,16.5188042 6.06108125,16.5907486 C6.00532431,16.6590958 5.94776875,16.7094569 5.89920625,16.7418319 C5.88841458,16.7490264 5.87402569,16.7670125 5.91539375,16.7544222 C5.94057431,16.7472278 6.05568542,16.6896722 6.08086597,16.6806792 C6.16180347,16.6537 6.25533125,16.5547764 6.38483125,16.6788806 C6.44778264,16.7400333 6.54310903,16.7975889 6.65462292,16.8731306 C6.69778958,16.9019083 6.71937292,16.8965125 6.77692847,16.945075 C6.82009514,16.9864431 6.84167847,17.074575 6.86865764,17.1195403 C6.93700486,17.2382486 6.94599792,17.3101931 6.94419931,17.3389708 C6.89923403,17.3623528 6.73735903,17.3641514 6.67081042,17.3443667 C6.64922708,17.3029986 6.65102569,17.2418458 6.63663681,17.2112694 C6.61505347,17.1537139 6.59347014,17.1249361 6.56469236,17.1033528 C6.51433125,17.0673806 6.47656042,17.0278111 6.42440069,16.9990333 C6.29849792,16.9288875 6.28410903,16.9109014 6.19058125,16.9576653 C6.10604653,16.9972347 5.97474792,17.1177417 5.83625486,17.1896861 C5.72833819,17.2418458 5.42976875,17.1878875 5.34883125,17.1141444 C5.37581042,17.1950819 5.54308125,17.2868111 5.66898403,17.3461653 C5.65099792,17.3893319 5.60603264,17.6195542 5.51430347,17.7526514 C5.50890764,17.7202764 5.48912292,17.6950958 5.46034514,17.6950958 C5.37581042,17.6950958 5.39019931,17.8749569 5.31106042,17.9684847 C5.30566458,17.9397069 5.28587986,17.9091306 5.25350486,17.9091306 C5.17436597,17.9091306 5.18335903,18.0782 5.09522708,18.1663319 C5.08443542,18.1303597 5.06465069,18.1033806 5.02687986,18.1033806 C4.99270625,18.1033806 4.95853264,18.1375542 4.92975486,18.1699292 C4.82363681,18.2850403 4.77147708,18.3497903 4.67075486,18.4577069 C4.32901875,18.4361236 3.82360903,18.2005056 3.64734514,17.9846722 C3.96929653,17.6393389 4.26067153,17.2922069 4.40276181,17.1914847 C4.47110903,16.9882417 4.67435208,16.556575 4.74809514,16.3569292 C4.73910208,16.3371444 4.73010903,16.3191583 4.71931736,16.2993736 C4.66715764,16.3281514 4.60780347,16.3353458 4.58262292,16.3209569 C4.60420625,16.2652 4.60600486,16.1770681 4.58082431,16.1087208 C4.54665069,16.1285056 4.49449097,16.1410958 4.45672014,16.1267069 C4.48010208,16.0583597 4.48369931,15.9810194 4.46211597,15.9180681 C4.46211597,15.9180681 4.46211597,15.9162694 4.46031736,15.9162694 C4.41535208,15.9360542 4.37218542,15.9432486 4.33801181,15.9306583 C4.35779653,15.8551167 4.37578264,15.7849708 4.35240069,15.6896444 C4.35060208,15.68245 4.34880347,15.6770542 4.34520625,15.6698597 C4.28405347,15.7004361 4.06642153,15.7400056 4.01785903,15.7202208 C3.98548403,15.6950403 4.17253958,15.5061861 4.32901875,15.3497069 C4.18153264,15.4144569 3.98908125,15.4846028 3.69410903,15.5439569 C3.52683819,15.5763319 3.17431042,15.6392833 2.92610208,15.5943181 C2.88293542,15.5871236 2.89372708,15.5313667 2.93329653,15.5313667 C3.06459514,15.5313667 3.24085903,15.5241722 3.37035903,15.4917972 C3.40633125,15.4846028 3.46028958,15.4540264 3.36136597,15.4360403 C3.25524792,15.4180542 3.05919931,15.3856792 2.96207431,15.3533042 C2.92969931,15.3425125 2.94768542,15.3011444 2.97646319,15.3029431 C3.09517153,15.3119361 3.23726181,15.3371167 3.33978264,15.3407139 C3.39733819,15.3425125 3.42431736,15.3353181 3.37935208,15.2975472 C3.35237292,15.2741653 3.26783819,15.2202069 3.18330347,15.1698458 C3.16351875,15.1590542 3.16711597,15.132075 3.19049792,15.1284778 C3.25704653,15.1176861 3.52324097,15.2831583 3.70130347,15.3317208 C3.74087292,15.3425125 3.77504653,15.3497069 3.80922014,15.3443111 C3.84339375,15.3371167 3.85058819,15.3173319 3.84699097,15.3011444 C3.83979653,15.2597764 3.66353264,15.1770403 3.57899792,15.1194847 C3.54302569,15.0961028 3.58079653,15.0691236 3.61676875,15.0799153 C3.71209514,15.1068944 3.92792847,15.2220056 4.02685208,15.2345958 C4.10599097,15.2435889 4.13297014,15.2220056 4.12937292,15.2004222 C4.12037986,15.1464639 3.82181042,15.0061722 3.74986597,14.9540125 C3.73187986,14.9414222 3.75526181,14.9162417 3.77684514,14.9198389 C3.92972708,14.9396236 4.22829653,15.1446653 4.35959514,15.1212833 C4.37398403,15.1194847 4.39197014,15.1086931 4.39017153,15.0889083 C4.37937986,15.0295542 4.12937292,14.9018528 4.06822014,14.8586861 C4.03764375,14.8389014 4.07361597,14.8173181 4.11678264,14.8263111 C4.20671319,14.8478944 4.34880347,14.9198389 4.43513681,14.9630056 C4.47470625,14.9827903 4.50708125,14.9899847 4.54844931,14.9827903 C4.60420625,14.9737972 4.65097014,14.9162417 4.62938681,14.7975333 C4.60600486,14.678825 4.49449097,14.6320611 4.41715069,14.6104778 C4.32901875,14.5852972 4.39376875,14.5457278 4.46931042,14.5601167 C4.61140069,14.5870958 4.71751875,14.6536444 4.74090069,14.7813458 C4.74449792,14.8011306 4.74629653,14.8299083 4.74629653,14.8568875 C4.74989375,14.9270333 4.79845625,14.9018528 4.84162292,14.8442972 C4.92076181,14.7327833 4.93694931,14.6230681 4.92256042,14.5475264 C4.89917847,14.4180264 4.71572014,14.3658667 4.71572014,14.3352903 C4.71572014,14.3244986 4.72651181,14.3155056 4.73730347,14.3137069 C4.80744931,14.3011167 4.99990069,14.3838528 5.02867847,14.5403319 C5.04306736,14.6212694 5.02867847,14.6662347 5.01428958,14.7453736 C5.01069236,14.7633597 5.02328264,14.7777486 5.04846319,14.7507694 C5.14019236,14.6572417 5.21753264,14.4917694 5.19055347,14.3406861 C5.16177569,14.1806097 4.99810208,14.1248528 4.99270625,14.0978736 C4.99090764,14.0906792 5.00349792,14.0798875 5.01788681,14.0780889 C5.08443542,14.0654986 5.26789375,14.1734153 5.30206736,14.3496792 C5.33264375,14.5079569 5.25890069,14.8335056 4.77147708,15.0943042 C4.97651875,15.0493389 5.03407431,15.0547347 5.05385903,15.0799153 C5.28947708,15.0169639 5.44056042,14.9702 5.50171319,14.9827903 C5.56826181,15.0835125 5.42797014,15.1248806 5.42617153,15.2004222 C5.42797014,15.2723667 5.58984514,15.1518597 5.56286597,15.2669708 C5.51250486,15.3569014 5.44955347,15.3622972 5.37581042,15.391075 C5.33983819,15.4162556 5.19415069,15.5187764 5.11501181,15.5835264 C5.35062986,15.7489986 5.59164375,15.9972069 5.60783125,16.0097972 C5.62042153,16.0457694 5.67977569,16.1482903 5.74452569,16.3029708 C5.74632431,16.3065681 5.74992153,16.3101653 5.74992153,16.3119639 C5.78409514,16.2130403 5.83805347,16.0439708 5.86143542,15.9594361 C5.88122014,15.8856931 5.87582431,15.8623111 5.89920625,15.8173458 C5.91899097,15.7813736 5.98553958,15.7202208 6.04309514,15.6320889 C6.09705347,15.5547486 6.18158819,15.4342417 6.21036597,15.3874778 C6.26072708,15.3119361 6.30928958,15.3281236 6.40101875,15.3029431 C6.43519236,15.29395 6.53771319,15.2867556 6.57908125,15.2885542 L6.57908125,15.2885542 Z M4.96392847,18.8336188 C6.33986597,18.8354153 7.45680347,17.7148806 7.46040287,16.3281514 C7.46219931,14.9432208 6.34885903,13.8172903 4.97292153,13.8154895 C3.59698403,13.8136931 2.48004653,14.9342278 2.47644713,16.3191583 C2.47465069,17.7058875 3.58978958,18.8318181 4.96392847,18.8336188 L4.96392847,18.8336188 Z M17.0703799,21.6664292 L10.6079701,16.3982972 L4.14735903,21.6664292 C0.812734028,17.7940194 0.836115972,13.3262694 0.845109028,11.4826931 L0.845109028,8.45023472 L0.857699306,8.45023472 L10.6079701,16.3982972 L20.3564424,8.45023472 L20.3708313,8.45023472 L20.3708313,11.4826931 C20.3816229,13.3262694 20.4050049,17.7940194 17.0703799,21.6664292 L17.0703799,21.6664292 Z M12.5198938,10.923325 C12.6116229,10.8531792 12.6727757,10.7776375 12.6727757,10.6499361 C12.6727757,10.50245 12.5738521,10.4071236 12.4605396,10.4071236 C12.3310396,10.4071236 12.2590951,10.5114431 12.2590951,10.6211583 C12.2590951,10.7380681 12.3400326,10.8172069 12.5198938,10.923325 L12.5198938,10.923325 Z M12.6457965,11.40895 C12.6457965,11.2956375 12.5936368,11.2218944 12.3562201,11.0780056 C12.2519007,11.1337625 12.1961438,11.2416792 12.1961438,11.3424014 C12.1961438,11.5276583 12.3256438,11.6157903 12.4299632,11.6157903 C12.5774493,11.6157903 12.6457965,11.5078736 12.6457965,11.40895 L12.6457965,11.40895 Z M12.3004632,11.0492278 C12.1637688,10.9682903 12.070241,10.8495819 12.070241,10.6984986 C12.070241,10.5689986 12.1637688,10.3369778 12.4713313,10.3369778 C12.7159424,10.3369778 12.8220604,10.4898597 12.8220604,10.6283528 C12.8220604,10.7722417 12.7716993,10.8567764 12.5666576,10.9503042 C12.7645049,11.0510264 12.8544354,11.1589431 12.8544354,11.3154222 C12.8544354,11.5294569 12.685366,11.6877347 12.426366,11.6877347 C12.1943451,11.6877347 12.046859,11.5276583 12.046859,11.3603875 C12.046859,11.1769292 12.1907479,11.0869986 12.3004632,11.0492278 L12.3004632,11.0492278 Z M10.9910743,11.0887972 L11.0486299,11.0887972 L11.0953938,10.9664917 L11.6385743,10.9664917 L11.107984,12.0528528 L11.2087063,12.0798319 L11.8687965,10.7794361 L11.8544076,10.76145 L11.0414354,10.76145 L10.9910743,11.0887972 Z M11.6745465,9.65890139 C12.1098104,9.65890139 12.6565882,9.73983889 13.2321438,9.73983889 L13.2321438,12.6374014 C12.1853521,12.5330819 10.9569007,12.4503458 10.687109,12.9575542 L10.687109,12.8046722 C10.9317201,12.347825 12.0324701,12.3873944 13.0720674,12.4881167 L13.0720674,12.4053806 C12.0216785,12.3046583 11.0180535,12.2614917 10.687109,12.6643806 L10.687109,10.0599917 C10.751859,9.74343611 11.1295674,9.65890139 11.6745465,9.65890139 L11.6745465,9.65890139 Z M9.80938681,10.923325 C9.90111597,10.8531792 9.96226875,10.7776375 9.96226875,10.6499361 C9.96226875,10.50245 9.86154653,10.4071236 9.74823403,10.4071236 C9.61873403,10.4071236 9.54678958,10.5114431 9.54678958,10.6211583 C9.54678958,10.7380681 9.62772708,10.8172069 9.80938681,10.923325 L9.80938681,10.923325 Z M9.93349097,11.40895 C9.93349097,11.2956375 9.87953264,11.2218944 9.64211597,11.0780056 C9.53779653,11.1337625 9.48383819,11.2416792 9.48383819,11.3424014 C9.48383819,11.5276583 9.61333819,11.6157903 9.71945625,11.6157903 C9.86694236,11.6157903 9.93349097,11.5078736 9.93349097,11.40895 L9.93349097,11.40895 Z M9.58815764,11.0492278 C9.45326181,10.9682903 9.35793542,10.8495819 9.35793542,10.6984986 C9.35793542,10.5689986 9.45326181,10.3369778 9.76082431,10.3369778 C10.0036368,10.3369778 10.1115535,10.4898597 10.1115535,10.6283528 C10.1115535,10.7722417 10.0593938,10.8567764 9.85435208,10.9503042 C10.0539979,11.0510264 10.1403313,11.1589431 10.1403313,11.3154222 C10.1403313,11.5294569 9.97306042,11.6877347 9.71406042,11.6877347 C9.48383819,11.6877347 9.33635208,11.5276583 9.33635208,11.3603875 C9.33635208,11.1769292 9.47844236,11.0869986 9.58815764,11.0492278 L9.58815764,11.0492278 Z M8.34351875,11.6643528 C8.46762292,11.6607556 8.59712292,11.6571583 8.70144236,11.6571583 C8.83453958,11.6571583 8.94605347,11.6607556 9.05576875,11.6643528 L9.05576875,11.6049986 L9.00001181,11.6049986 C8.82554653,11.6049986 8.80935903,11.5870125 8.80935903,11.4701028 L8.80935903,10.9682903 C8.80935903,10.8297972 8.83094236,10.8208042 8.94785208,10.8208042 L9.05576875,10.8208042 L9.05576875,10.76145 C8.94245625,10.7632486 8.82194931,10.7686444 8.70144236,10.7686444 C8.58812986,10.7686444 8.46402569,10.7632486 8.34351875,10.76145 L8.34351875,10.8208042 L8.45143542,10.8208042 C8.56834514,10.8208042 8.58992847,10.8297972 8.58992847,10.9682903 L8.58992847,11.4701028 C8.58992847,11.5870125 8.57553958,11.6049986 8.40107431,11.6049986 L8.34351875,11.6049986 L8.34351875,11.6643528 Z M10.5306299,12.8046722 L10.5306299,12.9575542 C10.2608382,12.4503458 9.03238681,12.5330819 7.98739375,12.6374014 L7.98739375,9.73983889 C8.55035903,9.73444306 9.10433125,9.65890139 9.53779653,9.65890139 C10.0881715,9.65890139 10.4658799,9.7416375 10.5306299,10.0599917 L10.5306299,12.6643806 C10.1978868,12.2668875 9.19606042,12.3046583 8.15106736,12.4053806 L8.15106736,12.4881167 C9.18706736,12.3891931 10.2788243,12.3550194 10.5306299,12.8046722 L10.5306299,12.8046722 Z M10.2950118,13.3352625 C10.2644354,13.2831028 10.1457271,13.0151097 9.48383819,13.0151097 L7.55033125,13.0151097 L7.55033125,9.88912361 L7.69422014,9.88912361 L7.69422014,12.8712208 L9.46045625,12.8712208 C9.59535208,12.8712208 9.71226181,12.8802139 9.81118542,12.8946028 C10.169109,12.9521583 10.3165951,13.0942486 10.386741,13.1949708 L10.839991,13.1949708 C10.9065396,13.0942486 11.0504285,12.9521583 11.4029563,12.8946028 C11.5018799,12.8802139 11.616991,12.8712208 11.7518868,12.8712208 L13.5253174,12.8712208 L13.5253174,9.89991528 L13.6674076,9.89991528 L13.6674076,13.0151097 L11.7285049,13.0151097 C11.0684146,13.0151097 10.9586993,13.2867 10.9335188,13.3352625 L10.2950118,13.3352625 Z M19.2466993,8.44843611 L1.98003264,8.44843611 L0.875685417,7.29013056 L3.07898403,8.02396389 C2.89912292,7.4753875 2.39551181,7.28473472 2.06996319,6.81529722 C1.87571319,6.5365125 1.81096319,6.261325 1.83254653,5.97714444 C1.89190069,6.07786667 1.99801875,6.21815833 2.16528958,6.33326944 C2.32356736,6.44298472 2.53760208,6.52931806 2.82897708,6.59047083 C3.34877569,6.70378333 3.61676875,6.86745694 3.84699097,7.07969306 L2.71926181,5.06165139 L4.66176181,6.31528333 C4.58082431,5.73792917 4.18153264,5.43756111 3.98368542,4.90337361 C3.86677569,4.58681806 3.86857431,4.30083889 3.96030347,4.02924861 C3.99267847,4.14256111 4.06102569,4.30443611 4.19232431,4.45731806 C4.32002569,4.60300556 4.50528264,4.7397 4.77327569,4.87279722 C5.26429653,5.11920694 5.48552569,5.35302639 5.65639375,5.62461667 L5.05745625,3.3637625 L6.61865069,5.04906111 C6.68160208,4.48249861 6.37403958,4.0922 6.31648403,3.52923472 C6.28051181,3.19109583 6.35245625,2.91231111 6.50893542,2.67309583 C6.51073403,2.79000556 6.53771319,2.96447083 6.62764375,3.14433194 C6.71397708,3.31699861 6.85966458,3.49506111 7.08449097,3.69110972 C7.51615764,4.06522083 7.66544236,4.35299861 7.76256736,4.67315139 L7.74637986,2.29898472 L8.83274097,4.31163056 C9.04677569,3.800825 8.82194931,3.3313875 8.90288681,2.77561667 C8.95324792,2.43927639 9.10073403,2.18567222 9.31117153,1.99142222 C9.28599097,2.10653333 9.26800486,2.28099861 9.31117153,2.47884583 C9.35074097,2.6677 9.44786597,2.87633889 9.61693542,3.12095 C9.94967847,3.60297778 10.0180257,3.91953333 10.030616,4.26126944 L10.0342132,4.26126944 L10.613366,1.93566528 L11.1691368,4.16774167 C11.5036785,3.70729722 11.4173451,3.1857 11.6385743,2.66410278 C11.7716715,2.35114444 11.9749146,2.1658875 12.2267201,2.03279028 C12.1727618,2.13531111 12.111609,2.30078333 12.102616,2.50222778 C12.0954215,2.69647778 12.1367896,2.92130417 12.241109,3.2018875 C12.435359,3.736075 12.4245674,4.05622778 12.3562201,4.38177639 L13.4821507,2.29898472 L13.4659632,4.58861667 C13.9030257,4.24508194 13.9336021,3.70010278 14.2753382,3.25404722 C14.4803799,2.98425556 14.7285882,2.85655417 15.0073729,2.78820694 C14.928234,2.87633889 14.8275118,3.02022778 14.7699563,3.21447778 C14.7141993,3.39973472 14.6980118,3.62815833 14.7285882,3.92492917 C14.7861438,4.50408194 14.692616,4.81704028 14.539734,5.12100556 L14.5415326,5.12100556 L16.1692757,3.3637625 L15.5865257,5.57065833 C16.0757479,5.33683889 16.2520118,4.8692 16.6926715,4.52206806 C16.9570674,4.31163056 17.226859,4.20910972 17.5128382,4.21450556 C17.4157132,4.27925556 17.282616,4.39436667 17.1782965,4.56703333 C17.0775743,4.73250556 17.0056299,4.95193611 16.9606646,5.24690833 C16.8743313,5.81886667 16.708859,6.09765139 16.4858313,6.35485278 L16.4948243,6.36204722 L18.5092688,5.06165139 L17.3959285,7.05091528 C17.939109,6.973575 18.2017063,6.54190833 18.7089146,6.31708194 C19.0182757,6.1803875 19.3132479,6.14441528 19.590234,6.21815833 C19.4787201,6.25772778 19.322241,6.33506806 19.1765535,6.47715833 C19.039859,6.61385278 18.9157549,6.80810278 18.7988451,7.08149167 C18.5722201,7.61208194 18.3437965,7.84050556 18.0650118,8.03295694 L18.0776021,8.04734583 L20.3510465,7.29013056 L19.2466993,8.44843611 Z M12.9245813,21.8858597 C12.8760188,21.9002486 12.8202618,21.9218319 12.7734979,21.9434153 C12.7429215,21.9578042 12.726734,21.9667972 12.7231368,21.9919778 C12.7213382,22.0099639 12.7393243,22.0333458 12.7483174,22.0441375 C12.7213382,22.1466583 12.4803243,22.1340681 12.4011854,22.1610472 C12.3346368,22.1844292 12.2554979,22.2599708 12.2105326,22.3085333 C12.1655674,22.3570958 12.1799563,22.3445056 12.1080118,22.3588944 C11.9785118,22.3858736 12.0072896,22.5045819 12.046859,22.5981097 C12.0864285,22.6934361 12.1529771,22.7689778 12.2393104,22.8247347 C12.2698868,22.8445194 12.4065813,22.8984778 12.4803243,22.8984778 C12.4101785,22.9758181 12.3094563,22.9560333 12.2195257,22.9938042 C12.1691646,23.0153875 12.1241993,23.0441653 12.0684424,23.0549569 C11.9929007,23.0711444 11.9533313,23.0675472 11.8921785,23.0567556 C11.7950535,23.0387694 11.7177132,23.0423667 11.6367757,23.0513597 C11.5774215,23.0567556 11.5252618,23.0495611 11.4713035,23.0207833 C11.4479215,23.0081931 11.4011576,22.9740194 11.3777757,22.9686236 C11.3040326,22.9578319 11.3633868,23.0675472 11.3795743,23.1053181 C11.2788521,23.2006444 11.0504285,23.0693458 10.9586993,23.0117903 C10.8777618,22.9632278 10.8363938,22.8517139 10.7446646,22.8229361 C10.7374701,22.9182625 10.742866,23.0153875 10.7464632,23.1125125 C10.7572549,23.4074847 10.7644493,23.7024569 10.7734424,23.9974292 C10.7788382,24.1700958 10.7824354,24.3445611 10.7878313,24.5154292 L10.4640813,24.5154292 L10.5036507,22.8085472 C10.3993313,22.8157417 10.3579632,22.9110681 10.2734285,22.9488389 C10.2212688,22.9722208 10.1655118,22.9614292 10.1169493,22.9920056 C10.0647896,23.0243806 10.0450049,23.0675472 9.98385208,23.096325 C9.93349097,23.1179083 9.87053958,23.1269014 9.81658125,23.1251028 C9.74643542,23.1251028 9.66909514,23.1125125 9.62952569,23.0729431 C9.66369931,23.0117903 9.62952569,22.9470403 9.58635903,22.9218597 C9.53599792,22.8966792 9.46765069,22.9362486 9.42268542,22.9470403 C9.19785903,23.0045958 8.93166458,22.8643042 8.72662292,22.7869639 C8.72662292,22.7869639 9.22303958,22.7024292 9.22303958,22.4128528 C9.22303958,22.3319153 9.18526875,22.2671653 9.12411597,22.2150056 C9.06656042,22.1682417 8.95684514,22.1106861 8.88130347,22.0998944 C8.75719931,22.0819083 8.67266458,22.1142833 8.59712292,22.0837069 C8.60791458,22.0441375 8.54136597,21.9901792 8.48920625,21.9524083 C8.43884514,21.9182347 8.37769236,21.89845 8.32373403,21.8714708 C8.22481042,21.8193111 8.07552569,21.7275819 8.11689375,21.5980819 C8.19603264,21.6376514 8.27337292,21.6466444 8.34711597,21.6088736 C8.40287292,21.5782972 8.42445625,21.5333319 8.42445625,21.4649847 C8.42265764,21.3750542 8.32193542,21.3139014 8.28596319,21.2437556 C8.25718542,21.1879986 8.23380347,21.1358389 8.18164375,21.0962694 C8.13487986,21.0602972 8.05574097,21.0477069 8.05394236,20.9775611 C8.14926875,21.0153319 8.17624792,20.9307972 8.11869236,20.8696444 C8.05574097,20.7977 7.97300486,20.765325 7.92444236,20.6771931 C7.88307431,20.5980542 7.85069931,20.506325 7.85069931,20.4163944 C7.85069931,20.3894153 7.85429653,20.3138736 7.89206736,20.3048806 C7.92803958,20.2976861 7.94062986,20.3462486 7.95501875,20.3678319 C8.01437292,20.4541653 8.10250486,20.4973319 8.19063681,20.5422972 C8.30215069,20.5962556 8.34351875,20.6268319 8.46582431,20.6484153 C8.70683819,20.6915819 8.85972014,20.6556097 8.99821319,20.5279083 C9.02339375,20.506325 9.08274792,20.4649569 9.11152569,20.4613597 C9.15828958,20.5297069 9.28599097,20.6628042 9.40829653,20.6969778 C9.50182431,20.7239569 9.60614375,20.8552556 9.65470625,20.8966236 C9.82017847,21.0423111 9.92269931,20.959575 9.92269931,20.8210819 C9.92090069,20.7041722 9.87773403,20.5530889 9.85435208,20.4433736 C9.81298403,20.2635125 9.77701181,20.1735819 9.75362986,19.9865264 C9.73924097,19.8732139 9.67449097,19.7760889 9.63132431,19.69695 C9.58995625,19.6178111 9.53060208,19.4109708 9.67988681,19.4829153 C9.74283819,19.5134917 9.83636597,19.5692486 9.91010903,19.5584569 C10.0881715,19.535075 10.1097549,19.3426236 10.1439285,19.1987347 C10.160116,19.1231931 10.1619146,19.0620403 10.1888938,18.9882972 C10.2032826,18.9451306 10.224866,18.91995 10.2464493,18.91995 C10.2536438,18.9415333 10.2788243,18.9811028 10.3165951,18.9811028 C10.3849424,18.9811028 10.4442965,18.8659917 10.460484,18.7958458 C10.4730743,18.7364917 10.4874632,18.6681444 10.5036507,18.6159847 C10.5342271,18.5260542 10.5414215,18.4199361 10.589984,18.3192139 C10.6079701,18.3857625 10.6367479,18.5044708 10.654734,18.5458389 C10.6943035,18.6519569 10.7302757,18.758075 10.7932271,18.8462069 C10.8453868,18.9217486 10.913734,18.9451306 10.9982688,18.9001653 C11.0414354,19.0008875 11.0414354,19.3282347 11.1259701,19.4811167 C11.1763313,19.5728458 11.2392826,19.6052208 11.3166229,19.6052208 C11.3849701,19.6052208 11.4335326,19.5836375 11.4838938,19.5530611 C11.5450465,19.5188875 11.6115951,19.4721236 11.6565604,19.4721236 C11.6781438,19.4721236 11.6889354,19.4829153 11.6889354,19.5009014 C11.6889354,19.5710472 11.5828174,19.7563042 11.5684285,19.7958736 C11.5360535,19.8858042 11.4838938,19.9847278 11.4587132,20.0764569 C11.4353313,20.1502 11.4119493,20.2455264 11.3957618,20.3246653 C11.3795743,20.4127972 11.3633868,20.5153181 11.357991,20.6556097 C11.3525951,20.7383458 11.3597896,20.8858319 11.422741,20.9307972 C11.5126715,20.99195 11.6277826,20.8696444 11.6997271,20.8120889 C11.7896576,20.7437417 11.8651993,20.6771931 11.9317479,20.5872625 C11.9803104,20.5189153 12.079234,20.34445 12.1727618,20.3516444 C12.1709632,20.4235889 12.2698868,20.5225125 12.4191715,20.5458944 C12.5126993,20.5584847 12.5864424,20.5404986 12.6404007,20.5009292 C12.7105465,20.4505681 12.7141438,20.4523667 12.7932826,20.4829431 C12.9641507,20.5476931 13.244734,20.3246653 13.3454563,20.2455264 C13.3796299,20.2814986 13.3472549,20.3480472 13.3040882,20.4145958 C13.2231507,20.5351028 13.1314215,20.5746722 13.1296229,20.6646028 C13.1278243,20.7437417 13.0306993,20.8930264 13.0378938,20.9829569 C13.009116,21.0333181 12.9155882,21.0908736 12.8724215,21.1250472 C12.7483174,21.2311653 12.6727757,21.3516722 12.717741,21.5171444 C12.7555118,21.6610333 12.8760188,21.7293806 12.985734,21.7293806 C13.0972479,21.7293806 13.1691924,21.6556375 13.2069632,21.6736236 C13.2285465,21.6880125 13.1727896,21.7563597 13.1512063,21.7743458 C13.0918521,21.8265056 12.9929285,21.866075 12.9245813,21.8858597 L12.9245813,21.8858597 Z M21.199991,11.4988806 L21.1981924,2.00581111 C18.7412896,1.13888056 14.8850674,0.575915278 10.5360257,0.575915278 C6.27151875,0.575915278 2.47465069,1.13528333 0.0195465278,2.00581111 L0.0177479167,11.6373736 C0.0177479167,13.0582764 -0.0470020833,15.5709361 1.24440069,18.5782139 C2.84696319,22.3157278 5.94956736,25.1251583 10.3777479,26.8859986 L10.6079701,26.9795264 L10.8363938,26.8859986 C15.2681715,25.1251583 18.3689771,22.3157278 19.9733382,18.5782139 C21.264741,15.5709361 21.199991,12.8604292 21.199991,11.4988806 L21.199991,11.4988806 Z" id="Fill-6" fill="#4F2683" mask="url(#mask-4)"></path>
                        </g>
                        <path d="M45.437175,25.3266028 C45.437175,25.3266028 44.7105361,24.9309083 43.6871264,24.9309083 L26.8773069,24.9309083 L26.8773069,24.1377208 L29.9493347,24.1377208 L29.9817097,21.3642625 L29.9817097,5.18215833 L29.9493347,2.4087 L26.8773069,2.4087 L26.8773069,1.6155125 L42.9281125,1.6155125 C43.9173486,1.6155125 44.6781611,1.21981806 44.6781611,1.21981806 L46.2627375,8.88010278 L45.4048,8.88010278 C43.9515222,4.42314444 42.4658694,2.53999861 37.6096194,2.53999861 L33.6149042,2.53999861 L33.5825292,5.18215833 L33.5825292,12.5132972 L35.6617236,12.5132972 C38.1060361,12.5132972 39.3938417,11.8190333 39.3938417,8.58333194 L39.3938417,7.59229722 L40.2859528,7.59229722 L40.2859528,18.6879292 L39.3938417,18.6879292 L39.3938417,17.4001236 C39.3938417,14.4953667 38.7985014,13.4377833 35.595175,13.4377833 L33.5825292,13.4377833 L33.5825292,21.3966375 L33.6149042,24.0711722 L38.1384111,24.0711722 C42.8615639,24.0711722 45.1404042,21.2977139 46.2627375,16.9378806 L47.2213972,16.9378806 L45.437175,25.3266028 Z" id="Fill-9" fill="#807E82"></path>
                        <path d="M53.3605965,16.4099882 C53.3605965,19.4478424 53.3605965,24.0055229 56.993791,24.0055229 C60.5928118,24.0055229 60.5928118,19.0845229 60.5928118,17.1366271 C60.5928118,15.8164465 60.5928118,13.2390368 59.8661729,11.721009 C59.3050063,10.4979535 58.2150479,9.73893958 56.8606938,9.73893958 C53.3605965,9.77131458 53.3605965,14.4944674 53.3605965,16.4099882 L53.3605965,16.4099882 Z M57.7851799,1.61461319 L61.4507493,1.61461319 C62.8392771,1.61461319 63.3662701,1.18654375 63.8950618,0.724300694 L63.8626868,4.98341181 L63.8626868,21.2644396 L63.8950618,24.1368215 L66.5372215,24.1368215 L66.5372215,24.930009 L60.5928118,24.930009 L60.5928118,22.3867729 C60.1647424,23.2123354 59.107159,25.1944049 56.0351313,25.1944049 C52.5692076,25.1944049 49.7292007,22.2554743 49.7292007,16.9711549 C49.7292007,12.4476479 51.9738674,8.64898125 56.2347771,8.64898125 C59.1737076,8.64898125 59.9650965,10.2353562 60.5928118,11.4566132 L60.5928118,4.98341181 L60.5604368,2.40780069 L57.3229368,2.40780069 L57.3229368,1.61461319 L57.7851799,1.61461319 Z" id="Fill-11" fill="#807E82"></path>
                        <path d="M80.4960625,9.27705625 C82.0482639,9.27705625 82.4439583,8.98028542 83.2047708,8.41911875 L83.1705972,12.2825354 L83.1705972,21.4302715 L83.2047708,24.1371813 L85.9440556,24.1371813 L85.9440556,24.9303688 L83.1705972,24.9303688 C81.7514931,24.9303688 81.1885278,24.9969174 79.9996458,25.063466 L79.8359722,22.1227368 C79.2406319,23.0148479 77.7549792,25.2613132 74.1883333,25.2613132 C72.6037569,25.2613132 71.2494028,24.7325215 70.4903889,23.9735076 C69.4651806,22.8835493 69.4328056,21.2971743 69.4328056,20.5381604 L69.4651806,16.5416465 L69.3662569,10.1026187 L66.8895694,10.1026187 L66.8895694,9.27705625 L70.0281458,9.27705625 C71.5461736,9.27705625 72.0084167,8.98028542 72.7026806,8.41911875 L72.6685069,12.2825354 L72.6685069,17.8636257 C72.6685069,21.0327785 72.7350556,22.6191535 73.6271667,23.5112646 C73.9904861,23.874584 74.6505764,24.1713549 75.4761389,24.1713549 C76.400625,24.1713549 77.4582083,23.7738618 78.2837708,22.9482993 C79.8359722,21.4302715 79.9025208,19.6136743 79.9025208,18.0614729 L79.9025208,12.2825354 L79.8683472,10.1026187 L76.8970417,10.1026187 L76.8970417,9.27705625 L80.4960625,9.27705625 Z" id="Fill-13" fill="#807E82"></path>
                        <path d="M101.597188,19.8771708 C100.50723,23.2459694 98.559334,25.2927889 94.5951951,25.2927889 C89.841466,25.2927889 86.9672854,21.7603167 86.9672854,17.0695389 C86.9672854,12.4147333 90.1706118,8.68261528 95.0592368,8.68261528 C98.559334,8.68261528 101.003647,10.4326639 101.003647,12.7762542 C101.003647,13.8338375 100.242834,14.7259486 99.1870493,14.7259486 C98.1636396,14.7259486 97.3380771,13.9003861 97.3380771,12.8769764 C97.3380771,12.0514139 97.9316187,11.35715 98.6924312,11.1251292 C97.9316187,9.90387222 96.3470424,9.54055278 95.257084,9.54055278 C91.2929451,9.54055278 90.6328549,14.4939278 90.6328549,16.9058653 C90.6328549,20.3070389 91.492591,24.2693792 95.3560076,24.2693792 C98.3614868,24.2693792 99.9784382,22.3538583 100.805799,19.612775 L101.597188,19.8771708 Z" id="Fill-15" fill="#807E82"></path>
                        <path d="M113.032758,15.683709 L110.654994,16.3437993 C108.705299,16.872591 107.120723,17.7305285 107.120723,20.7036326 C107.120723,22.7846257 107.550591,24.1713549 109.30064,24.1713549 C111.744952,24.1713549 113.032758,22.1227368 113.032758,19.9104451 L113.032758,15.683709 Z M119.968202,22.5202299 C119.570709,23.5760146 118.745147,25.1623896 116.300834,25.1623896 C114.419487,25.1623896 113.428452,24.6335979 112.998584,22.9824729 C111.809702,24.6335979 110.093827,25.2613132 107.946285,25.2613132 C104.777133,25.2613132 103.521702,23.5436396 103.521702,20.9680285 C103.521702,17.2682854 107.716063,16.2448757 109.466112,15.716084 C110.753917,15.3527646 111.777327,15.189091 113.032758,14.7915979 L113.032758,13.0739243 C113.032758,10.8292576 112.372667,9.44252847 109.994903,9.44252847 C109.036244,9.44252847 107.582966,9.73929931 106.757403,10.6637854 C107.518216,10.8616326 108.079383,11.5558965 108.079383,12.381459 C108.079383,13.3383201 107.286195,14.1315076 106.29516,14.1315076 C105.271751,14.1315076 104.545112,13.2393965 104.545112,12.2483618 C104.545112,10.0360701 107.352744,8.64934097 110.291674,8.64934097 C115.245049,8.64934097 116.300834,10.6637854 116.300834,13.3724938 L116.300834,21.6604938 C116.300834,23.477091 116.730702,23.939334 117.556265,23.939334 C118.448376,23.939334 119.043716,22.9824729 119.273938,22.1892854 L119.968202,22.5202299 Z" id="Fill-17" fill="#807E82"></path>
                        <path d="M130.527848,22.4205868 L130.295827,22.9152049 C129.504438,24.5015799 128.05116,25.1616701 126.333487,25.1616701 C123.527653,25.1616701 122.635542,23.807316 122.635542,21.1327813 L122.635542,10.1018993 L120.092306,10.1018993 L120.092306,9.34288542 C123.362181,9.01194097 124.74891,7.19714236 125.243528,3.99381597 L125.903619,3.99381597 L125.903619,9.27633681 L129.801209,9.27633681 L129.801209,10.1018993 L125.903619,10.1018993 L125.903619,21.2640799 C125.903619,22.5518854 126.069091,23.9404132 127.655466,23.9404132 C128.810174,23.9404132 129.43789,23.0483021 129.867758,22.0896424 L130.527848,22.4205868 Z" id="Fill-19" fill="#807E82"></path>
                        <path d="M136.133579,5.67713611 C137.156989,5.67713611 138.0491,4.81919861 138.0491,3.76161528 C138.0491,2.70403194 137.156989,1.81371944 136.133579,1.81371944 C135.043621,1.81371944 134.185683,2.70403194 134.185683,3.76161528 C134.185683,4.85157361 135.077794,5.67713611 136.133579,5.67713611 L136.133579,5.67713611 Z M137.851253,12.5136569 L137.851253,21.3304486 L137.883628,24.1380806 L140.525787,24.1380806 L140.525787,24.9294694 L131.741371,24.9294694 L131.741371,24.1380806 L134.581378,24.1380806 L134.613753,21.3304486 L134.613753,12.5136569 L134.581378,10.1017194 L131.708996,10.1017194 L131.708996,9.27615694 L135.441114,9.27615694 C136.892593,9.27615694 137.487933,8.8480875 137.917801,8.51714306 L137.851253,12.5136569 Z" id="Fill-21" fill="#807E82"></path>
                        <path d="M145.432219,17.1037125 C145.432219,21.6613931 146.02576,24.3683028 149.26326,24.3683028 C153.027753,24.3683028 153.159052,21.1326014 153.159052,16.9382403 C153.159052,14.9579694 153.060128,13.7025389 152.995378,13.2726708 C152.862281,12.0514139 152.533135,9.31033056 149.295635,9.37687917 C145.862087,9.44162917 145.432219,12.6449556 145.432219,17.1037125 M156.858795,16.9058653 C156.858795,21.8592403 153.58892,25.2280389 149.26326,25.2280389 C145.068899,25.2280389 141.700101,21.9581639 141.700101,17.0047889 C141.700101,11.35715 145.464594,8.55131667 149.394559,8.51714306 C153.687844,8.48476806 156.858795,11.9183167 156.858795,16.9058653" id="Fill-23" fill="#807E82"></path>
                        <g id="Group-27" transform="translate(157.500000, 7.972222)">
                            <mask id="mask-6" fill="white">
                                <use xlink:href="#path-5"></use>
                            </mask>
                            <g id="Clip-26"></g>
                            <path d="M3.36717986,16.1653187 L3.39955486,13.3253118 L3.43372847,4.27649931 L3.39955486,2.13075625 L0.79156875,2.13075625 L0.79156875,1.30519375 L4.22511736,1.30519375 C5.67839514,1.30519375 6.27373542,0.875325694 6.70180486,0.54438125 L6.70180486,4.17757569 L6.76835347,4.17757569 C7.75938819,1.99765903 9.70728403,0.709853472 12.3494437,0.709853472 C15.5203951,0.709853472 17.1049715,2.09658264 17.1049715,5.33408264 L17.1049715,13.3253118 L17.1373465,16.1653187 L19.6805826,16.1653187 L19.6805826,16.9243326 L11.2594854,16.9243326 L11.2594854,16.1653187 L13.7361729,16.1653187 L13.8027215,13.3253118 L13.8027215,5.49775625 C13.8027215,3.71533264 13.4735757,1.86636042 11.2271104,1.86636042 C8.22163125,1.86636042 6.70180486,4.77291597 6.70180486,7.77659653 L6.70180486,13.3253118 L6.73597847,16.1653187 L9.24504097,16.1653187 L9.24504097,16.9243326 L0.626096528,16.9243326 L0.626096528,16.1653187 L3.36717986,16.1653187 Z" id="Fill-25" fill="#807E82" mask="url(#mask-6)"></path>
                        </g>
                    </g>
                </g>
            </g>
        </g>
    </g>
</svg>