<?xml version="1.0" standalone="no"?>
<!DOCTYPE svg PUBLIC "-//W3C//DTD SVG 20010904//EN"
 "http://www.w3.org/TR/2001/REC-SVG-20010904/DTD/svg10.dtd">
<svg version="1.0" xmlns="http://www.w3.org/2000/svg"
 width="255.000000pt" height="255.000000pt" viewBox="0 0 255.000000 255.000000"
 preserveAspectRatio="xMidYMid meet">
<metadata>
Created by potrace 1.11, written by Peter Selinger 2001-2013
</metadata>
<g transform="translate(0.000000,255.000000) scale(0.100000,-0.100000)"
fill="#000000" stroke="none">
<path d="M1068 2465 c-2 -2 -46 -6 -98 -9 -52 -3 -106 -8 -120 -10 -14 -3 -47
-7 -75 -10 -27 -3 -61 -8 -75 -10 -14 -3 -54 -10 -90 -16 -89 -16 -252 -60
-267 -72 -10 -8 -12 -135 -9 -562 2 -303 7 -569 10 -591 63 -384 234 -672 533
-896 41 -31 91 -66 111 -77 77 -44 215 -113 262 -132 l49 -19 68 28 c282 116
521 306 673 533 71 106 111 189 155 324 62 186 67 256 69 855 l2 537 -31 10
c-30 11 -143 41 -180 48 -11 2 -31 6 -45 9 -35 7 -58 11 -113 19 -27 4 -57 9
-67 11 -10 2 -51 7 -92 10 -40 4 -86 9 -103 11 -34 5 -563 13 -567 9z"/>
</g>
</svg>
