<?xml version="1.0" encoding="utf-8"?>
<!-- Generator: Adobe Illustrator 23.1.1, SVG Export Plug-In . SVG Version: 6.00 Build 0)  -->
<svg version="1.1" id="Layer_1" xmlns="http://www.w3.org/2000/svg" xmlns:xlink="http://www.w3.org/1999/xlink" x="0px" y="0px"
	 viewBox="0 0 110 110" style="enable-background:new 0 0 110 110;" xml:space="preserve">
<style type="text/css">
	.st0{fill:#4F2683;}
	.st1{fill:#0C7D7C;}
	.st2{opacity:0.46;}
	.st3{fill:#F9A557;}
</style>
<g>
	<g>
		<path class="st0" d="M55,108.7C25.4,108.7,1.4,84.6,1.4,55c0-9.4,2.5-18.7,7.1-26.8c0.4-0.7,1.3-1,2.1-0.6c0.7,0.4,1,1.3,0.6,2.1
			C6.8,37.4,4.5,46.2,4.5,55c0,27.9,22.7,50.6,50.6,50.6s50.6-22.7,50.6-50.6S82.9,4.4,55,4.4c-14.7,0-28.6,6.4-38.2,17.4
			c-0.5,0.6-1.5,0.7-2.1,0.1c-0.6-0.5-0.7-1.5-0.1-2.1C24.7,8.2,39.4,1.4,55,1.4c29.6,0,53.6,24.1,53.6,53.6
			C108.6,84.6,84.5,108.7,55,108.7z"/>
	</g>
	<g>
		<path class="st0" d="M55,101.9c-12.7,0-25.4-5.1-34.6-15.2C11.9,77.4,7.5,65.4,8.1,52.9C8.6,40.4,14,28.8,23.3,20.3
			c19-17.4,48.8-16.1,66.3,2.9c5.6,6.1,9.4,13.5,11.2,21.5c0.2,0.8-0.3,1.6-1.1,1.8c-0.8,0.2-1.6-0.3-1.8-1.1
			c-1.7-7.5-5.3-14.4-10.5-20.1C71,7.4,43.2,6.2,25.3,22.6c-8.7,7.9-13.7,18.8-14.2,30.5S14.7,76,22.6,84.7
			c16.4,17.9,44.2,19.1,62.1,2.7c9.4-8.6,14.6-20.8,14.2-33.6c0-0.8,0.6-1.5,1.5-1.5l0,0c0.8,0,1.5,0.6,1.5,1.5
			c0.4,13.6-5.2,26.7-15.2,35.9C77.7,97.8,66.3,101.9,55,101.9z"/>
	</g>
</g>
<g>
	<g>
		<circle cx="35.7" cy="77.4" r="1.1"/>
	</g>
	<g>
		<path class="st1" d="M80.4,45.4c-9.3,1-17.2,5.6-24.9,10c-6.8,3.9-13.8,7.9-21.7,9.6c4,6.9,8,13.9,12,20.8
			c6.6-1.8,12.5-5.8,18.3-9.6c6.7-4.5,13.7-9.1,21.9-10.6L80.4,45.4z M60.5,72.6c-3.8,0-7-3.1-7-7c0-3.8,3.1-7,7-7s7,3.1,7,7
			C67.4,69.4,64.3,72.6,60.5,72.6z"/>
	</g>
	<g>
		<path d="M42.4,89c-0.7,0-1.5-0.4-1.9-1.1L37.1,82c-0.3-0.6-0.1-1.4,0.5-1.7c0.6-0.3,1.4-0.1,1.7,0.5l3.3,5.7
			c7.9-1.3,14.5-5.7,21.4-10.3c6.7-4.5,13.6-9.1,21.8-10.6l-5.5-20.1c-9.2,1-16.8,5.3-24.8,10c-7.7,4.4-15.6,9-24.9,10.2l4.1,7.1
			c0.3,0.6,0.1,1.4-0.5,1.7c-0.6,0.3-1.4,0.1-1.7-0.5l-4.7-8.2c-0.3-0.5-0.3-1.1-0.1-1.6c0.3-0.5,0.8-0.8,1.4-0.9
			c9.3-0.9,17-5.3,25.2-10c8-4.6,16.3-9.4,26.2-10.3c1-0.1,1.9,0.5,2.1,1.4l5.8,21.4c0.1,0.5,0.1,1-0.2,1.4
			c-0.3,0.4-0.7,0.7-1.2,0.8c-8,1.3-14.7,5.6-21.6,10.3c-6.9,4.6-14,9.3-22.6,10.7C42.6,88.9,42.5,89,42.4,89z M80.2,45L80.2,45
			L80.2,45z"/>
	</g>
	<g class="st2">
		<circle class="st1" cx="60.5" cy="65.6" r="7"/>
	</g>
	<g>
		<path d="M60.5,73.8c-4.5,0-8.2-3.7-8.2-8.2s3.7-8.2,8.2-8.2s8.2,3.7,8.2,8.2S65,73.8,60.5,73.8z M60.5,59.9
			c-3.1,0-5.7,2.6-5.7,5.7s2.6,5.7,5.7,5.7s5.7-2.6,5.7-5.7S63.6,59.9,60.5,59.9z"/>
	</g>
	<g>
		<path class="st3" d="M48.2,32.7c0-3.2-2.6-5.8-5.8-5.8c-0.3,0-0.7,0-1,0.1c-1.1,1.2-1.7,2.8-1.7,4.6c0,3.1,2,5.7,4.8,6.6
			C46.6,37.3,48.2,35.1,48.2,32.7z"/>
	</g>
	<g>
		<path d="M42.3,40.9c-4.5,0-8.2-3.7-8.2-8.2s3.7-8.2,8.2-8.2s8.2,3.7,8.2,8.2S46.8,40.9,42.3,40.9z M42.3,27
			c-3.1,0-5.7,2.6-5.7,5.7s2.6,5.7,5.7,5.7s5.7-2.6,5.7-5.7S45.5,27,42.3,27z"/>
	</g>
	<g>
		<path class="st3" d="M60.9,40.9c0-2.4-2-4.4-4.4-4.4c-0.1,0-0.2,0-0.3,0c-0.6,0.9-1,2-1,3.2c0,2.3,1.4,4.2,3.3,5.1
			C60,44,60.9,42.6,60.9,40.9z"/>
	</g>
	<g>
		<path d="M56.5,47.7c-3.8,0-6.8-3.1-6.8-6.8s3.1-6.8,6.8-6.8c3.8,0,6.8,3.1,6.8,6.8S60.3,47.7,56.5,47.7z M56.5,36.6
			c-2.4,0-4.3,1.9-4.3,4.3s1.9,4.3,4.3,4.3s4.3-1.9,4.3-4.3S58.9,36.6,56.5,36.6z"/>
	</g>
	<g>
		<path class="st3" d="M45.7,54.2c0.9-0.7,1.6-1.7,1.6-3c0-1.9-1.5-3.5-3.4-3.6c-0.4,0.7-0.7,1.5-0.7,2.4
			C43.2,51.8,44.2,53.4,45.7,54.2z"/>
	</g>
	<g>
		<path d="M43.7,57.2c-3.3,0-6-2.7-6-6s2.7-6,6-6s6,2.7,6,6S47,57.2,43.7,57.2z M43.7,47.7c-1.9,0-3.5,1.6-3.5,3.5s1.6,3.5,3.5,3.5
			s3.5-1.6,3.5-3.5S45.6,47.7,43.7,47.7z"/>
	</g>
	<g>
		<path d="M62.19986,69.12202c-0.05534-0.00975-0.10052-0.04224-0.13544-0.09668l-0.33368-0.52021
			c-0.37909,0.19364-0.73988,0.30468-1.08244,0.33232c-0.34256,0.02763-0.64408-0.01717-0.90416-0.1338
			c-0.26008-0.11662-0.4682-0.28536-0.62416-0.50719c-0.02832-0.04416-0.03635-0.09195-0.0233-0.14215
			c0.01335-0.0504,0.04206-0.09016,0.08652-0.11868l0.66175-0.42448c0.05444-0.03492,0.10506-0.05117,0.15178-0.04955
			c0.04602,0.00121,0.10046,0.01752,0.16191,0.04811c0.1623,0.13324,0.36833,0.20087,0.6173,0.20168
			c0.24906,0.00161,0.5296-0.09809,0.84173-0.2983c0.34691-0.22252,0.57249-0.44918,0.67604-0.68038
			c0.10365-0.23041,0.08849-0.45036-0.04498-0.65844c-0.08885-0.13852-0.20665-0.22433-0.35291-0.25602
			c-0.14664-0.03229-0.3331-0.02283-0.55906,0.0282c-0.22635,0.05042-0.54649,0.14564-0.96041,0.28564
			c-0.67387,0.23588-1.21957,0.32552-1.63749,0.2683c-0.41792-0.05723-0.76311-0.29855-1.03665-0.72501
			c-0.24794-0.38653-0.31715-0.80189-0.20722-1.24678c0.11012-0.44459,0.38854-0.85242,0.83624-1.22326l-0.32903-0.51295
			c-0.03492-0.05444-0.04543-0.10875-0.0314-0.16342c0.01422-0.05437,0.04578-0.09767,0.09538-0.12949l0.45337-0.29081
			c0.0496-0.03181,0.10289-0.04124,0.15979-0.02907c0.05679,0.01267,0.1013,0.04345,0.13311,0.09306l0.33854,0.52777
			c0.35062-0.16215,0.68806-0.2437,1.01223-0.24545c0.32436-0.00145,0.60892,0.05551,0.85447,0.17079
			c0.24544,0.11577,0.43135,0.26119,0.55929,0.43867c0.02871,0.04476,0.03756,0.09117,0.02693,0.13982
			s-0.03813,0.08764-0.08289,0.11635l-0.69109,0.44329c-0.10918,0.07003-0.21385,0.07058-0.314,0.00163
			c-0.12646-0.14257-0.30791-0.21316-0.54466-0.21156s-0.48159,0.08309-0.73444,0.24528
			c-0.2725,0.17479-0.45478,0.36514-0.54653,0.57084c-0.09224,0.20559-0.07448,0.40764,0.05278,0.60605
			c0.08924,0.13912,0.20181,0.22743,0.33878,0.26593c0.13628,0.03809,0.31232,0.03702,0.52782-0.00303
			c0.2155-0.04005,0.51089-0.12195,0.88731-0.24387c0.49976-0.18055,0.91927-0.29254,1.25892-0.33538
			c0.33926-0.04344,0.6318-0.00996,0.87648,0.09862c0.24437,0.10877,0.46041,0.30914,0.6482,0.60191
			c0.27316,0.42585,0.343,0.87282,0.20877,1.33971c-0.13385,0.4675-0.44845,0.89811-0.94372,1.29263l0.32903,0.51295
			c0.03181,0.04961,0.04105,0.10259,0.02907,0.1598c-0.01266,0.05679-0.04345,0.1013-0.09306,0.13311l-0.45337,0.29081
			C62.30772,69.12114,62.2552,69.13177,62.19986,69.12202z"/>
	</g>
	<g>
		<path d="M43.92341,53.64497c-0.03035-0.01765-0.04982-0.04644-0.05856-0.08588l-0.08347-0.37691
			c-0.26398,0.0318-0.49943,0.01912-0.70622-0.03854c-0.20678-0.05765-0.37389-0.14892-0.50122-0.27336
			c-0.12733-0.12444-0.21296-0.26823-0.25657-0.4319c-0.00708-0.03199-0.00149-0.06174,0.01698-0.08836
			c0.01869-0.02666,0.04409-0.04379,0.07631-0.05092l0.47946-0.10618c0.03944-0.00874,0.07262-0.00735,0.09966,0.00367
			c0.02672,0.01064,0.05512,0.03193,0.08455,0.06311c0.06643,0.1131,0.17263,0.19717,0.31841,0.25132
			c0.14566,0.05463,0.33162,0.05667,0.55777,0.00659c0.25135-0.05566,0.43245-0.13991,0.54301-0.25312
			c0.11043-0.11273,0.14897-0.24494,0.11558-0.3957c-0.02222-0.10036-0.07278-0.17606-0.15169-0.22617
			c-0.07901-0.05055-0.19036-0.0852-0.33383-0.104c-0.14357-0.01924-0.35177-0.03244-0.62461-0.0396
			c-0.44591-0.00699-0.78514-0.07209-1.01781-0.19573c-0.23266-0.12365-0.383-0.33954-0.45143-0.64851
			c-0.06202-0.28005-0.01305-0.53848,0.14731-0.77559c0.1604-0.2369,0.41155-0.41596,0.75396-0.53685l-0.08231-0.37165
			c-0.00873-0.03944-0.00318-0.07354,0.01683-0.10257c0.02005-0.02881,0.04789-0.04739,0.08383-0.05535l0.32848-0.07274
			c0.03594-0.00796,0.06921-0.002,0.09995,0.0174c0.03056,0.01967,0.05002,0.04731,0.05798,0.08325l0.08468,0.38239
			c0.24051-0.01947,0.45591,0.00547,0.64633,0.07433c0.19047,0.06908,0.34501,0.16382,0.46411,0.28434
			c0.11893,0.12078,0.19657,0.24611,0.23331,0.37774c0.00718,0.03243,0.00237,0.06155-0.01435,0.08778
			c-0.01672,0.02623-0.04124,0.04316-0.07368,0.05034l-0.50072,0.11089c-0.07911,0.01752-0.14058-0.00473-0.18443-0.06674
			c-0.0434-0.11084-0.13456-0.19134-0.2737-0.24145c-0.13914-0.0501-0.30024-0.05511-0.48344-0.01454
			c-0.19744,0.04372-0.34533,0.11602-0.44346,0.21683c-0.0984,0.10064-0.13155,0.22292-0.09971,0.36667
			c0.02232,0.1008,0.06927,0.17684,0.14127,0.22894c0.07168,0.05171,0.17511,0.08903,0.31009,0.11201
			c0.13497,0.02298,0.32579,0.03865,0.57276,0.04832c0.33191,0.0019,0.60199,0.02668,0.81033,0.07479
			c0.20826,0.04767,0.37254,0.13036,0.49257,0.24677c0.11981,0.11645,0.20327,0.28049,0.25024,0.49261
			c0.06833,0.30854,0.01292,0.58563-0.16643,0.8304c-0.17926,0.24521-0.45652,0.42983-0.83192,0.55434l0.08231,0.37165
			c0.00796,0.03594,0.00195,0.06899-0.01741,0.09995c-0.01967,0.03056-0.04731,0.05002-0.08325,0.05798l-0.32848,0.07275
			C43.98683,53.66771,43.95375,53.66262,43.92341,53.64497z"/>
	</g>
	<g>
		<path d="M56.15821,43.99846c-0.03261-0.03025-0.04869-0.07125-0.04853-0.12243l0.00153-0.48912
			c-0.33517-0.03403-0.6227-0.11513-0.86231-0.24385s-0.42082-0.28797-0.54365-0.47718
			c-0.12283-0.18921-0.18874-0.39075-0.19717-0.60519c0.00013-0.04152,0.01531-0.07673,0.04554-0.10451
			c0.03051-0.02777,0.06667-0.04188,0.10847-0.04174l0.6222,0.00195c0.05119,0.00016,0.09182,0.0111,0.12218,0.03223
			c0.03008,0.02057,0.05927,0.05479,0.08699,0.10151c0.05069,0.15827,0.15862,0.29169,0.32379,0.39914
			c0.16488,0.10801,0.3942,0.16219,0.68767,0.16311c0.32618,0.00102,0.57346-0.0528,0.74158-0.16204
			c0.16784-0.10867,0.2522-0.2614,0.25282-0.45705c0.00041-0.13024-0.04106-0.23786-0.12469-0.32173
			c-0.08363-0.08443-0.21165-0.1582-0.38378-0.22131c-0.17213-0.06367-0.42585-0.13783-0.76114-0.22249
			c-0.54928-0.13253-0.95055-0.30725-1.20382-0.52474s-0.37913-0.52614-0.37787-0.9271
			c0.00114-0.36343,0.13348-0.66928,0.39758-0.91785c0.26411-0.24828,0.62432-0.39986,1.08119-0.45417l0.00151-0.48229
			c0.00016-0.05119,0.0165-0.0918,0.04929-0.12213c0.0328-0.03004,0.07237-0.04527,0.11901-0.04512l0.42627,0.00134
			c0.04664,0.00014,0.08611,0.01676,0.11872,0.04928c0.03231,0.0328,0.04868,0.07238,0.04854,0.11902L56.8886,38.4202
			c0.30273,0.04275,0.56207,0.13343,0.77834,0.27145c0.21626,0.13832,0.38098,0.29837,0.49472,0.48043
			c0.11346,0.18235,0.17462,0.35886,0.18346,0.53178c-0.00013,0.04209-0.01418,0.07674-0.04213,0.10452
			c-0.02795,0.02778-0.06298,0.04189-0.10506,0.04176l-0.64978-0.00203c-0.10266-0.00032-0.17247-0.0449-0.20945-0.13374
			c-0.02285-0.14908-0.11317-0.27392-0.27126-0.37452s-0.35585-0.15155-0.59358-0.15229
			c-0.25622-0.0008-0.45913,0.04748-0.60844,0.14483c-0.1496,0.09707-0.22455,0.23903-0.22514,0.42557
			c-0.00041,0.13081,0.03651,0.23785,0.11103,0.32226c0.07424,0.08384,0.19174,0.15871,0.3522,0.22462
			c0.16047,0.06591,0.392,0.13829,0.69461,0.21887c0.40977,0.09455,0.73675,0.20023,0.98095,0.31759
			c0.2442,0.11679,0.42431,0.26466,0.54035,0.4419c0.11575,0.17724,0.17334,0.40321,0.17248,0.67849
			c-0.00126,0.40039-0.14674,0.72754-0.43645,0.98029c-0.28972,0.25332-0.68377,0.40451-1.18243,0.45414l-0.00151,0.48229
			c-0.00014,0.04664-0.01676,0.08583-0.04928,0.11871c-0.03281,0.03232-0.07238,0.04869-0.11902,0.04854l-0.42627-0.00134
			C56.2303,44.04418,56.19082,44.0287,56.15821,43.99846z"/>
	</g>
	<g>
		<path d="M40.6541,36.36685c-0.02726-0.05107-0.02962-0.10834-0.00766-0.17124l0.20977-0.60105
			c-0.39785-0.18433-0.7171-0.40629-0.95716-0.66648c-0.24005-0.26019-0.3953-0.53311-0.46598-0.81807
			c-0.07068-0.28497-0.0661-0.56091,0.01467-0.8283c0.0178-0.05102,0.05145-0.08789,0.10044-0.10921
			c0.04934-0.02119,0.09982-0.02318,0.15119-0.00525l0.76459,0.26685c0.0629,0.02195,0.10824,0.05267,0.1366,0.09158
			c0.02826,0.03809,0.04962,0.09258,0.06387,0.16185c-0.00491,0.21624,0.07115,0.42625,0.22868,0.62863
			c0.15693,0.20295,0.416,0.36707,0.77664,0.49293c0.40082,0.13989,0.72791,0.17878,0.98116,0.11584
			c0.25266-0.06236,0.42136-0.21438,0.50526-0.4548c0.05586-0.16005,0.05059-0.31007-0.01664-0.44878
			c-0.06699-0.13942-0.19312-0.28458-0.37806-0.43536c-0.18469-0.15149-0.46528-0.35055-0.84178-0.5972
			c-0.61938-0.3965-1.03876-0.78199-1.25788-1.15718c-0.21912-0.37519-0.24277-0.80839-0.07081-1.30111
			c0.15586-0.44659,0.44866-0.76661,0.87921-0.96014c0.43042-0.19318,0.93797-0.22656,1.52309-0.09919l0.20684-0.59266
			c0.02195-0.0629,0.05931-0.10592,0.11255-0.12929c0.05311-0.02302,0.10827-0.02493,0.16558-0.00493l0.52382,0.18282
			c0.05731,0.02,0.09881,0.05722,0.1251,0.11108c0.02581,0.05409,0.02913,0.10974,0.00912,0.16705l-0.21282,0.60979
			c0.35423,0.18126,0.63474,0.40303,0.84212,0.66475c0.20725,0.26207,0.34186,0.52896,0.40441,0.80129
			c0.06208,0.27255,0.06229,0.51567-0.00033,0.73216c-0.01805,0.05172-0.05005,0.08838-0.09625,0.11067
			c-0.0462,0.0223-0.09528,0.02477-0.147,0.00672l-0.79849-0.27868c-0.12615-0.04403-0.19309-0.12854-0.20082-0.25355
			c0.03525-0.19311-0.0228-0.38507-0.17452-0.57601c-0.15171-0.19094-0.37334-0.33767-0.66548-0.43963
			c-0.31485-0.10988-0.58499-0.13674-0.81005-0.08043c-0.22529,0.05583-0.37783,0.1986-0.45783,0.42784
			c-0.0561,0.16075-0.05618,0.30812-0.00037,0.44363c0.0557,0.13469,0.16842,0.27674,0.3378,0.42602
			c0.16939,0.14928,0.42346,0.33674,0.76147,0.56447c0.4639,0.29048,0.82124,0.55946,1.07176,0.80761
			c0.25077,0.24746,0.40949,0.50592,0.47691,0.77328c0.06707,0.26724,0.04187,0.5697-0.07619,0.90797
			c-0.17172,0.49202-0.48973,0.83263-0.95356,1.02043c-0.46407,0.1885-1.01308,0.20701-1.64761,0.05611l-0.20684,0.59267
			c-0.02,0.05731-0.0571,0.09846-0.11108,0.12509c-0.05409,0.02581-0.10974,0.02913-0.16705,0.00913l-0.52382-0.18282
			C40.72335,36.45374,40.68136,36.41792,40.6541,36.36685z"/>
	</g>
</g>
</svg>
