<?xml version="1.0" encoding="utf-8"?>
<!-- Generator: Adobe Illustrator 23.1.1, SVG Export Plug-In . SVG Version: 6.00 Build 0)  -->
<svg version="1.1" id="Layer_1" xmlns="http://www.w3.org/2000/svg" xmlns:xlink="http://www.w3.org/1999/xlink" x="0px" y="0px"
	 viewBox="0 0 110 110" style="enable-background:new 0 0 110 110;" xml:space="preserve">
<style type="text/css">
	.st0{display:none;}
	.st1{display:inline;fill:#4F2683;}
	.st2{display:inline;opacity:0.5;fill:#F9A557;enable-background:new    ;}
	.st3{display:inline;fill:#F9A557;}
	.st4{display:inline;}
	.st5{fill:#C9F3FF;}
	.st6{display:inline;fill:#C9F3FF;}
	.st7{display:inline;fill:#1275BC;}
	.st8{display:inline;fill:#FCC69D;}
	.st9{fill-rule:evenodd;clip-rule:evenodd;fill:#4F2683;}
	.st10{fill-rule:evenodd;clip-rule:evenodd;fill:#1275BC;}
	.st11{fill-rule:evenodd;clip-rule:evenodd;fill:#F99C24;}
	.st12{fill-rule:evenodd;clip-rule:evenodd;fill:#F9A557;}
	.st13{display:inline;opacity:0.56;fill:#F9A557;enable-background:new    ;}
	.st14{display:inline;opacity:0.35;fill:#4F2683;enable-background:new    ;}
	.st15{display:inline;fill:#F99C24;}
	.st16{fill:#FFFFFF;}
	.st17{opacity:0.56;fill:#F9A557;enable-background:new    ;}
	.st18{display:inline;fill:#FFFFFF;}
	.st19{display:inline;fill:#EDF2FA;}
	.st20{display:inline;opacity:0.2;fill:#4F2683;enable-background:new    ;}
	.st21{clip-path:url(#SVGID_2_);fill:#4F2D82;}
	.st22{clip-path:url(#SVGID_4_);fill:#FFFFFF;}
	.st23{clip-path:url(#SVGID_6_);fill:#FDC76D;}
	.st24{clip-path:url(#SVGID_8_);fill:#FDC76D;}
	.st25{clip-path:url(#SVGID_10_);fill:#F89C23;}
	.st26{clip-path:url(#SVGID_12_);fill:#FFFFFF;}
	.st27{clip-path:url(#SVGID_14_);fill:#F89C23;}
	.st28{clip-path:url(#SVGID_16_);fill:#A5CF59;}
	.st29{clip-path:url(#SVGID_18_);fill:#FFFFFF;}
	.st30{clip-path:url(#SVGID_20_);fill:#A5CF59;}
	.st31{clip-path:url(#SVGID_22_);fill:#F89C23;}
	.st32{clip-path:url(#SVGID_24_);fill:#F89C23;}
	.st33{clip-path:url(#SVGID_26_);fill:#010101;}
	.st34{clip-path:url(#SVGID_28_);fill:#010101;}
	.st35{clip-path:url(#SVGID_30_);fill:#F89C23;}
	.st36{clip-path:url(#SVGID_32_);fill:#FFFFFF;}
	.st37{clip-path:url(#SVGID_34_);fill:#0C7D7C;}
	.st38{clip-path:url(#SVGID_36_);fill:#4F2682;}
	.st39{clip-path:url(#SVGID_38_);fill:#231F20;}
	.st40{clip-path:url(#SVGID_40_);fill:#231F20;}
	.st41{clip-path:url(#SVGID_42_);fill:#231F20;}
	.st42{clip-path:url(#SVGID_44_);fill:#231F20;}
	.st43{opacity:0.59;clip-path:url(#SVGID_46_);fill:#1075BB;enable-background:new    ;}
	.st44{clip-path:url(#SVGID_48_);fill:#4F2D82;}
	.st45{clip-path:url(#SVGID_50_);fill:#FFFFFF;}
	.st46{display:inline;fill:#F89C24;}
	.st47{clip-path:url(#SVGID_52_);fill:#FFFFFF;}
	.st48{display:inline;fill:#4F2D82;}
	.st49{clip-path:url(#SVGID_54_);fill:#231F20;}
	.st50{clip-path:url(#SVGID_56_);fill:#231F20;}
	.st51{clip-path:url(#SVGID_58_);fill:#231F20;}
	.st52{clip-path:url(#SVGID_60_);fill:#231F20;}
	.st53{clip-path:url(#SVGID_62_);fill:#231F20;}
	.st54{clip-path:url(#SVGID_64_);fill:#231F20;}
	.st55{clip-path:url(#SVGID_66_);fill:#FFFFFF;}
	.st56{clip-path:url(#SVGID_68_);fill:#F9A659;}
	.st57{clip-path:url(#SVGID_70_);fill:#E0E0DF;}
	.st58{clip-path:url(#SVGID_72_);fill:#502D81;}
	.st59{clip-path:url(#SVGID_74_);fill:#1075BB;}
	.st60{clip-path:url(#SVGID_76_);fill:#FFF0D7;}
	.st61{clip-path:url(#SVGID_78_);fill:#502D81;}
	.st62{clip-path:url(#SVGID_80_);fill:#FFF0D7;}
	.st63{clip-path:url(#SVGID_82_);fill:#FFFFFF;}
	.st64{clip-path:url(#SVGID_84_);fill:#FFF0D7;}
	.st65{clip-path:url(#SVGID_86_);fill:#F9A659;}
	.st66{clip-path:url(#SVGID_88_);fill:#808082;}
	.st67{clip-path:url(#SVGID_90_);fill:#010101;}
	.st68{clip-path:url(#SVGID_92_);fill:#010101;}
	.st69{clip-path:url(#SVGID_94_);fill:#010101;}
	.st70{clip-path:url(#SVGID_96_);fill:#010101;}
	.st71{clip-path:url(#SVGID_98_);fill:#010101;}
	.st72{clip-path:url(#SVGID_100_);fill:#010101;}
	.st73{clip-path:url(#SVGID_102_);fill:#010101;}
	.st74{clip-path:url(#SVGID_104_);fill:#010101;}
	.st75{clip-path:url(#SVGID_106_);fill:#010101;}
	.st76{display:inline;opacity:0.74;fill:#4F2683;enable-background:new    ;}
	.st77{display:inline;opacity:0.38;fill:#4F2683;enable-background:new    ;}
	.st78{fill:#4F2683;}
	.st79{fill:#EDF2FA;}
	.st80{fill:#F9A557;}
	.st81{fill:#0C7D7C;}
	.st82{fill:#FFC66C;}
</style>
<g class="st0">
	<path class="st1" d="M55.2,24.3H65v4.6h-9.8V24.3z"/>
	<path class="st2" d="M68.9,46.3L55.2,32.6L41.5,46.3v34.1h27.4V46.3z"/>
	<path class="st3" d="M68.9,53.1h14.4v27.4H68.9V53.1z"/>
	<path class="st3" d="M27.1,53.1h14.4v27.4H27.1V53.1z"/>
	<path class="st1" d="M68.9,46.7h14.4v6.4H68.9V46.7z"/>
	<path class="st1" d="M27.1,46.7h14.4v6.4H27.1V46.7z"/>
	<g class="st4">
		<path class="st5" d="M46,66.8h18.3v13.7H46V66.8z"/>
		<path class="st5" d="M46,57.7h18.3v4.6H46V57.7z"/>
		<path class="st5" d="M32,57.7h4.6v4.6H32V57.7z"/>
		<path class="st5" d="M32,69.8h4.6v4.6H32V69.8z"/>
		<path class="st5" d="M73.6,57.7h4.6v4.6h-4.6V57.7z"/>
		<path class="st5" d="M73.6,69.8h4.6v4.6h-4.6V69.8z"/>
	</g>
	<path class="st6" d="M59,46.7c0,2.2-1.7,3.9-3.9,3.9s-3.9-1.7-3.9-3.9s1.7-3.9,3.9-3.9S59,44.5,59,46.7z"/>
	<path class="st4" d="M47.9,41.1c0.3,0,0.6-0.1,0.8-0.3S49,40.3,49,40s-0.1-0.6-0.3-0.8s-0.5-0.3-0.8-0.3s-0.6,0.1-0.8,0.3
		s-0.3,0.5-0.3,0.8s0.1,0.6,0.3,0.8C47.3,41,47.6,41.1,47.9,41.1z"/>
	<path class="st4" d="M83.3,45.5H69.7l0,0L56.3,32.2V30H65c0.6,0,1.1-0.5,1.1-1.1v-4.6c0-0.6-0.5-1.1-1.1-1.1h-9.8
		c-0.6,0-1.1,0.5-1.1,1.1v7.9l-4.4,4.4c-0.4,0.4-0.4,1.2,0,1.6c0.4,0.4,1.2,0.4,1.6,0l3.9-3.9l12.6,12.6v32.5h-2.3V66.8
		c0-0.6-0.5-1.1-1.1-1.1H46c-0.6,0-1.1,0.5-1.1,1.1v12.6h-2.3V46.8l3.5-3.5c0.4-0.4,0.4-1.2,0-1.6c-0.4-0.4-1.2-0.4-1.6,0l-3.8,3.8
		l0,0H27.1c-0.6,0-1.1,0.5-1.1,1.1v33.8c0,0.6,0.5,1.1,1.1,1.1h56.2c0.6,0,1.1-0.5,1.1-1.1V46.7C84.4,46.1,83.9,45.5,83.3,45.5z
		 M63.9,27.7h-7.5v-2.3h7.5V27.7z M28.2,47.8h12.1v4.1H28.2V47.8z M28.2,54.2h12.1v25.1H28.2V54.2z M82.1,51.9H70v-4.1h12.1V51.9z
		 M47.2,67.9H54v11.4h-6.9V67.9H47.2z M56.3,79.4V67.9h6.9v11.4L56.3,79.4L56.3,79.4z M82.1,79.4H70V54.2h12.1V79.4z"/>
	<path class="st4" d="M60.2,46.7c0-2.8-2.3-5-5-5c-2.8,0-5,2.3-5,5c0,2.8,2.3,5,5,5S60.2,49.5,60.2,46.7z M55.1,49.4
		c-1.5,0-2.8-1.2-2.8-2.8s1.2-2.8,2.8-2.8c1.5,0,2.8,1.2,2.8,2.8S56.6,49.4,55.1,49.4z"/>
	<path class="st4" d="M44.9,57.7v4.6c0,0.6,0.5,1.1,1.1,1.1h18.3c0.6,0,1.1-0.5,1.1-1.1v-4.6c0-0.6-0.5-1.1-1.1-1.1h-4.2
		c-0.6,0-1.1,0.5-1.1,1.1s0.5,1.1,1.1,1.1h3v2.3h-16v-2.3h3.3c0.6,0,1.1-0.5,1.1-1.1s-0.5-1.1-1.1-1.1H46
		C45.4,56.5,44.9,57,44.9,57.7z"/>
	<path class="st4" d="M54.3,56.8C54.1,57,54,57.3,54,57.6s0.1,0.6,0.3,0.8s0.5,0.3,0.8,0.3s0.6-0.1,0.8-0.3s0.3-0.5,0.3-0.8
		s-0.1-0.6-0.3-0.8s-0.5-0.3-0.8-0.3S54.5,56.6,54.3,56.8z"/>
	<path class="st4" d="M36.6,56.5H32c-0.6,0-1.1,0.5-1.1,1.1v4.6c0,0.6,0.5,1.1,1.1,1.1h4.6c0.6,0,1.1-0.5,1.1-1.1v-4.6
		C37.7,57,37.2,56.5,36.6,56.5z M35.4,61.1h-2.3v-2.3h2.3V61.1z"/>
	<path class="st4" d="M36.6,68.6H32c-0.6,0-1.1,0.5-1.1,1.1v4.6c0,0.6,0.5,1.1,1.1,1.1h4.6c0.6,0,1.1-0.5,1.1-1.1v-4.6
		C37.7,69.1,37.2,68.6,36.6,68.6z M35.4,73.2h-2.3v-2.3h2.3V73.2z"/>
	<path class="st4" d="M73.6,63.4h4.6c0.6,0,1.1-0.5,1.1-1.1v-4.6c0-0.6-0.5-1.1-1.1-1.1h-4.6c-0.6,0-1.1,0.5-1.1,1.1v4.6
		C72.4,62.9,72.9,63.4,73.6,63.4z M74.7,58.8H77v2.3h-2.3V58.8z"/>
	<path class="st4" d="M73.6,75.5h4.6c0.6,0,1.1-0.5,1.1-1.1v-4.6c0-0.6-0.5-1.1-1.1-1.1h-4.6c-0.6,0-1.1,0.5-1.1,1.1v4.6
		C72.4,75,72.9,75.5,73.6,75.5z M74.7,70.9H77v2.3h-2.3V70.9z"/>
</g>
<g class="st0">
	<path class="st3" d="M63.7,56H86c1.2,0,2.2-1,2.2-2.2v-29c0-1.2-1-2.2-2.2-2.2H63.7c-1.2,0-2.2,1-2.2,2.2v29
		C61.6,55.1,62.5,56,63.7,56z"/>
	<path class="st1" d="M29.9,56.7h8v7.5h-8C29.9,64.2,29.9,56.7,29.9,56.7z"/>
	<path class="st1" d="M50.5,51.2c-0.5-0.8-1.2-1.6-1.9-2.2l-5.4,3.2l-0.6-1c-1.3-2.1-3.3-3.5-5.7-4c-4,0.8-7,4.4-7,8.6v8.7l8-8.3
		l2.7,2.7c0.5,0.5,1.2,0.8,1.9,0.9l3.4-3.5l0.8,0.8l5-5V52l-0.4,0.2L50.5,51.2z"/>
	<path class="st7" d="M31.8,62.8v26.1h6.1V62.8H31.8z"/>
	<path class="st8" d="M34.5,37.8c-1.4,0.7-2.3,2.2-2.3,3.8v1.1c0,1.7,0.9,3.1,2.3,3.8c1.4-0.7,2.3-2.2,2.3-3.8v-1.1
		C36.8,40,35.8,38.5,34.5,37.8z"/>
	<path class="st4" d="M36.9,72.7c-0.3,0.3-0.4,0.6-0.4,1s0.1,0.7,0.4,1c0.3,0.3,0.6,0.4,1,0.4s0.7-0.1,1-0.4s0.4-0.6,0.4-1
		s-0.1-0.7-0.4-1c-0.3-0.3-0.6-0.4-1-0.4C37.5,72.3,37.2,72.4,36.9,72.7z"/>
	<path class="st4" d="M85.5,21.3H50c-2.2,0-4,1.8-4,4V49l-2.3,1.4c-1.5-2.3-3.8-3.9-6.5-4.5c0.6-0.9,1-2,1-3.2v-1.1
		c0-3.1-2.5-5.7-5.7-5.7s-5.7,2.5-5.7,5.7v1.1c0,1.3,0.4,2.4,1.1,3.4c-4.2,1.2-7.3,5.1-7.3,9.7v10.1c0,2.2,1.8,4,4,4h1.1v19
		c0,0.7,0.6,1.3,1.3,1.3h10.8c0.7,0,1.3-0.6,1.3-1.3v-9.8c0-0.7-0.6-1.3-1.3-1.3s-1.3,0.6-1.3,1.3v8.4h-2.7V71.9c0-0.1,0-0.1,0-0.2
		v-1.2c0-0.7-0.6-1.3-1.3-1.3s-1.3,0.6-1.3,1.3v17.1h-2.7v-22h8.1v3c0,0.7,0.6,1.3,1.3,1.3s1.3-0.6,1.3-1.3v-9.2l0.4,0.4
		c1.7,1.7,4.4,1.7,6.1,0l6.8-6.8c0.5-0.5,0.5-1.3,0.1-1.8l-0.5-0.6l6.2-6.2c0.5-0.5,0.5-1.4,0-1.9s-1.4-0.5-1.9,0l-6,6L49.9,48
		c-0.3-0.4-0.8-0.5-1.3-0.4V25.3c0-0.7,0.6-1.3,1.3-1.3h35.5c0.7,0,1.3,0.6,1.3,1.3v28c0,0.7-0.6,1.3-1.3,1.3h-25
		c-0.7,0-1.3,0.6-1.3,1.3s0.6,1.3,1.3,1.3h25c2.2,0,4-1.8,4-4v-28C89.6,23.1,87.8,21.3,85.5,21.3z M29.5,41.6c0-1.6,1.3-3,3-3
		c1.6,0,3,1.3,3,3v1.1c0,1.6-1.3,3-3,3c-1.6,0-3-1.3-3-3V41.6z M49.8,51.9l-5.9,5.9c-0.6,0.6-1.7,0.6-2.3,0l-2.3-2.3v-1.3
		c0-0.7-0.6-1.3-1.3-1.3s-1.3,0.6-1.3,1.3v8.5h-8.1v-8.5c0-0.7-0.6-1.3-1.3-1.3c-0.7,0-1.3,0.6-1.3,1.3v12.9h-1.1
		c-0.7,0-1.3-0.6-1.3-1.3v-10c0-4.1,3.3-7.4,7.4-7.4h4.3c2.6,0,5,1.3,6.3,3.5l0.6,1c0.4,0.6,1.2,0.8,1.8,0.5l4.7-2.8L49.8,51.9z"/>
	<path class="st4" d="M55,54.7c-0.4,0-0.7,0.1-1,0.4c-0.3,0.3-0.4,0.6-0.4,1s0.1,0.7,0.4,1c0.3,0.3,0.6,0.4,1,0.4s0.7-0.1,1-0.4
		c0.3-0.3,0.4-0.6,0.4-1s-0.1-0.7-0.4-1C55.7,54.8,55.3,54.7,55,54.7z"/>
	<path class="st4" d="M58.9,41.4c0.7,0,1.3-0.6,1.3-1.3v-8.6c0-0.6-0.3-1-0.8-1.3c-0.5-0.2-1.1-0.1-1.5,0.3L55,33.4
		c-0.5,0.5-0.5,1.4,0,1.9s1.4,0.5,1.9,0l0.6-0.6V40C57.5,40.8,58.2,41.4,58.9,41.4z"/>
	<path class="st4" d="M79.5,41.4c0.7,0,1.3-0.6,1.3-1.3v-8.6c0-0.6-0.3-1-0.8-1.3c-0.5-0.2-1.1-0.1-1.5,0.3l-2.9,2.9
		c-0.5,0.5-0.5,1.4,0,1.9s1.4,0.5,1.9,0l0.6-0.6V40C78.1,40.8,78.7,41.4,79.5,41.4z"/>
	<path class="st4" d="M67.8,31.2c-0.7,0-1.3,0.6-1.3,1.3v1.8h-1.8c-0.7,0-1.3,0.6-1.3,1.3s0.6,1.3,1.3,1.3h1.8v1.8
		c0,0.7,0.6,1.3,1.3,1.3c0.7,0,1.3-0.6,1.3-1.3v-1.8h1.8c0.7,0,1.3-0.6,1.3-1.3s-0.6-1.3-1.3-1.3h-1.8v-1.8
		C69.1,31.8,68.5,31.2,67.8,31.2z"/>
</g>
<g class="st0">
	<g class="st4">
		<path class="st9" d="M27,35.7l-0.5,0.5l4.9,4.9l5.8-5.8l-4.9-4.9L27,35.7z"/>
		<path class="st10" d="M35.1,44.9l-3.8-3.8l5.8-5.8l3.8,3.8L35.1,44.9z"/>
		<path class="st11" d="M44.7,54.5l2.9,2.9l7.6,7.6l13.6,13.6l7.8,2.4c0.1,0,0.2-0.1,0.3-0.1c0-0.1,0.1-0.2,0.1-0.3l-2.4-7.8
			L50.5,48.7l-9.6-9.6l-5.8,5.8L44.7,54.5z"/>
		<path class="st10" d="M81.7,76.1c-1.2,0.4-2.2,1-3.1,1.9s-1.5,1.9-1.9,3.1l7.1,2.2L81.7,76.1z"/>
		<path class="st12" d="M74.9,45.2l3.8-3.8l-2.6-2.6l-3.3-3.3L69,39.3L74.9,45.2z"/>
		<path class="st9" d="M35.8,78.6h5.8L55.2,65l-2.9-2.9l-2.9-2.9L35.8,72.8V78.6z"/>
		<path class="st9" d="M74.9,45.2l-9.3,9.3l-5.8-5.8l9.3-9.3L74.9,45.2z"/>
	</g>
	<path class="st1" d="M83.4,35.6l-5.2-5.2L73,35.6l5.8,5.8l5.2-5.2L83.4,35.6z"/>
	<path class="st4" d="M82.8,75.8L82.8,75.8C82.8,75.7,82.8,75.7,82.8,75.8l-2.5-8c-0.1-0.2-0.2-0.3-0.3-0.5L67.3,54.5l0,0l0,0
		L84.7,37l0,0c0.2-0.2,0.3-0.5,0.3-0.8s-0.1-0.6-0.3-0.8L74.3,24.9c-0.2-0.2-0.5-0.3-0.8-0.3s-0.6,0.1-0.8,0.3l-4.4,4.4l-2.4-2.4
		c-0.5-0.5-1.2-0.5-1.7,0L53.9,37.2l0,0l0,0c-0.5,0.5-0.5,1.2,0,1.7c0.2,0.2,0.5,0.3,0.8,0.3s0.6-0.1,0.8-0.3l5.7-5.7l1.6,1.6
		l-7.6,7.6l-8.7-8.7l8.7,8.7L37.7,24.9l0,0c-0.5-0.5-1.2-0.5-1.7,0L25.6,35.4c-0.2,0.2-0.3,0.5-0.3,0.8s0.1,0.6,0.3,0.8l0,0l0,0
		l17.5,17.5l0,0l0,0L30.3,67.3c-0.2,0.2-0.3,0.5-0.3,0.8v10l-4.3,4.3c-0.5,0.5-0.5,1.2,0,1.7c0.2,0.2,0.5,0.3,0.8,0.3
		s0.6-0.1,0.8-0.3l4.3-4.3h10c0.3,0,0.6-0.1,0.8-0.3l12.8-12.8L68,79.4c0.1,0.1,0.3,0.2,0.5,0.3l8,2.5l0,0l0,0l7.1,2.2
		c0.1,0,0.2,0.1,0.3,0.1c0.3,0,0.6-0.1,0.8-0.3c0.3-0.3,0.4-0.8,0.3-1.2L82.8,75.8z M73.5,27.4l8.8,8.8l-3.5,3.5L70,30.9L73.5,27.4z
		 M65,29.3l12.1,12.1L75,43.5l-12.2-12L65,29.3z M64.5,36.4l8.8,8.8l-7.6,7.6L56.8,44L64.5,36.4z M33,41.1l8.8-8.8l2.1,2.1l-8.8,8.8
		L33,41.1z M36.9,27.4l3.3,3.3l-8.8,8.8l-3.3-3.3L36.9,27.4z M41.1,77.4h-8.8v-8.8l12.4-12.4l1.2,1.2L43.4,60
		c-0.5,0.5-0.5,1.2,0,1.7c0.2,0.2,0.5,0.3,0.8,0.3s0.6-0.1,0.8-0.3l2.6-2.6l5.9,5.9L41.1,77.4z M36.8,44.9l8.8-8.8l0,0l0,0
		l19.2,19.2l0,0l0,0l13.4,13.4l2.1,6.7c-0.6,0.3-1.1,0.6-1.6,1l-7.3-7.3c-0.5-0.5-1.2-0.5-1.7,0s-0.5,1.2,0,1.7L77,78
		c-0.4,0.5-0.7,1-1,1.6l-6.7-2.1L36.8,44.9z M78.3,80.3c0.3-0.6,0.7-1.1,1.1-1.5s1-0.8,1.5-1.1l1.2,3.8L78.3,80.3z"/>
	<path class="st4" d="M40.9,62.4L40.9,62.4c-0.5,0.5-0.5,1.2,0,1.7c0.2,0.2,0.5,0.3,0.8,0.3s0.6-0.1,0.8-0.3l0,0
		c0.5-0.5,0.5-1.2,0-1.7C42.1,61.9,41.4,61.9,40.9,62.4z"/>
	<path class="st4" d="M69,66.6c-0.5-0.5-1.2-0.5-1.7,0s-0.5,1.2,0,1.7l0,0c0.2,0.2,0.5,0.3,0.8,0.3s0.6-0.1,0.8-0.3
		C69.5,67.9,69.5,67.1,69,66.6L69,66.6z"/>
</g>
<g class="st0">
	<path class="st13" d="M56.6,45.7c-0.5-0.1-1-0.2-1.5-0.2h-9.7L33.8,65.8l1.3,0.8L51.9,51l4.1,4.2l0.3-0.3l1.3,1.4
		c0.7,0.2,1.5,0.2,2.3-0.2l0,0c2-0.9,2.5-3.4,1.2-5.1L56.6,45.7z"/>
	<path class="st14" d="M72,45.5h-2.7c-1.4,0-2.7,0.6-3.7,1.5l-4.2,3.6l-0.6,5.6l-4.8-1L50.3,60L39.4,70.2c-0.1,0.1-0.1,0.2-0.2,0.3
		c-0.3,0.9-0.1,2,0.6,2.8c1.1,1.2,2.9,1.3,4.1,0.3c-0.2,0.2-0.4,0.4-0.6,0.7c0.1-0.1,0.3-0.2,0.4-0.3c-0.3,0.3-0.5,0.6-0.7,0.9
		c-0.3,0.9-0.1,2,0.6,2.8c1.1,1.2,2.9,1.3,4.1,0.3c-0.2,0.2-0.4,0.4-0.6,0.7c0.1-0.1,0.3-0.2,0.4-0.3c-0.3,0.2-0.5,0.6-0.7,0.9
		c-0.3,0.9-0.1,2,0.6,2.8c1.1,1.2,2.9,1.3,4.1,0.3c-0.2,0.2-0.4,0.4-0.6,0.7c0.1-0.1,0.3-0.2,0.4-0.3l0,0l4.3-3.8L72,66.3l1.7,0.1
		l7-4.7L72,45.5z"/>
	<rect x="80.4" y="33.5" transform="matrix(0.866 -0.5 0.5 0.866 -12.6738 48.1977)" class="st15" width="6.4" height="28.5"/>
	<rect x="17.6" y="46.6" transform="matrix(0.5 -0.866 0.866 0.5 -27.6164 52.7483)" class="st1" width="28.5" height="7.3"/>
	<path class="st13" d="M58.8,83.5c1.1,0.8,2.7,0.7,3.7-0.4c1-1,1.1-2.6,0.4-3.7c-1.1-0.8-2.7-0.7-3.7,0.4l0,0
		C58.1,80.8,58,82.4,58.8,83.5z"/>
	<g class="st4">
		<path class="st16" d="M63.3,75.6L63.3,75.6c1-1,2.6-1.1,3.7-0.4c-0.1-0.2-0.2-0.3-0.4-0.4l-2-2c-1.1-1.1-3-1.1-4.2,0l0,0
			c-1.1,1.1-1.1,3,0,4.2l2,2c0.1,0.1,0.3,0.2,0.4,0.4C62.2,78.2,62.3,76.6,63.3,75.6z"/>
		<path class="st16" d="M67.1,75.2c-0.8-1.1-0.7-2.7,0.4-3.7l0,0c1-1,2.6-1.1,3.7-0.4c-0.1-0.2-0.2-0.3-0.4-0.4l-2-2
			c-1.1-1.1-3-1.1-4.2,0l0,0c-1.1,1.1-1.1,3,0,4.2l2,2C66.8,75,66.9,75.1,67.1,75.2z"/>
		<path class="st16" d="M71.2,71.1c-0.8-1.1-0.7-2.7,0.4-3.7l0,0c1-1,2.6-1.1,3.7-0.4c-0.1-0.2-0.2-0.3-0.4-0.4l-2-2
			c-1.1-1.1-3-1.1-4.2,0l0,0c-1.1,1.1-1.1,3,0,4.2l2,2C70.9,70.9,71.1,71,71.2,71.1z"/>
	</g>
	<g class="st4">
		<path class="st17" d="M66.7,79c1-1,1.1-2.6,0.4-3.7c-1.1-0.8-2.7-0.7-3.7,0.4l0,0c-1,1-1.1,2.6-0.4,3.7C64.1,80.1,65.6,80,66.7,79
			z"/>
		<path class="st17" d="M67.4,71.5L67.4,71.5c-1,1-1.1,2.6-0.4,3.7c1.1,0.8,2.7,0.7,3.7-0.4l0,0c1-1,1.1-2.6,0.4-3.7
			C70,70.4,68.4,70.5,67.4,71.5z"/>
		<path class="st17" d="M75.3,67c-1.1-0.8-2.7-0.7-3.7,0.4c-1,1-1.1,2.6-0.4,3.7c1.1,0.8,2.7,0.7,3.7-0.4C76,69.7,76.1,68.1,75.3,67
			z"/>
	</g>
	<path class="st4" d="M23.3,45.5c-0.4,0.7-0.2,1.7,0.6,2.1c0.2,0.1,0.5,0.2,0.8,0.2c0.5,0,1.1-0.3,1.3-0.8l0.1-0.2
		c0.4-0.7,0.2-1.7-0.6-2.1s-1.7-0.2-2.1,0.6L23.3,45.5z"/>
	<path class="st4" d="M94.9,57.7L80.6,33c-0.4-0.7-1.4-1-2.1-0.6l-10.4,6c-0.4,0.2-0.6,0.5-0.7,0.9c-0.1,0.2-0.1,0.4,0,0.7h-2.1
		c-1.8,0-3.5,0.7-4.8,2l-2.7,2.7l-1.9-2.3c-1.3-1.5-3.2-2.4-5.2-2.4h-7.1c0-0.2,0-0.4,0-0.7c-0.1-0.4-0.4-0.7-0.7-0.9l-10.4-6
		c-0.7-0.4-1.7-0.2-2.1,0.6L27,39c-0.4,0.7-0.2,1.7,0.6,2.1s1.7,0.2,2.1-0.6l2.7-4.6l7.7,4.5l-12.7,22l-7.7-4.5l2.9-5
		c0.4-0.7,0.2-1.7-0.6-2.1s-1.7-0.2-2.1,0.6l-3.6,6.3c-0.4,0.7-0.2,1.7,0.6,2.1l10.4,6c0.2,0.1,0.5,0.2,0.8,0.2
		c0.5,0,1.1-0.3,1.3-0.8l0.1-0.2l4.2,2.5c0,1.1,0.4,2.1,1.1,2.9c0.7,0.8,1.7,1.3,2.7,1.5c0,1.1,0.4,2.1,1.1,2.9
		c0.7,0.8,1.7,1.3,2.7,1.5c0,1,0.4,2,1.1,2.9c0.7,0.8,1.7,1.3,2.7,1.5c0,1,0.4,2,1.1,2.9c0.9,1,2.1,1.5,3.3,1.5c1,0,2-0.3,2.8-1
		c0,0,0,0,0.1-0.1l2.5-2.2c0.2,0.2,0.4,0.5,0.6,0.7l2,2c0.9,0.9,2,1.3,3.2,1.3s2.3-0.4,3.2-1.3c0.8-0.8,1.2-1.8,1.3-2.9
		c1-0.1,2.1-0.5,2.9-1.3s1.2-1.8,1.3-2.9c1-0.1,2.1-0.5,2.9-1.3l0,0c0.8-0.8,1.2-1.8,1.3-2.9c1-0.1,2.1-0.5,2.9-1.3
		c1.3-1.3,1.6-3.2,1-4.8l4.2-2.8l0.6,1.1c0.2,0.4,0.5,0.6,0.9,0.7c0.1,0,0.3,0,0.4,0c0.3,0,0.5-0.1,0.8-0.2l10.4-6
		C95,59.4,95.3,58.5,94.9,57.7z M61.4,82.1c-0.5,0.5-1.4,0.5-2,0l-2-2c-0.3-0.3-0.4-0.6-0.4-1s0.1-0.7,0.4-1c0.3-0.3,0.6-0.4,1-0.4
		s0.7,0.1,1,0.4l2,2C62,80.6,62,81.5,61.4,82.1z M65.6,77.9c-0.5,0.5-1.4,0.5-2,0l-2-2c-0.3-0.3-0.4-0.6-0.4-1s0.1-0.7,0.4-1
		c0.3-0.3,0.6-0.4,1-0.4s0.7,0.1,1,0.4l2,2C66.1,76.5,66.1,77.4,65.6,77.9z M69.7,73.8L69.7,73.8c-0.5,0.5-1.4,0.5-2,0l-2-2
		c-0.3-0.3-0.4-0.6-0.4-1s0.1-0.7,0.4-1s0.6-0.4,1-0.4s0.7,0.1,1,0.4l2,2C70.2,72.4,70.2,73.2,69.7,73.8z M73.9,69.6
		c-0.5,0.5-1.4,0.5-2,0l-2-2c-0.5-0.5-0.5-1.4,0-2c0.3-0.3,0.6-0.4,1-0.4s0.7,0.1,1,0.4l2,2C74.4,68.2,74.4,69.1,73.9,69.6z
		 M75.1,64.6L74,63.5c-1.7-1.7-4.6-1.7-6.3,0c-0.8,0.8-1.2,1.8-1.3,2.9c-1,0.1-2.1,0.5-2.9,1.3c-0.8,0.8-1.2,1.8-1.3,2.9
		c-1,0.1-2.1,0.5-2.9,1.3c-0.8,0.8-1.2,1.8-1.3,2.9c-1,0.1-2.1,0.5-2.9,1.3c-0.6,0.6-1,1.3-1.2,2L50,81.5l0,0
		c-0.6,0.5-1.4,0.4-1.9-0.1c-0.5-0.6-0.4-1.4,0.1-1.9c0,0,0.1-0.1,0.1-0.2c0.1-0.1,0.3-0.2,0.4-0.3l3.9-3.9c0.6-0.6,0.6-1.6,0-2.2
		s-1.6-0.6-2.2,0l-3.9,3.9c0,0,0,0.1-0.1,0.1c-0.1,0.1-0.2,0.1-0.3,0.2c-0.6,0.5-1.4,0.4-1.9-0.1c-0.5-0.6-0.4-1.4,0.1-1.9
		c0.2-0.1,0.3-0.3,0.4-0.5l4.2-4.2c0.6-0.6,0.6-1.6,0-2.2s-1.6-0.6-2.2,0l-4.5,4.5c-0.1,0.1-0.1,0.2-0.2,0.2
		c-0.2,0.1-0.5,0.2-0.7,0.2c-0.4,0-0.7-0.2-0.9-0.4s-0.4-0.6-0.3-1c0-0.4,0.2-0.7,0.4-0.9l0,0l0,0l4.9-4.9c0.6-0.6,0.6-1.6,0-2.2
		c-0.6-0.6-1.6-0.6-2.2,0l-4.9,4.8c-0.6,0.5-1.4,0.4-1.9-0.1c-0.5-0.6-0.4-1.4,0.1-1.9l0.1-0.1l0.3-0.3l3.9-3.7
		c0.6-0.6,0.6-1.6,0-2.2c-0.6-0.6-1.6-0.6-2.2,0l-4,3.8l-0.1,0.1l0.5,0.1c-0.1,0.1-0.2,0.2-0.3,0.3L31,62.3l11-19.2h8.8
		c1.1,0,2.1,0.5,2.8,1.3l6.2,7.5c0.4,0.4,0.5,1,0.4,1.5s-0.5,1-1,1.2c-0.6,0.3-1.4,0.2-1.9-0.3L50.6,48c-0.6-0.6-1.6-0.6-2.2,0.1
		c-0.6,0.6-0.6,1.6,0.1,2.2l0.4,0.4c-1.2,2.4-3.8,3.9-6.5,3.7l0,0c-0.8-0.1-1.6,0.6-1.7,1.4c-0.1,0.8,0.6,1.6,1.4,1.7l0,0
		c0.2,0,0.5,0,0.7,0c3.4,0,6.6-1.8,8.4-4.6l4,3.8c0.9,0.9,2.1,1.3,3.3,1.3c0.7,0,1.4-0.2,2-0.4c1.4-0.6,2.4-1.9,2.7-3.3s0-3-1-4.2
		l-2.4-2.9l2.9-2.9c0.7-0.7,1.6-1.1,2.6-1.1H69l10.6,18.4L75.1,64.6z M83.7,62.4L71,40.3l7.7-4.4l12.7,22L83.7,62.4z"/>
	<path class="st4" d="M83.9,56.8C84,56.9,84,57,84.1,57c0.1,0.1,0.2,0.1,0.2,0.2c0.1,0.1,0.2,0.1,0.3,0.1c0.1,0,0.2,0.1,0.3,0.1
		c0.1,0,0.2,0,0.3,0c0.1,0,0.2,0,0.3,0c0.1,0,0.2,0,0.3-0.1c0.1,0,0.2-0.1,0.3-0.1c0.1-0.1,0.2-0.1,0.2-0.2c0.1-0.1,0.1-0.2,0.2-0.2
		c0.1-0.1,0.1-0.2,0.1-0.3s0.1-0.2,0.1-0.3s0-0.2,0-0.3s0-0.2,0-0.3s0-0.2-0.1-0.3c0-0.1-0.1-0.2-0.1-0.3c-0.1-0.1-0.1-0.2-0.2-0.2
		c-0.1-0.1-0.2-0.1-0.2-0.2c-0.1-0.1-0.2-0.1-0.3-0.1c-0.1,0-0.2-0.1-0.3-0.1c-0.2,0-0.4,0-0.6,0c-0.1,0-0.2,0-0.3,0.1
		c-0.1,0-0.2,0.1-0.3,0.1c-0.1,0.1-0.2,0.1-0.2,0.2C84,54.9,84,55,83.9,55c-0.1,0.1-0.1,0.2-0.1,0.3s-0.1,0.2-0.1,0.3s0,0.2,0,0.3
		s0,0.2,0,0.3s0,0.2,0.1,0.3C83.8,56.6,83.8,56.7,83.9,56.8z"/>
</g>
<g class="st0">
	<path class="st1" d="M74.9,63H29V48.8h45.9c3.9,0,7.1,3.2,7.1,7.1S78.8,63,74.9,63z"/>
	<path class="st18" d="M54.2,63H29V48.8h25.2c3.9,0,7.1,3.2,7.1,7.1S58.1,63,54.2,63z"/>
	<path class="st3" d="M53.6,72.3c0-4.9,4-8.8,8.8-8.8H82v-0.2H45.3c-4.9,0-8.8,4-8.8,8.8c0,4,2.7,7.4,6.3,8.5h16.6
		C56,79.4,53.6,76.2,53.6,72.3z"/>
	<path class="st3" d="M73.9,38.4H58.5c2.9,0,5.2,2.3,5.2,5.2s-2.3,5.2-5.2,5.2h15.4c2.9,0,5.2-2.3,5.2-5.2S76.8,38.4,73.9,38.4z"/>
	<path class="st19" d="M58.4,43.6c0-2.9-2.3-5.2-5.2-5.2H37.8v10.4h15.4C56.1,48.8,58.4,46.4,58.4,43.6z"/>
	<path class="st1" d="M71.3,27.7H47.9c-3,0-5.4,2.4-5.4,5.4c0,2.7,2,4.9,4.5,5.3h24.3V27.7z"/>
	<path class="st18" d="M58,27.6h13.4v10.8H58c-3,0-5.4-2.4-5.4-5.4S55,27.6,58,27.6z"/>
	<path class="st20" d="M82,63.4H69.6c-4.9,0-8.8,4-8.8,8.8c0,4,2.6,7.4,6.3,8.5h15L82,63.4L82,63.4z"/>
	<path class="st7" d="M76.4,72l-3.5-3.4L69.5,72v-9h6.9V72z"/>
	<path class="st4" d="M82,61.9h-1.6c1.6-1.5,2.7-3.7,2.7-6c0-3.4-2.1-6.3-5.1-7.6c1.3-1.1,2.2-2.8,2.2-4.7c0-3.4-2.8-6.3-6.3-6.3
		h-1.5v-9.7c0-0.6-0.5-1.1-1.1-1.1H42.5c-3.6,0-6.5,2.9-6.5,6.5c0,1.7,0.6,3.2,1.7,4.3h-5.9c-0.6,0-1.1,0.5-1.1,1.1v9.3H29
		c-0.6,0-1.1,0.5-1.1,1.1V63c0,0.6,0.5,1.1,1.1,1.1h2.7c-2.3,1.8-3.8,4.6-3.8,7.8c0,5.5,4.5,9.9,9.9,9.9H82c0.6,0,1.1-0.5,1.1-1.1
		V63C83.1,62.4,82.6,61.9,82,61.9z M75.3,64.1v5.3l-1.6-1.6c-0.2-0.2-0.5-0.3-0.8-0.3s-0.5,0.1-0.8,0.3l-1.6,1.6v-5.3H75.3z
		 M74.9,49.8c3.3,0,6,2.7,6,6s-2.7,6-6,6H59.7c1.6-1.5,2.7-3.7,2.7-6s-1-4.5-2.7-6H74.9z M78,43.6c0,2.3-1.8,4.1-4.1,4.1h-16
		c1-1.1,1.5-2.5,1.5-4.1s-0.6-3-1.5-4.1h16C76.2,39.5,78,41.3,78,43.6z M70.3,28.7v8.6H58c-2.4,0-4.3-1.9-4.3-4.3s1.9-4.3,4.3-4.3
		C58,28.7,70.3,28.7,70.3,28.7z M38.2,33c0-2.4,1.9-4.3,4.3-4.3h10.6c-1,1.1-1.7,2.7-1.7,4.3c0,1.7,0.6,3.2,1.7,4.3H42.5
		C40.2,37.3,38.2,35.4,38.2,33z M32.9,39.5h20.3c2.3,0,4.1,1.8,4.1,4.1s-1.8,4.1-4.1,4.1H32.9V39.5z M30,61.9v-2.6h19.4
		c0.6,0,1.1-0.5,1.1-1.1s-0.5-1.1-1.1-1.1H30v-2.6h23.7c0.6,0,1.1-0.5,1.1-1.1s-0.5-1.1-1.1-1.1H30v-2.6h24.2c3.3,0,6,2.7,6,6
		s-2.7,6-6,6H30V61.9z M37.8,79.6c-2.4,0-4.5-1.1-6-2.8h11.8c0.6,0,1.1-0.5,1.1-1.1s-0.5-1.1-1.1-1.1h-13c-0.3-0.9-0.5-1.8-0.5-2.8
		c0-4.3,3.5-7.8,7.8-7.8h19.4c-2.3,1.8-3.8,4.6-3.8,7.8s1.5,5.9,3.8,7.8H37.8z M80.9,79.6H63.3c-4.3,0-7.8-3.5-7.8-7.8
		S59,64,63.3,64h5.1v8c0,0.4,0.3,0.8,0.7,1c0.4,0.2,0.9,0.1,1.2-0.2l2.7-2.7l2.7,2.7c0.2,0.2,0.5,0.3,0.8,0.3c0.1,0,0.3,0,0.4-0.1
		c0.4-0.2,0.7-0.6,0.7-1v-7.9h3.5v15.5C81.1,79.6,80.9,79.6,80.9,79.6z"/>
	<path class="st4" d="M55,58.2c0-0.3-0.1-0.6-0.3-0.8s-0.5-0.3-0.8-0.3s-0.6,0.1-0.8,0.3s-0.3,0.5-0.3,0.8s0.1,0.6,0.3,0.8
		s0.5,0.3,0.8,0.3s0.6-0.1,0.8-0.3S55,58.5,55,58.2z"/>
	<path class="st4" d="M48.1,74.6c-0.3,0-0.6,0.1-0.8,0.3c-0.2,0.2-0.3,0.5-0.3,0.8s0.1,0.6,0.3,0.8c0.2,0.2,0.5,0.3,0.8,0.3
		s0.6-0.1,0.8-0.3c0.2-0.2,0.3-0.5,0.3-0.8s-0.1-0.6-0.3-0.8C48.7,74.7,48.4,74.6,48.1,74.6z"/>
</g>
<g class="st0">
	<g class="st4">
		<g>
			<g>
				<g>
					<defs>
						<rect id="SVGID_1_" x="24.3" y="24.3" width="56.8" height="65"/>
					</defs>
					<clipPath id="SVGID_2_">
						<use xlink:href="#SVGID_1_"  style="overflow:visible;"/>
					</clipPath>
					<path class="st21" d="M61.2,26.3C50.5,28.9,42.5,38.5,42.5,50s8,21.1,18.7,23.7C71.9,71.1,79.9,61.5,79.9,50
						C79.8,38.5,71.9,28.8,61.2,26.3"/>
				</g>
			</g>
		</g>
	</g>
	<g class="st4">
		<g>
			<g>
				<g>
					<defs>
						<rect id="SVGID_3_" x="24.3" y="24.3" width="56.8" height="65"/>
					</defs>
					<clipPath id="SVGID_4_">
						<use xlink:href="#SVGID_3_"  style="overflow:visible;"/>
					</clipPath>
					<path class="st22" d="M68.7,43.1c-1.8,0-3.2-1.4-3.2-3.2c0-1.4,1.2-2.6,2.6-2.6c0.8,0,1.5-0.7,1.5-1.5c0-0.9,0.3-1.8,0.8-2.4
						h-5.7c-2.2,0-4,1.8-4,4c0,0.8-0.7,1.5-1.5,1.5c-1.4,0-2.6,1.2-2.6,2.6c0,1.8,1.4,3.2,3.2,3.2h6.4v4.2h2.4
						c0.7,0,1.2-0.5,1.2-1.2s0.6-1.2,1.2-1.2h4v-3.3L68.7,43.1L68.7,43.1z"/>
				</g>
			</g>
		</g>
	</g>
	<g class="st4">
		<g>
			<g>
				<g>
					<defs>
						<rect id="SVGID_5_" x="24.3" y="24.3" width="56.8" height="65"/>
					</defs>
					<clipPath id="SVGID_6_">
						<use xlink:href="#SVGID_5_"  style="overflow:visible;"/>
					</clipPath>
					<path class="st23" d="M78.7,46.1c0,0.1,0,0.1,0,0.2c0.3-0.1,0.6-0.2,0.9-0.4c-0.1-0.3-0.1-0.6-0.2-0.9
						C78.9,45.2,78.7,45.6,78.7,46.1"/>
				</g>
			</g>
		</g>
	</g>
	<g class="st4">
		<g>
			<g>
				<g>
					<defs>
						<rect id="SVGID_7_" x="24.3" y="24.3" width="56.8" height="65"/>
					</defs>
					<clipPath id="SVGID_8_">
						<use xlink:href="#SVGID_7_"  style="overflow:visible;"/>
					</clipPath>
					<path class="st24" d="M75.1,46.4v0.9h2.4c0.6,0,1.1-0.4,1.2-1c-0.2,0.1-0.5,0.1-0.7,0.1H75.1z"/>
				</g>
			</g>
		</g>
	</g>
	<g class="st4">
		<g>
			<g>
				<g>
					<defs>
						<rect id="SVGID_9_" x="24.3" y="24.3" width="56.8" height="65"/>
					</defs>
					<clipPath id="SVGID_10_">
						<use xlink:href="#SVGID_9_"  style="overflow:visible;"/>
					</clipPath>
					<path class="st25" d="M70.5,33.4c-0.5,0.7-0.8,1.5-0.8,2.4c0,0.8-0.7,1.5-1.5,1.5c-1.4,0-2.6,1.2-2.6,2.6
						c0,1.8,1.4,3.2,3.2,3.2h6.4v3.3h2.9c0.2,0,0.5,0,0.7-0.1c0-0.1,0-0.1,0-0.2c0-0.5,0.3-0.9,0.7-1.1c-0.9-4.4-3-8.4-6-11.6H70.5z
						"/>
				</g>
			</g>
		</g>
	</g>
	<g class="st4">
		<g>
			<g>
				<g>
					<defs>
						<rect id="SVGID_11_" x="24.3" y="24.3" width="56.8" height="65"/>
					</defs>
					<clipPath id="SVGID_12_">
						<use xlink:href="#SVGID_11_"  style="overflow:visible;"/>
					</clipPath>
					<path class="st26" d="M43.3,44v-0.2c0-1.5-1.2-2.7-2.7-2.7c-0.1,0-0.3,0-0.4,0c0.8-2.1,1.9-4.1,3.3-5.9h-7.2
						c-1.4,1.8-2.5,3.7-3.3,5.9c0.1,0,0.3,0,0.4,0c1.5,0,2.7,1.2,2.7,2.7V44c0,1.6,1.3,2.9,3,2.9h4c0.6,0,1.1-0.2,1.6-0.5
						C43.8,46,43.3,45.1,43.3,44"/>
				</g>
			</g>
		</g>
	</g>
	<g class="st4">
		<g>
			<g>
				<g>
					<defs>
						<rect id="SVGID_13_" x="24.3" y="24.3" width="56.8" height="65"/>
					</defs>
					<clipPath id="SVGID_14_">
						<use xlink:href="#SVGID_13_"  style="overflow:visible;"/>
					</clipPath>
					<path class="st27" d="M45.8,44.2L45.8,44.2c0-1.6,1.2-2.9,2.8-2.9c1.5,0,2.8-1.2,2.8-2.8V38c0-1.5-1.2-2.8-2.8-2.8h-5.2
						c-1.4,1.8-2.5,3.7-3.3,5.9c0.1,0,0.3,0,0.4,0c1.5,0,2.7,1.2,2.7,2.7V44c0,1,0.5,1.9,1.3,2.5C45.3,46,45.8,45.2,45.8,44.2"/>
				</g>
			</g>
		</g>
	</g>
	<g class="st4">
		<g>
			<g>
				<g>
					<defs>
						<rect id="SVGID_15_" x="24.3" y="24.3" width="56.8" height="65"/>
					</defs>
					<clipPath id="SVGID_16_">
						<use xlink:href="#SVGID_15_"  style="overflow:visible;"/>
					</clipPath>
					<path class="st28" d="M65.6,62.2L64.8,63C65.2,62.9,65.4,62.6,65.6,62.2"/>
				</g>
			</g>
		</g>
	</g>
	<g class="st4">
		<g>
			<g>
				<g>
					<defs>
						<rect id="SVGID_17_" x="24.3" y="24.3" width="56.8" height="65"/>
					</defs>
					<clipPath id="SVGID_18_">
						<use xlink:href="#SVGID_17_"  style="overflow:visible;"/>
					</clipPath>
					<path class="st29" d="M60.5,54.4c-1.7,0-3.1-1.4-3.1-3.1v-1.4c0-0.4,0.1-0.7,0.2-1.1h-0.7c-1.7,0-3.1,1.4-3.1,3.1v1.4
						c0,1.7,1.4,3.1,3.1,3.1c1.3,0,2.4,1.1,2.4,2.4v8.6l2.9-3.2c0.2-0.2,0.4-0.4,0.7-0.5v-6.9C62.9,55.4,61.8,54.4,60.5,54.4"/>
				</g>
			</g>
		</g>
	</g>
	<g class="st4">
		<g>
			<g>
				<g>
					<defs>
						<rect id="SVGID_19_" x="24.3" y="24.3" width="56.8" height="65"/>
					</defs>
					<clipPath id="SVGID_20_">
						<use xlink:href="#SVGID_19_"  style="overflow:visible;"/>
					</clipPath>
					<path class="st30" d="M62.9,63.6v1.7l2-2.2c-0.3,0.2-0.7,0.3-1.1,0.3C63.4,63.4,63.1,63.5,62.9,63.6"/>
				</g>
			</g>
		</g>
	</g>
	<g class="st4">
		<g>
			<g>
				<g>
					<defs>
						<rect id="SVGID_21_" x="24.3" y="24.3" width="56.8" height="65"/>
					</defs>
					<clipPath id="SVGID_22_">
						<use xlink:href="#SVGID_21_"  style="overflow:visible;"/>
					</clipPath>
					<path class="st31" d="M65.8,58.2c0-0.8,0.7-1.5,1.5-1.5H68c0.8,0,1.5-0.7,1.5-1.5v-1.7c0-0.8-0.7-1.5-1.5-1.5s-1.5-0.7-1.5-1.5
						c0-1-0.8-1.8-1.8-1.8h-7.2c-0.1,0.3-0.2,0.7-0.2,1.1v1.4c0,1.7,1.4,3.1,3.1,3.1c1.3,0,2.4,1.1,2.4,2.4v6.9
						c0.3-0.1,0.6-0.2,0.9-0.2c0.4,0,0.8-0.1,1.1-0.3l0.8-0.8c0.1-0.3,0.2-0.6,0.2-1C65.8,61.3,65.8,58.2,65.8,58.2z"/>
				</g>
			</g>
		</g>
	</g>
	<g class="st4">
		<g>
			<g>
				<g>
					<defs>
						<rect id="SVGID_23_" x="24.3" y="24.3" width="56.8" height="65"/>
					</defs>
					<clipPath id="SVGID_24_">
						<use xlink:href="#SVGID_23_"  style="overflow:visible;"/>
					</clipPath>
					<path class="st32" d="M51.2,60.3c0-1.7-1.3-3-3-3h-0.4c-0.7,0-1.3-0.6-1.3-1.3v-1.4c0-1.5-1.2-2.7-2.7-2.7h-3.4
						c-0.7,0.5-1.1,1.3-1.1,2.2v1.5c0,1.5,1.2,2.7,2.7,2.7c1.4,0,2.6,1.2,2.6,2.6v5.9c0,0.4,0.1,0.7,0.2,1.1c0-0.2,0.1-0.3,0.1-0.5
						v-1.9c0-1.2,0.9-2.1,2.1-2.1h1.2C49.8,63.3,51.2,61.9,51.2,60.3"/>
				</g>
			</g>
		</g>
	</g>
	<g class="st4">
		<g>
			<g>
				<g>
					<defs>
						<rect id="SVGID_25_" x="24.3" y="24.3" width="56.8" height="65"/>
					</defs>
					<clipPath id="SVGID_26_">
						<use xlink:href="#SVGID_25_"  style="overflow:visible;"/>
					</clipPath>
					<path class="st33" d="M35.2,70.2C24.3,59.4,24,41.8,34.3,30.6l2.2,2.2c-4.1,4.5-6.6,10.6-6.6,17.2c0,14.1,11.5,25.6,25.6,25.6
						c6.6,0,12.6-2.5,17.2-6.6l2.2,2.2C63.6,81.4,46.1,81.1,35.2,70.2 M36.8,36.5h11.7c0.8,0,1.5,0.7,1.5,1.5v0.6
						c0,0.8-0.7,1.5-1.5,1.5c-2.2,0-4,1.8-4,4v0.1c0,0.8-0.7,1.5-1.5,1.5h-3.5c-0.9,0-1.7-0.8-1.7-1.7v-0.2c0-1.9-1.3-3.5-3.1-3.9
						C35.3,38.7,36,37.6,36.8,36.5 M47.2,58.3h0.4c0.9,0,1.6,0.7,1.6,1.6c0,0.9-0.7,1.6-1.6,1.6h-1.1c-1.8,0-3.3,1.5-3.3,3.3v2.5
						c0,0.6-0.5,1.1-1.1,1.1S41,67.9,41,67.3V61c0-2.1-1.7-3.7-3.7-3.7c-0.7,0-1.3-0.6-1.3-1.3v-1.4c0-0.7,0.6-1.3,1.3-1.3h6
						c0.7,0,1.3,0.6,1.3,1.3v1.3C44.7,57.2,45.8,58.3,47.2,58.3 M70.1,32.1h-5.4c-2.9,0-5.2,2.3-5.2,5.2c0,0.1-0.1,0.2-0.2,0.2
						c-2.1,0-3.9,1.7-3.9,3.9c0,2.4,2,4.4,4.4,4.4h5.1v1.7c-0.1,0-0.1,0-0.2,0h-7.9c-2.4,0-4.4,2-4.4,4.4v1.4c0,2.4,2,4.4,4.4,4.4
						c0.6,0,1.1,0.5,1.1,1.1v8.6c0,0.5,0.3,1,0.8,1.2c0.1,0.1,0.3,0.1,0.5,0.1c0.4,0,0.7-0.1,0.9-0.4l2.9-3.2
						c0.2-0.2,0.4-0.3,0.6-0.3c1.9,0,3.4-1.5,3.4-3.4v-3.1c0-0.1,0.1-0.2,0.2-0.2H68c1.5,0,2.7-1.2,2.7-2.7v-1.7
						c0-1.5-1.2-2.7-2.7-2.7c-0.1,0-0.2-0.1-0.2-0.2c0-0.2,0-0.3,0-0.5h0.8l0,0c1.4,0,2.5-1.1,2.5-2.4h7.4c0.1,0.7,0.1,1.5,0.1,2.3
						C78.6,62.7,68.2,73,55.5,73c-4,0-7.8-1-11.1-2.9c0.8-0.7,1.4-1.7,1.4-2.8v-2.5c0-0.4,0.3-0.7,0.7-0.7h1.1
						c2.3,0,4.1-1.9,4.1-4.1c0-2.3-1.9-4.1-4.1-4.1h-0.4v-1.3c0-2.1-1.7-3.8-3.8-3.8h-6c-2.1,0-3.9,1.7-3.9,3.9v1.4
						c0,2.1,1.7,3.9,3.9,3.9c0.7,0,1.2,0.5,1.2,1.2v4.6c-3.8-4.1-6.1-9.6-6.1-15.7c0-2.7,0.5-5.2,1.3-7.6h0.1c0.8,0,1.5,0.7,1.5,1.5
						v0.2c0,2.3,1.9,4.2,4.2,4.2H43c2.2,0,4-1.8,4-4v-0.1c0-0.8,0.7-1.5,1.5-1.5c2.2,0,4-1.8,4-4V38c0-2.2-1.8-4-4-4h-9.6
						c4.2-4.3,10.1-7.1,16.6-7.1C61.1,26.9,66.2,28.8,70.1,32.1 M66.2,43.3h-6.4c-1,0-1.9-0.9-1.9-1.9c0-0.7,0.6-1.3,1.3-1.3
						c1.5,0,2.7-1.2,2.7-2.7s1.2-2.7,2.7-2.7h8.1c2.6,2.9,4.5,6.5,5.3,10.5h-7c-1.4,0-2.5,1.1-2.5,2.4h-1.1v-3
						C67.5,43.9,66.9,43.3,66.2,43.3 M56.9,55.1c-1,0-1.8-0.8-1.8-1.8v-1.4c0-1,0.8-1.8,1.8-1.8h7.9c0.3,0,0.5,0.2,0.5,0.5
						c0,1.5,1.2,2.7,2.7,2.7c0.1,0,0.2,0.1,0.2,0.2v1.7c0,0.1-0.1,0.2-0.2,0.2h-0.7c-1.5,0-2.7,1.2-2.7,2.8v3.1
						c0,0.5-0.4,0.9-0.9,0.9c-1,0-1.9,0.4-2.5,1.1L60.5,64v-5.3C60.5,56.7,58.9,55.1,56.9,55.1 M77.6,70.2L77.6,70.2l-3.1-3.1
						c4.1-4.5,6.6-10.6,6.6-17.2c0-14.1-11.5-25.6-25.6-25.6c-6.6,0-12.6,2.5-17.2,6.6L32,24.6c-0.5-0.5-1.3-0.5-1.8,0
						s-0.5,1.3,0,1.8l2.3,2.3C27.2,34.6,24.3,42,24.3,50c0,8.3,3.2,16.2,9.1,22.1c5.6,5.6,12.9,8.8,20.8,9.1v5.6h-7.8
						c-0.7,0-1.3,0.6-1.3,1.3c0,0.7,0.6,1.3,1.3,1.3h22.3c0.7,0,1.3-0.6,1.3-1.3c0-0.7-0.6-1.3-1.3-1.3H56.8v-5.6
						c7.4-0.3,14.4-3.2,19.9-8.2l1.8,1.8c0.2,0.2,0.6,0.4,0.9,0.4s0.6-0.1,0.9-0.4c0.5-0.5,0.5-1.3,0-1.8L77.6,70.2z"/>
				</g>
			</g>
		</g>
	</g>
	<g class="st4">
		<g>
			<g>
				<g>
					<defs>
						<rect id="SVGID_27_" x="24.3" y="24.3" width="56.8" height="65"/>
					</defs>
					<clipPath id="SVGID_28_">
						<use xlink:href="#SVGID_27_"  style="overflow:visible;"/>
					</clipPath>
					<path class="st34" d="M42.2,86.8c-0.3,0-0.7,0.1-0.9,0.4c-0.2,0.2-0.4,0.6-0.4,0.9s0.1,0.7,0.4,0.9c0.2,0.2,0.6,0.4,0.9,0.4
						c0.3,0,0.7-0.1,0.9-0.4c0.2-0.2,0.4-0.6,0.4-0.9s-0.1-0.7-0.4-0.9C42.8,86.9,42.5,86.8,42.2,86.8"/>
				</g>
			</g>
		</g>
	</g>
</g>
<g class="st0">
	<g class="st4">
		<g>
			<g>
				<g>
					<defs>
						<rect id="SVGID_29_" x="28.2" y="24.7" width="53.4" height="59.7"/>
					</defs>
					<clipPath id="SVGID_30_">
						<use xlink:href="#SVGID_29_"  style="overflow:visible;"/>
					</clipPath>
					<path class="st35" d="M73.8,33.2C64,25.5,55,35.9,55,35.9l0,0c0,0-4.9-5.7-11.5-5.6c-7.6,12.9,2.8,32,5.9,38
						c0.6,1.2,1.3,2.4,1.9,3.5c1.3-0.7,2.2-1.6,3.6-1.6l0,0c2.5,0,3.3,2.6,7.8,2.6s7.6-4.9,10.1-9.7C75.4,58.5,84.5,41.6,73.8,33.2"
						/>
				</g>
			</g>
		</g>
	</g>
	<g class="st4">
		<g>
			<g>
				<g>
					<defs>
						<rect id="SVGID_31_" x="28.2" y="24.7" width="53.4" height="59.7"/>
					</defs>
					<clipPath id="SVGID_32_">
						<use xlink:href="#SVGID_31_"  style="overflow:visible;"/>
					</clipPath>
					<path class="st36" d="M48.7,41.4c1.9-1.9,4.3-2.8,6.7-2.8c0-0.9-0.2-1.8-0.5-2.6c-3.3-1.1-7.1-0.3-9.8,2.3
						c-2.6,2.6-3.4,6.5-2.3,9.8c1,0.3,2,0.5,3.1,0.5C45.8,45.9,46.7,43.3,48.7,41.4"/>
				</g>
			</g>
		</g>
	</g>
	<g class="st4">
		<g>
			<g>
				<g>
					<defs>
						<rect id="SVGID_33_" x="28.2" y="24.7" width="53.4" height="59.7"/>
					</defs>
					<clipPath id="SVGID_34_">
						<use xlink:href="#SVGID_33_"  style="overflow:visible;"/>
					</clipPath>
					<path class="st37" d="M55.4,38.6c-2.4,0-4.9,0.9-6.7,2.8c-2,2-2.9,4.6-2.8,7.1c2.4,0,4.9-0.9,6.7-2.8
						C54.6,43.7,55.5,41.1,55.4,38.6"/>
				</g>
			</g>
		</g>
	</g>
	<g class="st4">
		<g>
			<g>
				<g>
					<defs>
						<rect id="SVGID_35_" x="28.2" y="24.7" width="53.4" height="59.7"/>
					</defs>
					<clipPath id="SVGID_36_">
						<use xlink:href="#SVGID_35_"  style="overflow:visible;"/>
					</clipPath>
					<path class="st38" d="M80.5,72.9H62.7H45.9c-2.8,0-5.1,2.3-5.1,5.1c0,2.8,2.3,5.1,5.1,5.1h34.6V72.9z"/>
				</g>
			</g>
		</g>
	</g>
	<g class="st4">
		<g>
			<g>
				<g>
					<defs>
						<rect id="SVGID_37_" x="28.2" y="24.7" width="53.4" height="59.7"/>
					</defs>
					<clipPath id="SVGID_38_">
						<use xlink:href="#SVGID_37_"  style="overflow:visible;"/>
					</clipPath>
					<path class="st39" d="M34.5,82c-2.2,0-4-1.8-4-4s1.8-4,4-4h44.8v2.8H42.4c-0.6,0-1.2,0.5-1.2,1.2c0,0.6,0.5,1.2,1.2,1.2h36.9
						V82H34.5z M56.1,71.8h-2.3c0.4-0.2,0.7-0.3,1.1-0.3l0,0C55.4,71.5,55.7,71.6,56.1,71.8 M38.1,62.7L38,62.5
						c-1.3-2.5-4.1-7.8-5.3-13.4c-1.4-6.7,0-11.8,4.1-15c3.6-2.9,7.6-3.4,11.8-1.4c1,0.5,1.9,1.1,2.7,1.6c-2.6,0.1-5.1,1.2-7,3.1
						c-2.9,2.9-3.9,7.1-2.6,11c0.1,0.3,0.4,0.6,0.7,0.7c1.1,0.4,2.3,0.6,3.4,0.6c2.8,0,5.5-1.1,7.5-3.1c2.7-2.7,3.8-6.6,2.8-10.3
						c0.8-0.8,2.6-2.4,5-3.6c4.2-2,8.1-1.5,11.8,1.4c4.1,3.3,5.5,8.3,4.1,15c-1,5.6-3.8,10.9-5.1,13.4l-0.1,0.2
						c-2.5,4.7-5.3,9-9.1,9c-2.2,0-3.4-0.7-4.5-1.4c-0.9-0.6-1.9-1.2-3.3-1.2l0,0c-1.4,0-2.4,0.6-3.3,1.2c-1.1,0.7-2.2,1.4-4.5,1.4
						C43.4,71.8,40.6,67.4,38.1,62.7 M51.8,44.9c-2.1,2.1-5.1,2.9-8,2.2c-0.7-2.9,0.1-5.9,2.2-8c1.8-1.8,4.2-2.6,6.6-2.4L47,42.2
						c-0.5,0.5-0.5,1.2,0,1.6c0.2,0.2,0.5,0.3,0.8,0.3s0.6-0.1,0.8-0.3l5.6-5.6C54.5,40.7,53.6,43.1,51.8,44.9 M80.5,71.8H68.3
						c2.2-1.9,3.9-4.9,5.6-8l0.1-0.2c1.4-2.6,4.3-8.1,5.5-14c0.7-3.4,0.7-6.5,0.1-9.2c-0.7-3.3-2.5-6-5.1-8.1
						C69,27.9,63.7,29,60.2,30.6c-1.6,0.8-3,1.7-4,2.6c0.2-2.5,1.3-4.7,3.1-6.5c0.5-0.5,0.5-1.2,0-1.6c-0.5-0.5-1.2-0.5-1.6,0
						c-2.2,2.2-3.6,5.1-3.8,8.2c-1-0.9-2.4-1.9-4.1-2.7c-3.5-1.6-8.8-2.7-14.3,1.7c-2.7,2.1-4.4,4.8-5.1,8.1
						c-0.6,2.7-0.6,5.8,0.1,9.2c1.2,6,4.1,11.4,5.5,14l0.1,0.2c1.6,3.1,3.4,6,5.6,8h-7.1c-3.5,0-6.3,2.8-6.3,6.3s2.8,6.3,6.3,6.3
						h45.9c0.6,0,1.2-0.5,1.2-1.2V72.9C81.6,72.3,81.1,71.8,80.5,71.8"/>
				</g>
			</g>
		</g>
	</g>
	<g class="st4">
		<g>
			<g>
				<g>
					<defs>
						<rect id="SVGID_39_" x="28.2" y="24.7" width="53.4" height="59.7"/>
					</defs>
					<clipPath id="SVGID_40_">
						<use xlink:href="#SVGID_39_"  style="overflow:visible;"/>
					</clipPath>
					<path class="st40" d="M37.3,76.9c-0.3,0-0.6,0.1-0.8,0.3c-0.2,0.2-0.3,0.5-0.3,0.8s0.1,0.6,0.3,0.8c0.2,0.2,0.5,0.3,0.8,0.3
						s0.6-0.1,0.8-0.3c0.2-0.2,0.3-0.5,0.3-0.8s-0.1-0.6-0.3-0.8C37.9,77,37.6,76.9,37.3,76.9"/>
				</g>
			</g>
		</g>
	</g>
	<g class="st4">
		<g>
			<g>
				<g>
					<defs>
						<rect id="SVGID_41_" x="28.2" y="24.7" width="53.4" height="59.7"/>
					</defs>
					<clipPath id="SVGID_42_">
						<use xlink:href="#SVGID_41_"  style="overflow:visible;"/>
					</clipPath>
					<path class="st41" d="M72.6,49.4c0.1,0,0.2,0,0.2,0c0.5,0,1-0.4,1.1-0.9l0,0c0.1-0.6-0.3-1.2-0.9-1.4c-0.6-0.1-1.2,0.3-1.4,0.9
						l0,0C71.6,48.7,72,49.3,72.6,49.4"/>
				</g>
			</g>
		</g>
	</g>
	<g class="st4">
		<g>
			<g>
				<g>
					<defs>
						<rect id="SVGID_43_" x="28.2" y="24.7" width="53.4" height="59.7"/>
					</defs>
					<clipPath id="SVGID_44_">
						<use xlink:href="#SVGID_43_"  style="overflow:visible;"/>
					</clipPath>
					<path class="st42" d="M67.3,61.7c0.2,0.1,0.4,0.1,0.5,0.1c0.4,0,0.8-0.2,1-0.6L69,61c0.9-1.6,2.3-4.3,3.5-7.5
						c0.2-0.6-0.1-1.3-0.7-1.5s-1.3,0.1-1.5,0.7c-1.1,3-2.5,5.7-3.4,7.3l-0.1,0.2C66.6,60.7,66.8,61.4,67.3,61.7"/>
				</g>
			</g>
		</g>
	</g>
</g>
<g class="st0">
	<g class="st4">
		<g>
			<g>
				<defs>
					<rect id="SVGID_45_" x="26.5" y="25.5" width="57.1" height="57.1"/>
				</defs>
				<clipPath id="SVGID_46_">
					<use xlink:href="#SVGID_45_"  style="overflow:visible;"/>
				</clipPath>
				<path class="st43" d="M43.3,35.1h-6.5c-0.9,0-1.7,0.8-1.7,1.7v43c0,0.9,0.7,1.7,1.7,1.7h6.5c0.9,0,1.7-0.8,1.7-1.7v-43
					C45,35.8,44.2,35.1,43.3,35.1"/>
			</g>
		</g>
	</g>
	<rect x="35.2" y="44.3" class="st7" width="9.8" height="27.8"/>
	<g class="st4">
		<g>
			<g>
				<defs>
					<rect id="SVGID_47_" x="26.5" y="25.5" width="57.1" height="57.1"/>
				</defs>
				<clipPath id="SVGID_48_">
					<use xlink:href="#SVGID_47_"  style="overflow:visible;"/>
				</clipPath>
				<path class="st44" d="M55.8,40h-3.4c-0.9,0-1.6,0.7-1.6,1.6v38.2c0,0.9,0.7,1.6,1.6,1.6h3.4c0.9,0,1.6-0.7,1.6-1.6V41.6
					C57.4,40.7,56.7,40,55.8,40"/>
			</g>
		</g>
	</g>
	<rect x="45" y="53.4" class="st18" width="12.5" height="14.6"/>
	<g class="st4">
		<g>
			<g>
				<defs>
					<rect id="SVGID_49_" x="26.5" y="25.5" width="57.1" height="57.1"/>
				</defs>
				<clipPath id="SVGID_50_">
					<use xlink:href="#SVGID_49_"  style="overflow:visible;"/>
				</clipPath>
				<path class="st45" d="M80.2,81.4h-8c-1.2,0-2.2-1-2.2-2.2v-37c0-1.2,1-2.2,2.2-2.2h8c1.2,0,2.2,1,2.2,2.2v37
					C82.4,80.4,81.4,81.4,80.2,81.4"/>
			</g>
		</g>
	</g>
	<rect x="76.2" y="45.5" class="st46" width="6.2" height="30.3"/>
	<g class="st4">
		<g>
			<g>
				<defs>
					<rect id="SVGID_51_" x="26.5" y="25.5" width="57.1" height="57.1"/>
				</defs>
				<clipPath id="SVGID_52_">
					<use xlink:href="#SVGID_51_"  style="overflow:visible;"/>
				</clipPath>
				<path class="st47" d="M67.7,81.4h-8c-1.2,0-2.2-1-2.2-2.2V28.8c0-1.2,1-2.2,2.2-2.2h8c1.2,0,2.2,1,2.2,2.2v50.4
					C69.9,80.4,68.9,81.4,67.7,81.4"/>
			</g>
		</g>
	</g>
	<rect x="63.2" y="33.6" class="st48" width="6.7" height="40.9"/>
	<g class="st4">
		<g>
			<g>
				<defs>
					<rect id="SVGID_53_" x="26.5" y="25.5" width="57.1" height="57.1"/>
				</defs>
				<clipPath id="SVGID_54_">
					<use xlink:href="#SVGID_53_"  style="overflow:visible;"/>
				</clipPath>
				<path class="st49" d="M39.8,45.5L39.8,45.5c0.7,0,1.2-0.5,1.2-1.1s-0.5-1.1-1.1-1.1h-0.1c-0.6,0-1.1,0.5-1.1,1.1
					S39.2,45.5,39.8,45.5"/>
			</g>
		</g>
		<g>
			<g>
				<defs>
					<rect id="SVGID_55_" x="26.5" y="25.5" width="57.1" height="57.1"/>
				</defs>
				<clipPath id="SVGID_56_">
					<use xlink:href="#SVGID_55_"  style="overflow:visible;"/>
				</clipPath>
				<path class="st50" d="M73.9,53.3c-0.6,0-1.1,0.5-1.1,1.1v12.5c0,0.6,0.5,1.1,1.1,1.1s1.1-0.5,1.1-1.1V54.4
					C75.1,53.8,74.6,53.3,73.9,53.3"/>
			</g>
		</g>
		<g>
			<g>
				<defs>
					<rect id="SVGID_57_" x="26.5" y="25.5" width="57.1" height="57.1"/>
				</defs>
				<clipPath id="SVGID_58_">
					<use xlink:href="#SVGID_57_"  style="overflow:visible;"/>
				</clipPath>
				<path class="st51" d="M78.4,53.3c-0.6,0-1.1,0.5-1.1,1.1v12.5c0,0.6,0.5,1.1,1.1,1.1s1.1-0.5,1.1-1.1V54.4
					C79.5,53.8,79,53.3,78.4,53.3"/>
			</g>
		</g>
		<g>
			<g>
				<defs>
					<rect id="SVGID_59_" x="26.5" y="25.5" width="57.1" height="57.1"/>
				</defs>
				<clipPath id="SVGID_60_">
					<use xlink:href="#SVGID_59_"  style="overflow:visible;"/>
				</clipPath>
				<path class="st52" d="M80.2,80.3h-8c-0.6,0-1.1-0.5-1.1-1.1V77h10.3v2.2C81.3,79.8,80.8,80.3,80.2,80.3 M67.7,80.3h-8
					c-0.6,0-1.1-0.5-1.1-1.1v-3.6h10.3v0.3l0,0v3.3C68.8,79.8,68.3,80.3,67.7,80.3 M55.2,80.3h-8c-0.6,0-1.1-0.5-1.1-1.1V69.1h10.3
					v10.1C56.3,79.8,55.8,80.3,55.2,80.3 M42.7,80.3H29.8c-0.6,0-1.1-0.5-1.1-1.1v-5.9h15.2v5.9C43.9,79.8,43.4,80.3,42.7,80.3
					 M29.8,36.2h12.9c0.6,0,1.1,0.5,1.1,1.1V71H28.7V45.5h6.6c0.6,0,1.1-0.5,1.1-1.1s-0.5-1.1-1.1-1.1h-6.6v-5.9
					C28.7,36.7,29.2,36.2,29.8,36.2 M47.2,41.1h8c0.6,0,1.1,0.5,1.1,1.1v10.1H46.1V42.2C46.1,41.6,46.6,41.1,47.2,41.1 M59.7,27.7h8
					c0.6,0,1.1,0.5,1.1,1.1v3.6H58.6v-3.6C58.6,28.2,59.1,27.7,59.7,27.7 M72.2,41.1h8c0.6,0,1.1,0.5,1.1,1.1v2.2H71v-2.2
					C71,41.6,71.5,41.1,72.2,41.1 M71,46.6h10.3v28.1H71V46.6z M58.6,34.7h10.3v38.7H58.6V34.7z M46.1,54.5h10.3v12.3H46.1V54.5z
					 M80.2,38.8h-8c-0.4,0-0.8,0.1-1.1,0.2V28.8c0-1.8-1.5-3.3-3.3-3.3h-8c-1.8,0-3.3,1.5-3.3,3.3V39c-0.3-0.1-0.7-0.2-1.1-0.2h-8
					c-0.4,0-0.8,0.1-1.1,0.2v-1.8c0-1.8-1.5-3.3-3.3-3.3H29.8c-1.8,0-3.3,1.5-3.3,3.3v41.9c0,1.8,1.5,3.3,3.3,3.3h12.9
					c0.9,0,1.6-0.3,2.2-0.9c0.6,0.5,1.4,0.9,2.2,0.9h8c0.9,0,1.6-0.3,2.2-0.9c0.6,0.5,1.4,0.9,2.2,0.9h8c0.9,0,1.6-0.3,2.2-0.9
					c0.6,0.5,1.4,0.9,2.2,0.9h8c1.8,0,3.3-1.5,3.3-3.3v-37C83.5,40.3,82,38.8,80.2,38.8"/>
			</g>
		</g>
		<g>
			<g>
				<defs>
					<rect id="SVGID_61_" x="26.5" y="25.5" width="57.1" height="57.1"/>
				</defs>
				<clipPath id="SVGID_62_">
					<use xlink:href="#SVGID_61_"  style="overflow:visible;"/>
				</clipPath>
				<path class="st53" d="M63.7,47c-0.6,0-1.1,0.5-1.1,1.1V57c0,0.6,0.5,1.1,1.1,1.1c0.6,0,1.1-0.5,1.1-1.1v-8.9
					C64.8,47.5,64.3,47,63.7,47"/>
			</g>
		</g>
		<g>
			<g>
				<defs>
					<rect id="SVGID_63_" x="26.5" y="25.5" width="57.1" height="57.1"/>
				</defs>
				<clipPath id="SVGID_64_">
					<use xlink:href="#SVGID_63_"  style="overflow:visible;"/>
				</clipPath>
				<path class="st54" d="M63.7,60.7c-0.3,0-0.6,0.1-0.8,0.3s-0.3,0.5-0.3,0.8s0.1,0.6,0.3,0.8s0.5,0.3,0.8,0.3s0.6-0.1,0.8-0.3
					s0.3-0.5,0.3-0.8s-0.1-0.6-0.3-0.8C64.3,60.8,64,60.7,63.7,60.7"/>
			</g>
		</g>
	</g>
</g>
<g class="st0">
	<g class="st4">
		<g>
			<defs>
				<rect id="SVGID_65_" x="9.4" y="9.8" width="91.1" height="90"/>
			</defs>
			<clipPath id="SVGID_66_">
				<use xlink:href="#SVGID_65_"  style="overflow:visible;"/>
			</clipPath>
			<path class="st55" d="M54.9,99.8c25.2,0,45.6-20.1,45.6-45s-20.4-45-45.6-45S9.4,30,9.4,54.8S29.8,99.8,54.9,99.8"/>
		</g>
	</g>
</g>
<g class="st0">
	<g class="st4">
		<g>
			<defs>
				<path id="SVGID_67_" d="M54.9,9.8C29.8,9.8,9.4,30,9.4,54.8s20.4,45,45.6,45s45.6-20.1,45.6-45S80.1,9.8,54.9,9.8z"/>
			</defs>
			<clipPath id="SVGID_68_">
				<use xlink:href="#SVGID_67_"  style="overflow:visible;"/>
			</clipPath>
			<path class="st56" d="M79.9,45.2c-4.4,1.6-7.5,5.7-7.5,10.4v15.8h15.1V55.6C87.5,50.8,84.3,46.7,79.9,45.2"/>
		</g>
	</g>
	<g class="st4">
		<g>
			<defs>
				<path id="SVGID_69_" d="M54.9,9.8C29.8,9.8,9.4,30,9.4,54.8s20.4,45,45.6,45s45.6-20.1,45.6-45S80.1,9.8,54.9,9.8z"/>
			</defs>
			<clipPath id="SVGID_70_">
				<use xlink:href="#SVGID_69_"  style="overflow:visible;"/>
			</clipPath>
			<rect x="61.5" y="81.7" class="st57" width="34.9" height="16.5"/>
		</g>
	</g>
	<g class="st4">
		<g>
			<defs>
				<path id="SVGID_71_" d="M54.9,9.8C29.8,9.8,9.4,30,9.4,54.8s20.4,45,45.6,45s45.6-20.1,45.6-45S80.1,9.8,54.9,9.8z"/>
			</defs>
			<clipPath id="SVGID_72_">
				<use xlink:href="#SVGID_71_"  style="overflow:visible;"/>
			</clipPath>
			<path class="st58" d="M62.9,29.3H45.2c-2.3,0-4.1,1.8-4.2,4h12.8c2.3,0,4.2,1.9,4.2,4.1v6.3c0,0.4-0.1,0.8-0.2,1.1l3.6,3.5v-4.5
				h1.5c2.3,0,4.2-1.9,4.2-4.1v-6.3C67.1,31.2,65.3,29.3,62.9,29.3"/>
		</g>
	</g>
	<g class="st4">
		<g>
			<defs>
				<path id="SVGID_73_" d="M54.9,9.8C29.8,9.8,9.4,30,9.4,54.8s20.4,45,45.6,45s45.6-20.1,45.6-45S80.1,9.8,54.9,9.8z"/>
			</defs>
			<clipPath id="SVGID_74_">
				<use xlink:href="#SVGID_73_"  style="overflow:visible;"/>
			</clipPath>
			<path class="st59" d="M52.1,85l-3.7-0.7c-0.3-0.1-0.6-0.1-0.8-0.3c-0.3,0.1-0.5,0.2-0.8,0.3L43,85c-3.6,0.7-6.2,3.8-6.2,7.4v5.9
				h21.6v-5.9C58.3,88.7,55.7,85.6,52.1,85"/>
		</g>
	</g>
	<g class="st4">
		<g>
			<defs>
				<path id="SVGID_75_" d="M54.9,9.8C29.8,9.8,9.4,30,9.4,54.8s20.4,45,45.6,45s45.6-20.1,45.6-45S80.1,9.8,54.9,9.8z"/>
			</defs>
			<clipPath id="SVGID_76_">
				<use xlink:href="#SVGID_75_"  style="overflow:visible;"/>
			</clipPath>
			<path class="st60" d="M42.4,85.1l4.7-1.3c-0.9-0.6-1.4-1.5-1.4-2.6v-0.1H39v0.1c0,1.1-0.5,2-1.4,2.6L42.4,85.1z"/>
		</g>
	</g>
	<g class="st4">
		<g>
			<defs>
				<path id="SVGID_77_" d="M54.9,9.8C29.8,9.8,9.4,30,9.4,54.8s20.4,45,45.6,45s45.6-20.1,45.6-45S80.1,9.8,54.9,9.8z"/>
			</defs>
			<clipPath id="SVGID_78_">
				<use xlink:href="#SVGID_77_"  style="overflow:visible;"/>
			</clipPath>
			<path class="st61" d="M84.5,70.4l-3.3-0.6c-0.7-0.1-1.3-0.5-1.7-1.1c-0.4,0.5-1,0.9-1.7,1.1l-3.3,0.6c-3.2,0.6-5.6,3.4-5.6,6.6
				v4.7h21.2V77C90.1,73.8,87.8,71,84.5,70.4"/>
		</g>
	</g>
	<g class="st4">
		<g>
			<defs>
				<path id="SVGID_79_" d="M54.9,9.8C29.8,9.8,9.4,30,9.4,54.8s20.4,45,45.6,45s45.6-20.1,45.6-45S80.1,9.8,54.9,9.8z"/>
			</defs>
			<clipPath id="SVGID_80_">
				<use xlink:href="#SVGID_79_"  style="overflow:visible;"/>
			</clipPath>
			<path class="st62" d="M75.9,76.1l4.8-6.5c-1.1-0.4-1.8-1.4-1.8-2.6v-0.7h-6V67c0,1.2-0.7,2.2-1.8,2.6L75.9,76.1z"/>
		</g>
	</g>
	<g class="st4">
		<g>
			<defs>
				<path id="SVGID_81_" d="M54.9,9.8C29.8,9.8,9.4,30,9.4,54.8s20.4,45,45.6,45s45.6-20.1,45.6-45S80.1,9.8,54.9,9.8z"/>
			</defs>
			<clipPath id="SVGID_82_">
				<use xlink:href="#SVGID_81_"  style="overflow:visible;"/>
			</clipPath>
			<path class="st63" d="M72.4,56.9v-1.7h-0.2h-3.6v4.5c0,4,3.3,7.3,7.4,7.3c1.6,0,3.1-0.5,4.3-1.3C75.8,65.1,72.4,61.4,72.4,56.9"
				/>
		</g>
	</g>
	<g class="st4">
		<g>
			<defs>
				<path id="SVGID_83_" d="M54.9,9.8C29.8,9.8,9.4,30,9.4,54.8s20.4,45,45.6,45s45.6-20.1,45.6-45S80.1,9.8,54.9,9.8z"/>
			</defs>
			<clipPath id="SVGID_84_">
				<use xlink:href="#SVGID_83_"  style="overflow:visible;"/>
			</clipPath>
			<path class="st64" d="M83.3,59.7v-4.5l-4.9-2.9c-1.5,1.8-3.7,2.8-6,2.9v1.7c0,4.5,3.4,8.2,7.8,8.7C82.1,64.4,83.3,62.2,83.3,59.7
				"/>
		</g>
	</g>
	<g class="st4">
		<g>
			<defs>
				<path id="SVGID_85_" d="M54.9,9.8C29.8,9.8,9.4,30,9.4,54.8s20.4,45,45.6,45s45.6-20.1,45.6-45S80.1,9.8,54.9,9.8z"/>
			</defs>
			<clipPath id="SVGID_86_">
				<use xlink:href="#SVGID_85_"  style="overflow:visible;"/>
			</clipPath>
			<path class="st65" d="M52.7,48.7V41c0-2.3-1.9-4.1-4.2-4.1H38c-2.3,0-4.2,1.9-4.2,4.1v7.7c0,2.3,1.9,4.1,4.2,4.1h0.5h1h6.2h2.8
				C50.8,52.9,52.7,51,52.7,48.7"/>
		</g>
	</g>
	<g class="st4">
		<g>
			<defs>
				<path id="SVGID_87_" d="M54.9,9.8C29.8,9.8,9.4,30,9.4,54.8s20.4,45,45.6,45s45.6-20.1,45.6-45S80.1,9.8,54.9,9.8z"/>
			</defs>
			<clipPath id="SVGID_88_">
				<use xlink:href="#SVGID_87_"  style="overflow:visible;"/>
			</clipPath>
			<path class="st66" d="M45.6,60c-3,1.2-5.1,4.1-5.1,7.5V73c0,3.4,2.1,6.3,5.1,7.5c3-1.2,5.1-4.1,5.1-7.5v-5.4
				C50.7,64.2,48.6,61.3,45.6,60"/>
		</g>
	</g>
	<g class="st4">
		<g>
			<defs>
				<path id="SVGID_89_" d="M54.9,9.8C29.8,9.8,9.4,30,9.4,54.8s20.4,45,45.6,45s45.6-20.1,45.6-45S80.1,9.8,54.9,9.8z"/>
			</defs>
			<clipPath id="SVGID_90_">
				<use xlink:href="#SVGID_89_"  style="overflow:visible;"/>
			</clipPath>
			<path class="st67" d="M28,94.6h9.7c0.8,0,1.4-0.6,1.4-1.4s-0.6-1.4-1.4-1.4H28c0.2-2.7,2.3-5,5-5.5l3.7-0.7
				c0.4-0.1,0.8-0.2,1.1-0.4l4.2,1.2c0.1,0,0.3,0.1,0.4,0.1c0.1,0,0.3,0,0.4-0.1l4.2-1.2c0.3,0.2,0.7,0.3,1.1,0.4l3.7,0.7
				c2.9,0.5,5.1,3.1,5.1,6v4.5H28V94.6z M42.4,82.5c0.7,0,1.4-0.1,2.1-0.2c0.1,0.3,0.1,0.5,0.3,0.7l-2.3,0.7L40.1,83
				c0.1-0.2,0.2-0.5,0.3-0.7C41,82.4,41.7,82.5,42.4,82.5 M35.6,73v-5.4c0-3.7,3.1-6.7,6.8-6.7c3.8,0,6.8,3,6.8,6.7V73
				c0,3.7-3,6.7-6.8,6.7C38.7,79.7,35.6,76.7,35.6,73 M86.4,80.3h-21h-2.3V77c0-2.6,1.9-4.8,4.4-5.2l3-0.5l4.3,5.7
				c0.3,0.4,0.7,0.6,1.1,0.6c0.5,0,0.9-0.2,1.1-0.6l4.3-5.7l3,0.5c2.6,0.5,4.4,2.7,4.4,5.2v3.3H86.4z M74.2,68.2
				c0.6,0.1,1.2,0.2,1.8,0.2c0.6,0,1.2-0.1,1.8-0.2c0.2,0.7,0.6,1.3,1,1.8L76,73.8L73.1,70C73.6,69.5,74,68.9,74.2,68.2 M78.7,64.9
				c-0.2,0-0.5,0.1-0.7,0.3c-0.7,0.2-1.4,0.4-2.1,0.4s-1.4-0.1-2.1-0.4c-0.2-0.2-0.4-0.3-0.7-0.3c-1.9-1-3.2-3-3.2-5.2v-3.1h2.2
				c2.4,0,4.7-0.9,6.5-2.5l3.3,1.9v3.7C81.9,62,80.6,64,78.7,64.9 M65.8,55.6c0-5.4,4.5-9.7,10.1-9.7S86,50.3,86,55.6v13.7
				c-0.4-0.1-0.8-0.2-1.2-0.3l-3.3-0.6c-0.6-0.1-1.1-0.6-1.1-1.2c2.6-1.5,4.4-4.3,4.4-7.5v-4.5c0-0.5-0.3-1-0.7-1.2l-4.9-2.9
				c-0.6-0.4-1.4-0.2-1.8,0.3c-1.3,1.5-3.1,2.4-5.1,2.4h-3.6c-0.8,0-1.4,0.6-1.4,1.4v4.5c0,3.2,1.8,6,4.4,7.5
				c-0.1,0.6-0.5,1.1-1.1,1.2L67.1,69c-0.4,0.1-0.8,0.2-1.2,0.3L65.8,55.6z M96.4,80.3h-4.8V77c0-2.3-1-4.5-2.7-6V55.6
				c0-6.9-5.8-12.5-12.9-12.5s-12.9,5.6-12.9,12.5V71c-1.7,1.5-2.7,3.6-2.7,6v3.3h-2.9c-0.8,0-1.4,0.6-1.4,1.4s0.6,1.4,1.4,1.4h4.3
				H64h23.8h2.3h4.8v13.7H59.8v-4.5c0-4.3-3.1-8-7.4-8.8l-3.7-0.7c-0.2,0-0.3-0.1-0.5-0.2c-0.1-0.1-0.2-0.1-0.3-0.2
				c-0.4-0.3-0.6-0.8-0.6-1.3c2.9-1.6,4.9-4.7,4.9-8.3v-5.4c0-5.3-4.3-9.5-9.6-9.5S33,62.2,33,67.4V73c0,3.5,2,6.6,4.9,8.3
				c0,0.5-0.3,1-0.6,1.3c-0.1,0.1-0.2,0.1-0.3,0.2c-0.2,0.1-0.3,0.1-0.5,0.2l-3.7,0.7c-4.3,0.8-7.4,4.5-7.4,8.8v5.9
				c0,0.8,0.6,1.4,1.4,1.4h31.8h38c0.8,0,1.4-0.6,1.4-1.4V81.7C97.8,81,97.1,80.3,96.4,80.3"/>
		</g>
	</g>
	<g class="st4">
		<g>
			<defs>
				<path id="SVGID_91_" d="M54.9,9.8C29.8,9.8,9.4,30,9.4,54.8s20.4,45,45.6,45s45.6-20.1,45.6-45S80.1,9.8,54.9,9.8z"/>
			</defs>
			<clipPath id="SVGID_92_">
				<use xlink:href="#SVGID_91_"  style="overflow:visible;"/>
			</clipPath>
			<path class="st68" d="M28,41c0-1.5,1.2-2.7,2.8-2.7h17.7c1.5,0,2.8,1.2,2.8,2.7v7.7c0,1.5-1.2,2.7-2.8,2.7h-10
				c-0.4,0-0.7,0.2-1,0.4l-3.8,3.7v-2.7c0-0.8-0.6-1.4-1.4-1.4h-1.5c-1.5,0-2.8-1.2-2.8-2.7V41z M42.4,33.4c0-1.5,1.2-2.7,2.8-2.7
				H63c1.5,0,2.8,1.2,2.8,2.7v6.3c0,1.5-1.2,2.7-2.8,2.7h-1.5c-0.8,0-1.4,0.6-1.4,1.4V45l-2.2-2.1c-0.3-0.3-0.6-0.4-1-0.4h-2.8V41
				c0-3.1-2.5-5.5-5.6-5.5h-6v-2.1H42.4z M25.1,48.7c0,3.1,2.5,5.5,5.6,5.5h0.1V59c0,0.6,0.3,1.1,0.9,1.3c0.2,0.1,0.4,0.1,0.5,0.1
				c0.4,0,0.7-0.1,1-0.4l5.8-5.7h9.4c3.1,0,5.6-2.5,5.6-5.5v-3.4h2.2l4.2,4.1c0.3,0.3,0.6,0.4,1,0.4c0.2,0,0.4,0,0.5-0.1
				c0.5-0.2,0.9-0.7,0.9-1.3v-3.1H63c3.1,0,5.6-2.5,5.6-5.5v-6.3c0-3.1-2.5-5.5-5.6-5.5H45.2c-3.1,0-5.6,2.5-5.6,5.5v2h-8.9
				c-3.1,0-5.6,2.5-5.6,5.5C25.1,41.1,25.1,48.7,25.1,48.7z"/>
		</g>
	</g>
	<g class="st4">
		<g>
			<defs>
				<path id="SVGID_93_" d="M54.9,9.8C29.8,9.8,9.4,30,9.4,54.8s20.4,45,45.6,45s45.6-20.1,45.6-45S80.1,9.8,54.9,9.8z"/>
			</defs>
			<clipPath id="SVGID_94_">
				<use xlink:href="#SVGID_93_"  style="overflow:visible;"/>
			</clipPath>
			<path class="st69" d="M73.9,60c0.1-0.1,0.1-0.2,0.1-0.2c0-0.1,0.1-0.2,0.1-0.3s0-0.2,0-0.3s0-0.2,0-0.3s0-0.2-0.1-0.3
				c0-0.1-0.1-0.2-0.1-0.2c-0.1-0.1-0.1-0.2-0.2-0.2c-0.1-0.1-0.1-0.1-0.2-0.2c-0.1-0.1-0.2-0.1-0.2-0.1c-0.1,0-0.2-0.1-0.3-0.1
				c-0.2,0-0.4,0-0.6,0c-0.1,0-0.2,0-0.3,0.1c0,0.1-0.1,0.1-0.1,0.2c-0.1,0.1-0.2,0.1-0.2,0.2c-0.1,0.1-0.1,0.1-0.2,0.2
				c-0.1,0.1-0.1,0.2-0.1,0.2c0,0.1-0.1,0.2-0.1,0.3s0,0.2,0,0.3s0,0.2,0,0.3s0,0.2,0.1,0.3c0,0.1,0.1,0.2,0.1,0.2
				c0.1,0.1,0.1,0.2,0.2,0.2c0.1,0.1,0.1,0.1,0.2,0.2c0.1,0.1,0.2,0.1,0.2,0.1c0.1,0,0.2,0.1,0.3,0.1c0.1,0,0.2,0,0.3,0
				c0.4,0,0.7-0.2,1-0.4C73.8,60.2,73.9,60.1,73.9,60"/>
		</g>
	</g>
	<g class="st4">
		<g>
			<defs>
				<path id="SVGID_95_" d="M54.9,9.8C29.8,9.8,9.4,30,9.4,54.8s20.4,45,45.6,45s45.6-20.1,45.6-45S80.1,9.8,54.9,9.8z"/>
			</defs>
			<clipPath id="SVGID_96_">
				<use xlink:href="#SVGID_95_"  style="overflow:visible;"/>
			</clipPath>
			<path class="st70" d="M80.4,58.7c0-0.1-0.1-0.2-0.1-0.2c-0.1-0.1-0.1-0.2-0.2-0.2c-0.3-0.3-0.8-0.5-1.3-0.4c-0.1,0-0.2,0-0.3,0.1
				c-0.1,0-0.2,0.1-0.2,0.1c-0.1,0.1-0.2,0.1-0.2,0.2c-0.1,0.1-0.1,0.1-0.2,0.2c-0.1,0.1-0.1,0.2-0.1,0.2c0,0.1-0.1,0.2-0.1,0.3
				s0,0.2,0,0.3s0,0.2,0,0.3s0,0.2,0.1,0.3c0,0.1,0.1,0.2,0.1,0.2c0.1,0.1,0.1,0.2,0.2,0.2c0.1,0.1,0.1,0.1,0.2,0.2
				c0.1,0.1,0.2,0.1,0.2,0.1c0.1,0,0.2,0.1,0.3,0.1c0.1,0,0.2,0,0.3,0c0.4,0,0.7-0.2,1-0.4c0.1-0.1,0.1-0.1,0.2-0.2
				c0.1-0.1,0.1-0.2,0.1-0.2c0-0.1,0.1-0.2,0.1-0.3s0-0.2,0-0.3s0-0.2,0-0.3C80.5,58.9,80.5,58.8,80.4,58.7"/>
		</g>
	</g>
	<g class="st4">
		<g>
			<defs>
				<path id="SVGID_97_" d="M54.9,9.8C29.8,9.8,9.4,30,9.4,54.8s20.4,45,45.6,45s45.6-20.1,45.6-45S80.1,9.8,54.9,9.8z"/>
			</defs>
			<clipPath id="SVGID_98_">
				<use xlink:href="#SVGID_97_"  style="overflow:visible;"/>
			</clipPath>
			<path class="st71" d="M76.1,61.4c-0.1,0.1-0.3,0.1-0.4,0c-0.6-0.5-1.4-0.5-2,0s-0.6,1.4,0,2s1.4,0.9,2.2,0.9s1.6-0.3,2.2-0.9
				c0.6-0.5,0.6-1.4,0-2C77.6,60.9,76.7,60.9,76.1,61.4"/>
		</g>
	</g>
	<g class="st4">
		<g>
			<defs>
				<path id="SVGID_99_" d="M54.9,9.8C29.8,9.8,9.4,30,9.4,54.8s20.4,45,45.6,45s45.6-20.1,45.6-45S80.1,9.8,54.9,9.8z"/>
			</defs>
			<clipPath id="SVGID_100_">
				<use xlink:href="#SVGID_99_"  style="overflow:visible;"/>
			</clipPath>
			<path class="st72" d="M32.2,43.8h11.1c0.8,0,1.4-0.6,1.4-1.4c0-0.8-0.6-1.4-1.4-1.4H32.2c-0.8,0-1.4,0.6-1.4,1.4
				C30.8,43.1,31.4,43.8,32.2,43.8"/>
		</g>
	</g>
	<g class="st4">
		<g>
			<defs>
				<path id="SVGID_101_" d="M54.9,9.8C29.8,9.8,9.4,30,9.4,54.8s20.4,45,45.6,45s45.6-20.1,45.6-45S80.1,9.8,54.9,9.8z"/>
			</defs>
			<clipPath id="SVGID_102_">
				<use xlink:href="#SVGID_101_"  style="overflow:visible;"/>
			</clipPath>
			<path class="st73" d="M45.5,47.9c0,0.1,0.1,0.2,0.1,0.2c0.1,0.1,0.1,0.2,0.2,0.2c0.1,0.1,0.1,0.1,0.2,0.2
				c0.1,0.1,0.2,0.1,0.2,0.1c0.1,0,0.2,0.1,0.3,0.1s0.2,0,0.3,0s0.2,0,0.3,0s0.2,0,0.3-0.1c0.1,0,0.2-0.1,0.2-0.1
				c0.1-0.1,0.2-0.1,0.2-0.2c0.1-0.1,0.1-0.1,0.2-0.2c0.1-0.1,0.1-0.2,0.1-0.2c0-0.1,0.1-0.2,0.1-0.3s0-0.2,0-0.3s0-0.2,0-0.3
				s0-0.2-0.1-0.3c0-0.1-0.1-0.2-0.1-0.2c-0.1-0.1-0.1-0.2-0.2-0.2c-0.3-0.3-0.6-0.4-1-0.4s-0.7,0.2-1,0.4c-0.1,0.1-0.1,0.1-0.2,0.2
				c-0.1,0.1-0.1,0.2-0.1,0.2c0,0.1-0.1,0.2-0.1,0.3s0,0.2,0,0.3s0,0.2,0,0.3C45.5,47.8,45.5,47.8,45.5,47.9"/>
		</g>
	</g>
	<g class="st4">
		<g>
			<defs>
				<path id="SVGID_103_" d="M54.9,9.8C29.8,9.8,9.4,30,9.4,54.8s20.4,45,45.6,45s45.6-20.1,45.6-45S80.1,9.8,54.9,9.8z"/>
			</defs>
			<clipPath id="SVGID_104_">
				<use xlink:href="#SVGID_103_"  style="overflow:visible;"/>
			</clipPath>
			<path class="st74" d="M32.2,48.8h9.4c0.8,0,1.4-0.6,1.4-1.4c0-0.8-0.6-1.4-1.4-1.4h-9.4c-0.8,0-1.4,0.6-1.4,1.4
				C30.8,48.2,31.4,48.8,32.2,48.8"/>
		</g>
	</g>
	<g class="st4">
		<g>
			<defs>
				<path id="SVGID_105_" d="M54.9,9.8C29.8,9.8,9.4,30,9.4,54.8s20.4,45,45.6,45s45.6-20.1,45.6-45S80.1,9.8,54.9,9.8z"/>
			</defs>
			<clipPath id="SVGID_106_">
				<use xlink:href="#SVGID_105_"  style="overflow:visible;"/>
			</clipPath>
			<path class="st75" d="M43.9,92.7c0-0.1-0.1-0.2-0.1-0.2c-0.1-0.1-0.1-0.2-0.2-0.2c-0.1-0.1-0.1-0.1-0.2-0.2
				c0-0.1-0.1-0.1-0.2-0.1s-0.2-0.1-0.3-0.1c-0.2,0-0.4,0-0.6,0c-0.1,0-0.2,0-0.3,0.1c-0.1,0-0.2,0.1-0.2,0.1
				c-0.1,0.1-0.2,0.1-0.2,0.2c-0.1,0.1-0.1,0.1-0.2,0.2c-0.1,0.1-0.1,0.2-0.1,0.2c0,0.1-0.1,0.2-0.1,0.3c0,0.1,0,0.2,0,0.3
				c0,0.1,0,0.2,0,0.3c0,0.1,0,0.2,0.1,0.3c0,0.1,0.1,0.2,0.1,0.2c0.1,0.1,0.1,0.2,0.2,0.2c0.1,0.1,0.1,0.1,0.2,0.2
				c0.1,0.1,0.2,0.1,0.2,0.1c0.1,0,0.2,0.1,0.3,0.1s0.2,0,0.3,0s0.2,0,0.3,0s0.2,0,0.3-0.1c0.1,0,0.2-0.1,0.2-0.1
				c0.1-0.1,0.2-0.1,0.2-0.2c0.1-0.1,0.1-0.1,0.2-0.2c0.1-0.1,0.1-0.2,0.1-0.2c0-0.1,0.1-0.2,0.1-0.3c0-0.1,0-0.2,0-0.3
				c0-0.1,0-0.2,0-0.3C44,92.9,44,92.8,43.9,92.7"/>
		</g>
	</g>
</g>
<g id="surface1" class="st0">
	<path class="st76" d="M80.8,76.3l1.7-2.2h6.3V62.8h-6.1L81,60.6c-1.4-1.9-3.6-3-6-3h-9.7c-2.2,0-4,1.7-4.1,3.9h-2.9
		c-1.6,0-3,1.2-3.2,2.8c0.4,1.3,1.6,2.2,3,2.2c-1.4,0-2.7,1-3.1,2.3c0,0.7,0,1.3,0,1.9c0.4,1.3,1.6,2.3,3.1,2.3
		c-1.4,0-2.7,1-3.1,2.3c0,0.7,0,1.3,0,1.9c0.4,1.3,1.6,2.3,3.1,2.3h16.7C77.1,79.3,79.3,78.2,80.8,76.3z"/>
	<path class="st15" d="M51.7,66.5c1.5,0,2.8-1.1,3.1-2.5c-0.3-1.4-1.6-2.5-3.1-2.5h-2.9c-0.1-2.2-1.9-3.9-4.1-3.9H35
		c-2.3,0-4.5,1.1-6,3l-1.7,2.2H21v11.3h6.3l1.7,2.2c1.4,1.9,3.6,3,6,3h7.3l0,0h9.4c1.8,0,3.2-1.4,3.2-3.2c0-1.8-1.4-3.2-3.2-3.2
		c1.8,0,3.2-1.4,3.2-3.2C54.9,67.9,53.5,66.5,51.7,66.5z"/>
	<path class="st4" d="M30.1,64.2c2,0,3.9-1.2,4.7-3.1c0.3-0.7,0-1.5-0.7-1.8s-1.5,0-1.8,0.7c-0.4,0.9-1.2,1.4-2.1,1.4h-1
		c-0.8,0-1.4,0.6-1.4,1.4c0,0.8,0.6,1.4,1.4,1.4C29.2,64.2,30.1,64.2,30.1,64.2z"/>
	<path class="st4" d="M88.7,72.8h-6.3c-0.4,0-0.8,0.2-1.1,0.5l-1.7,2.2c-1.1,1.5-3,2.4-4.9,2.4h-3.1c0.2-0.6,0.4-1.2,0.4-1.8
		c0-1.2-0.5-2.4-1.3-3.2c0.8-0.8,1.3-1.9,1.3-3.2c0-1.2-0.5-2.4-1.3-3.2c0.8-0.8,1.3-1.9,1.3-3.2c0-2.4-1.9-4.4-4.2-4.5
		c0.1-0.2,0.2-0.5,0.2-0.7h4.4c0.8,0,1.4-0.6,1.4-1.4s-0.6-1.4-1.4-1.4h-5.6c-0.8,0-1.4,0.6-1.4,1.4c0,1.6-1.3,2.9-2.9,2.9h-0.2
		v-5.7c0-1.5,1.2-2.7,2.7-2.7h9.7c1.9,0,3.7,0.9,4.9,2.4l1.7,2.2c0.3,0.3,0.7,0.5,1.1,0.5h6.3c0.8,0,1.4-0.6,1.4-1.4
		c0-0.8-0.6-1.4-1.4-1.4h-5.6L81.9,52c-1.7-2.2-4.3-3.5-7-3.5h-9.7c-2.5,0-4.6,1.6-5.2,3.9h-1.8c-1.2,0-2.4,0.5-3.2,1.3
		c-0.8-0.8-1.9-1.3-3.2-1.3H50c-0.7-2.3-2.8-3.9-5.2-3.9H35c-2.8,0-5.4,1.3-7,3.5l-1.2,1.6h-5.6c-0.8,0-1.4,0.6-1.4,1.4
		c0,0.8,0.6,1.4,1.4,1.4h6.3c0.4,0,0.8-0.2,1.1-0.5l1.7-2.2c1.1-1.5,3-2.4,4.9-2.4h9.7c1.5,0,2.7,1.2,2.7,2.7v5.7h-0.2
		c-1.6,0-2.9-1.3-2.9-2.9c0-0.8-0.6-1.4-1.4-1.4h-5.6c-0.8,0-1.4,0.6-1.4,1.4s0.6,1.4,1.4,1.4h4.4c0.1,0.2,0.1,0.5,0.2,0.7
		c-2.4,0.2-4.2,2.1-4.2,4.5c0,1.2,0.5,2.4,1.3,3.2c-0.8,0.8-1.3,1.9-1.3,3.2c0,1.2,0.5,2.4,1.3,3.2c-0.8,0.8-1.3,1.9-1.3,3.2
		c0,0.6,0.1,1.3,0.4,1.8H35c-1.9,0-3.7-0.9-4.9-2.4l-1.7-2.2c-0.3-0.3-0.7-0.5-1.1-0.5H21c-0.8,0-1.4,0.6-1.4,1.4s0.6,1.4,1.4,1.4
		h5.6l1.2,1.6c1.7,2.2,4.3,3.5,7,3.5h16.7c1.2,0,2.4-0.5,3.2-1.3c0.8,0.8,1.9,1.3,3.2,1.3h16.7c2.8,0,5.4-1.3,7-3.5l1.2-1.6h5.6
		c0.8,0,1.4-0.6,1.4-1.4S89.5,72.8,88.7,72.8z M40.5,69.7c0-1,0.8-1.8,1.8-1.8h9.4c1,0,1.8,0.8,1.8,1.8s-0.8,1.8-1.8,1.8h-9.4
		C41.3,71.5,40.5,70.7,40.5,69.7z M56.3,69.7c0-1,0.8-1.8,1.8-1.8h9.4c1,0,1.8,0.8,1.8,1.8s-0.8,1.8-1.8,1.8h-9.4
		C57.1,71.5,56.3,70.7,56.3,69.7z M62.6,62.3c1.1,0,2.1-0.3,2.9-0.8h2c1,0,1.8,0.8,1.8,1.8c0,1-0.8,1.8-1.8,1.8h-9.4
		c-1,0-1.8-0.8-1.8-1.8c0-1,0.8-1.8,1.8-1.8h1.7c0.2,0.5,0.7,0.8,1.3,0.8H62.6z M58.1,55.1h1.6v3.6h-1.6c-1,0-1.8-0.8-1.8-1.8
		C56.3,55.9,57.1,55.1,58.1,55.1z M53.6,56.9c0,1-0.8,1.8-1.8,1.8h-1.6v-3.6h1.6C52.7,55.1,53.6,55.9,53.6,56.9z M42.3,61.5h2
		c0.9,0.5,1.9,0.8,2.9,0.8h1.6c0.6,0,1-0.3,1.3-0.8h1.7c1,0,1.8,0.8,1.8,1.8c0,1-0.8,1.8-1.8,1.8h-9.4c-1,0-1.8-0.8-1.8-1.8
		C40.5,62.3,41.3,61.5,42.3,61.5z M51.7,77.9h-9.4c-1,0-1.8-0.8-1.8-1.8s0.8-1.8,1.8-1.8h9.4c1,0,1.8,0.8,1.8,1.8
		C53.6,77.1,52.7,77.9,51.7,77.9z M58.1,77.9c-1,0-1.8-0.8-1.8-1.8s0.8-1.8,1.8-1.8h9.4c1,0,1.8,0.8,1.8,1.8s-0.8,1.8-1.8,1.8H58.1z
		"/>
	<path class="st4" d="M79.8,61.5c-0.9,0-1.8-0.6-2.1-1.4c-0.3-0.7-1.1-1-1.8-0.7c-0.7,0.3-1,1.1-0.7,1.8c0.8,1.9,2.6,3.1,4.7,3.1h1
		c0.8,0,1.4-0.6,1.4-1.4c0-0.8-0.6-1.4-1.4-1.4C80.9,61.5,79.8,61.5,79.8,61.5z"/>
	<path class="st4" d="M54.9,38.4c0.8,0,1.4-0.6,1.4-1.4V26.6c0-0.8-0.6-1.4-1.4-1.4c-0.8,0-1.4,0.6-1.4,1.4V37
		C53.6,37.8,54.2,38.4,54.9,38.4z"/>
	<path class="st4" d="M54.9,40.8c-0.4,0-0.7,0.1-1,0.4c-0.3,0.3-0.4,0.6-0.4,1s0.1,0.7,0.4,1c0.3,0.3,0.6,0.4,1,0.4s0.7-0.1,1-0.4
		c0.3-0.3,0.4-0.6,0.4-1s-0.1-0.7-0.4-1S55.3,40.8,54.9,40.8z"/>
	<path class="st4" d="M43.8,39.8c0.3,0.3,0.6,0.4,1,0.4s0.7-0.1,1-0.4c0.5-0.5,0.5-1.4,0-1.9l-7.2-7.2c-0.5-0.5-1.4-0.5-1.9,0
		s-0.5,1.4,0,1.9L43.8,39.8z"/>
	<path class="st4" d="M65.7,40c0.4,0,0.7-0.1,1-0.4l6.6-6.6c0.5-0.5,0.5-1.4,0-1.9s-1.4-0.5-1.9,0l-6.6,6.6c-0.5,0.5-0.5,1.4,0,1.9
		C65,39.9,65.3,40,65.7,40z"/>
</g>
<g class="st0">
	<path class="st77" d="M47,71.9c-0.2,0.1-0.3,0.1-0.5,0.2c-1.9,0.8-4.4,1.8-9,2.2L31,82.8h0.9c2.4,0,4.6-0.1,6.4-0.3
		c1.9-0.5,3.3-1.1,4.5-1.5c1.4-0.6,2.3-0.9,3.3-0.9c0.5,0,1,0.1,1.3,0.3c0.4-0.1,0.7-0.3,1-0.4c1.4-0.6,1.2,3.5,2.3,3.5
		c1.2,0,3.7-0.6,4.2,0l-0.6-6.3C52.9,74.9,50.4,72.4,47,71.9z"/>
	<path class="st77" d="M72.6,74.5c-1.6-0.7-3.2-1.3-5.2-1.3c-3.9,0-6.6,2.7-8.1,5.2v5.4h0.8c0,0,0.6-1.4,0.6-1.3
		c0.1-0.3,1.1-2.4,3.3-2.4c1,0,1.9,0.3,3.3,0.9c2.8,1.1,7.1,2.8,16.5,2.8h0.9L79,76.4C76,75.9,74.2,75.1,72.6,74.5z"/>
	<path class="st15" d="M59.1,40.4c-0.1,0.2-0.2,0.3-0.3,0.5l0.8,5.1h-3.5c-1.3,3-2,5.7-2.1,8.1l2.9,2.9h-2.8
		c0.1,0.9,0.4,1.7,0.7,2.4c0.5,0.2,1,0.3,1.6,0.3c4.2,0.1,8.2-1.6,10.1-10.3c0.2-0.9,0.4-1.9,0.7-2.9l-3.1-0.2l3.7-2.1
		c1.3-5.3,3-11.6,4.1-15.6C68.6,29.9,63.6,33.1,59.1,40.4z"/>
	<path class="st4" d="M85.7,83.1l-6.5-8.5c-0.2-0.3-0.5-0.4-0.8-0.5c-4.4-0.4-6.8-1.4-8.7-2.1c-1.7-0.7-3.4-1.4-5.7-1.4
		c-3.4,0-6,1.8-7.8,3.9l0,0c1-2.3,3.6-5.9,7.7-5.9c1.8,0,3.1,0.5,4.7,1.2c1.3,0.5,3,1.2,5.4,1.7c0.7,0.1,1.3-0.3,1.4-0.9
		c0.1-0.7-0.3-1.3-0.9-1.4c-2.2-0.5-3.7-1-5-1.6c-1.7-0.7-3.4-1.3-5.6-1.3c-4.3,0-7.2,2.8-8.9,5.4c-1.7-2.6-4.7-5.4-8.9-5.4
		c-2.2,0-3.9,0.7-5.6,1.3c-1.9,0.7-4.2,1.7-8.6,2.1c-0.7,0.1-1.2,0.7-1.1,1.3c0.1,0.7,0.7,1.2,1.3,1.1c4.7-0.5,7.3-1.5,9.2-2.3
		c1.6-0.6,3-1.2,4.7-1.2c4.1,0,6.7,3.6,7.7,5.9l0,0c-1.8-2.1-4.4-3.9-7.8-3.9c-2.2,0-4,0.7-5.7,1.4c-1.9,0.8-4.3,1.7-8.7,2.1
		c-0.3,0-0.6,0.2-0.8,0.5l-6.5,8.5c-0.3,0.4-0.3,0.9-0.1,1.3c0.2,0.4,0.6,0.7,1.1,0.7h59.5c0.5,0,0.9-0.3,1.1-0.7
		C86.1,84,86,83.5,85.7,83.1z M64,73.1c1.8,0,3.2,0.6,4.8,1.2c1.9,0.7,4.4,1.7,8.8,2.2l4.7,6.1c-8.1-0.2-11.9-1.7-14.5-2.7
		c-1.5-0.6-2.5-1-3.8-1c-2.2,0-3.8,1.7-4.4,3.1l0,0l-0.3,0.6h-3.1V79C57.2,76.7,59.9,73.1,64,73.1z M32.4,76.5
		c4.4-0.5,7-1.5,8.8-2.2c1.6-0.6,3-1.2,4.8-1.2c4.1,0,6.8,3.6,7.8,5.9v3.6h-3.1L50.4,82l0,0c-0.6-1.4-2.2-3.1-4.4-3.1
		c-1.3,0-2.3,0.4-3.8,1c-2.6,1-6.4,2.6-14.5,2.7L32.4,76.5z M43.1,82.1c1.3-0.5,2.1-0.8,2.9-0.8c1,0,1.7,0.8,2,1.3h-6.2
		C42.3,82.5,42.7,82.3,43.1,82.1z M62,82.6c0.3-0.5,1-1.3,2-1.3c0.8,0,1.5,0.3,2.9,0.8c0.4,0.2,0.8,0.3,1.3,0.5H62z"/>
	<path class="st4" d="M77.8,72.1L77.8,72.1c0.1,0,0.1,0,0.2,0c0.6,0,1.1-0.5,1.2-1.1c0.1-0.7-0.4-1.3-1.1-1.3l0,0
		c-0.7-0.1-1.3,0.4-1.3,1.1S77.2,72,77.8,72.1z"/>
	<path class="st4" d="M50.9,52.9c-0.3,0-0.6,0.2-0.8,0.4c-0.2,0.3-0.3,0.6-0.3,1c0.5,3.3,2.2,5.5,4.8,6.3c-0.1,0.5-0.1,0.9-0.2,1.4
		l-0.6,6.1c-0.1,0.7,0.4,1.3,1.1,1.3H55c0.6,0,1.1-0.5,1.2-1.1l0.6-6.1c0-0.4,0.1-0.9,0.2-1.3c5.6-0.1,9.1-3.7,10.8-11.2
		c0.2-0.8,0.4-1.8,0.7-2.9c0.1-0.3,0-0.7-0.2-1c-0.1-0.1-0.2-0.2-0.3-0.3l0.5-0.3c0.3-0.2,0.5-0.4,0.6-0.8
		c2.1-8.4,5.2-19.6,5.2-19.7c0.1-0.4,0-0.8-0.2-1.1c-0.2-0.3-0.6-0.5-1-0.4c-0.4,0-10.1,0.7-18.1,13.7c-0.1,0.2-0.2,0.3-0.3,0.5
		s-0.2,0.5-0.2,0.8l0.6,3.7H53c-0.5,0-0.9,0.3-1.1,0.7c-1.3,3-2,5.9-2.2,8.5c0,0.3,0.1,0.7,0.3,0.9L50.9,52.9z M66.8,43.3l-3.2,1.8
		c-0.5,0.3-0.7,0.8-0.6,1.3c0.1,0.5,0.6,0.9,1.1,0.9l1.7,0.1c-0.1,0.6-0.3,1.1-0.4,1.6c-1.7,7.7-5,9.2-8.1,9.4
		c1.8-10.7,6.3-20.6,13.1-29.1C69.4,33.2,68,38.6,66.8,43.3z M53.8,44.3h2.7c0.4,0,0.7-0.2,0.9-0.4c0.2-0.3,0.3-0.6,0.3-1l-0.8-4.7
		v-0.1c3.8-6.2,8-9.3,10.9-10.8c0.7-0.4,1.3-0.6,1.9-0.9c-4.2,4.8-7.6,10.2-10.2,16.1c-2.2,5-3.8,10.2-4.6,15.6
		c-1.3-0.5-2-1.7-2.4-2.8h1.2c0.5,0,0.9-0.3,1.1-0.7c0.2-0.4,0.1-1-0.3-1.3L52,50.8C52.4,48.7,52.9,46.6,53.8,44.3z"/>
</g>
<g>
	<path class="st78" d="M55.2,108.7c-29.6,0-53.6-24.1-53.6-53.6c0-9.4,2.5-18.7,7.1-26.8c0.4-0.7,1.3-1,2.1-0.6
		c0.7,0.4,1,1.3,0.6,2.1C7,37.4,4.7,46.2,4.7,55c0,27.9,22.7,50.6,50.6,50.6s50.6-22.7,50.6-50.6S83.1,4.4,55.2,4.4
		c-14.7,0-28.6,6.4-38.2,17.4c-0.5,0.6-1.5,0.7-2.1,0.1c-0.6-0.5-0.7-1.5-0.1-2.1C24.9,8.2,39.6,1.4,55.2,1.4
		c29.6,0,53.6,24.1,53.6,53.6C108.8,84.6,84.7,108.7,55.2,108.7z"/>
</g>
<g>
	<path class="st78" d="M55.2,102c-12.7,0-25.4-5.1-34.6-15.2C12.1,77.5,7.7,65.5,8.3,53c0.5-12.5,5.9-24.1,15.2-32.6
		C42.5,3,72.3,4.3,89.8,23.3c5.6,6.1,9.4,13.5,11.2,21.5c0.2,0.8-0.3,1.6-1.1,1.8c-0.8,0.2-1.6-0.3-1.8-1.1
		c-1.7-7.5-5.3-14.4-10.5-20.1C71.2,7.5,43.4,6.3,25.5,22.7c-8.7,7.9-13.7,18.8-14.2,30.5s3.6,22.9,11.5,31.6
		c16.4,17.9,44.2,19.1,62.1,2.7c9.4-8.6,14.6-20.8,14.2-33.6c0-0.8,0.6-1.5,1.5-1.5l0,0c0.8,0,1.5,0.6,1.5,1.5
		c0.4,13.6-5.2,26.7-15.2,35.9C77.9,97.9,66.5,102,55.2,102z"/>
</g>
<g class="st0">
	<path class="st1" d="M42.5,78.7l7.9-10.1h0c2-2.5,3.3-5.7,3.3-9.2c0-6.9-4.7-12.6-11.1-14.1c-6.4,1.5-11.1,7.3-11.1,14.1
		c0,3.5,1.2,6.7,3.3,9.3h0L42.5,78.7z"/>
	<path class="st18" d="M47.6,59.7c0,4.7-3.8,8.5-8.5,8.5c-4.7,0-8.5-3.8-8.5-8.5s3.8-8.5,8.5-8.5C43.8,51.2,47.6,55,47.6,59.7z"/>
	<path class="st3" d="M75,49.6l5.1-6.5h0c1.6-1.9,2.5-4.4,2.5-7.1c0-4.9-3.2-9.1-7.6-10.5c-4.4,1.4-7.6,5.6-7.6,10.5
		c0,2.7,0.9,5.1,2.5,7h0L75,49.6z"/>
	<path class="st18" d="M76.3,36c0,2.6-2.1,4.7-4.7,4.7c-2.6,0-4.7-2.1-4.7-4.7c0-2.6,2.1-4.7,4.7-4.7C74.2,31.3,76.3,33.4,76.3,36z"
		/>
	<path class="st4" d="M39.1,43.7c-8.7,0-15.7,7.1-15.7,15.7c0,3.6,1.2,7.1,3.5,9.9c0,0,0,0.1,0.1,0.1l1.5,1.9
		c0.4,0.5,1.1,0.6,1.7,0.2c0.5-0.4,0.6-1.1,0.2-1.7l-1.4-1.8c0,0-0.1-0.1-0.1-0.1c-2-2.4-3.1-5.4-3.1-8.5c0-7.4,6-13.4,13.4-13.4
		s13.4,6,13.4,13.4c0,3.1-1.1,6.1-3,8.4c0,0,0,0,0,0.1L39.1,81.2l-3.3-4.2c-0.4-0.5-1.1-0.6-1.7-0.2c-0.5,0.4-0.6,1.1-0.2,1.7
		l4.2,5.4c0.2,0.3,0.6,0.5,0.9,0.5c0.4,0,0.7-0.2,0.9-0.5l11.3-14.5c0,0,0,0,0,0c2.3-2.8,3.5-6.3,3.5-9.9
		C54.8,50.8,47.8,43.7,39.1,43.7z"/>
	<path class="st4" d="M33.1,75.1c0.2-0.2,0.3-0.5,0.3-0.8s-0.1-0.6-0.3-0.8c-0.2-0.2-0.5-0.3-0.8-0.3c-0.3,0-0.6,0.1-0.8,0.3
		c-0.2,0.2-0.3,0.5-0.3,0.8s0.1,0.6,0.3,0.8c0.2,0.2,0.5,0.3,0.8,0.3C32.5,75.4,32.8,75.3,33.1,75.1z"/>
	<path class="st4" d="M39.1,69.4c5.3,0,9.7-4.3,9.7-9.7c0-5.3-4.3-9.7-9.7-9.7s-9.7,4.3-9.7,9.7C29.4,65,33.8,69.4,39.1,69.4z
		 M39.1,52.3c4,0,7.3,3.3,7.3,7.3S43.1,67,39.1,67s-7.3-3.3-7.3-7.3S35.1,52.3,39.1,52.3z"/>
	<path class="st4" d="M71.6,23.7c-6.8,0-12.3,5.5-12.3,12.3c0,2.8,1,5.5,2.7,7.7c0,0,0,0,0,0l8.6,11c0.2,0.3,0.6,0.5,0.9,0.5
		c0.4,0,0.7-0.2,0.9-0.5l8.6-11c0,0,0,0,0-0.1c1.8-2.2,2.7-4.9,2.7-7.7C83.9,29.2,78.4,23.7,71.6,23.7z M79.2,42.3
		c0,0-0.1,0.1-0.1,0.1l-7.6,9.7L64,42.3c0,0,0,0,0,0c-1.4-1.8-2.2-4-2.2-6.2c0-5.5,4.4-9.9,9.9-9.9c5.5,0,9.9,4.4,9.9,9.9
		C81.5,38.3,80.7,40.5,79.2,42.3z"/>
	<path class="st4" d="M61.7,55.4c-0.5-0.4-1.3-0.3-1.7,0.2c-0.3,0.4-0.6,0.9-0.9,1.4c-0.3,0.6,0,1.3,0.6,1.6
		c0.2,0.1,0.3,0.1,0.5,0.1c0.4,0,0.9-0.3,1.1-0.7c0.2-0.3,0.4-0.7,0.6-1C62.3,56.6,62.2,55.8,61.7,55.4z"/>
	<path class="st4" d="M50.9,81.9h-1.4c-0.7,0-1.2,0.5-1.2,1.2s0.5,1.2,1.2,1.2h1.4c0.7,0,1.2-0.5,1.2-1.2S51.6,81.9,50.9,81.9z"/>
	<path class="st4" d="M44.3,81.9h-0.8c-0.7,0-1.2,0.5-1.2,1.2s0.5,1.2,1.2,1.2h0.8c0.7,0,1.2-0.5,1.2-1.2S44.9,81.9,44.3,81.9z"/>
	<path class="st4" d="M59.7,61.5c-0.7,0-1.2,0.5-1.2,1.2v1.4c0,0.7,0.5,1.2,1.2,1.2s1.2-0.5,1.2-1.2v-1.4
		C60.8,62,60.3,61.5,59.7,61.5z"/>
	<path class="st4" d="M66.9,52.8h-1c-0.2,0-0.3,0-0.5,0c-0.7,0-1.1,0.6-1.1,1.3c0,0.6,0.6,1.1,1.2,1.1c0,0,0.1,0,0.1,0
		c0.1,0,0.2,0,0.3,0h1c0.7,0,1.2-0.5,1.2-1.2S67.5,52.8,66.9,52.8z"/>
	<path class="st4" d="M56.5,80.8c-0.3,0.2-0.6,0.4-1,0.6c-0.6,0.3-0.9,1-0.6,1.6c0.2,0.4,0.6,0.7,1.1,0.7c0.2,0,0.3,0,0.5-0.1
		c0.5-0.2,1-0.5,1.4-0.9c0.5-0.4,0.6-1.1,0.2-1.7C57.8,80.5,57,80.4,56.5,80.8z"/>
	<path class="st4" d="M59.7,74.7c-0.7,0-1.2,0.5-1.2,1.2v1c0,0.1,0,0.3,0,0.4c0,0.7,0.4,1.2,1.1,1.3c0,0,0.1,0,0.1,0
		c0.6,0,1.1-0.5,1.2-1.1c0-0.2,0-0.4,0-0.6v-1C60.8,75.3,60.3,74.7,59.7,74.7z"/>
	<path class="st4" d="M59.7,68.1c-0.7,0-1.2,0.5-1.2,1.2v1.4c0,0.7,0.5,1.2,1.2,1.2s1.2-0.5,1.2-1.2v-1.4
		C60.8,68.6,60.3,68.1,59.7,68.1z"/>
	<path class="st4" d="M71.6,30.1c-3.3,0-5.9,2.7-5.9,5.9s2.7,5.9,5.9,5.9s5.9-2.7,5.9-5.9S74.9,30.1,71.6,30.1z M71.6,39.5
		c-2,0-3.5-1.6-3.5-3.5c0-2,1.6-3.5,3.5-3.5c2,0,3.5,1.6,3.5,3.5C75.1,38,73.6,39.5,71.6,39.5z"/>
	<path class="st4" d="M77.8,52.8h-1.4c-0.7,0-1.2,0.5-1.2,1.2s0.5,1.2,1.2,1.2h1.4c0.7,0,1.2-0.5,1.2-1.2S78.4,52.8,77.8,52.8z"/>
	<path class="st4" d="M34.7,81.9h-1.4c-0.7,0-1.2,0.5-1.2,1.2s0.5,1.2,1.2,1.2h1.4c0.7,0,1.2-0.5,1.2-1.2S35.4,81.9,34.7,81.9z"/>
</g>
<g>
	<path class="st79" d="M26.9,80.7l8.6-10.8c0,0,3.9-0.7,9.5-2.5c8.8-2.9,10.4,2.7,10.4,2.7s1.7-5.6,10.4-2.7
		c5.5,1.8,9.5,2.5,9.5,2.5l8.6,10.8H26.9z"/>
	<path class="st80" d="M83.9,80.7l-2.3-2.9l-0.6-0.6c-2.9-0.5-6.3-1.2-9.2-2.2c-11.1-3.6-13.6,3.8-13.7,4c0-0.1-0.6,0-2.5-1.3
		c-1.5,1.3-0.3-0.4-0.3-0.4s-0.6-1.9-2.6-3.2c-1,0.2-2.1,0.4-3.4,0.9c-7.1,2.3-12.2,3.2-12.2,3.2L37,78.4l-1.8,2.2H83.9z"/>
	<path class="st81" d="M48.9,47.9l3.1-3l-0.3,0L51.2,44l-3.5-0.5L47,44.9l-5.2,0.8l3.8,3.7l-0.2,1.4l3.2,1.7l0.8-0.4l0.3,0.2
		L48.9,47.9z"/>
	<path class="st82" d="M58.5,80.7L57,82.1c-0.9,0.9-2.4,0.9-3.3,0l-1.4-1.4l3.1-3.1L58.5,80.7z"/>
	<path class="st78" d="M70.3,31.4l0.5-1.4l-0.1,0l-2-1.5l-1,0.3l-0.3-0.2l0,3l-3.2,2.2l0.7,0.2l0.1,0.2l1.8,2.9l1.2-1.8l0.5-0.8
		l4.1,0.1L70.3,31.4z"/>
	<path d="M70.7,79.5c-0.3,0-0.6,0.1-0.8,0.3c-0.2,0.2-0.3,0.5-0.3,0.8c0,0.3,0.1,0.6,0.3,0.8c0.2,0.2,0.5,0.3,0.8,0.3
		s0.6-0.1,0.8-0.3c0.2-0.2,0.3-0.5,0.3-0.8c0-0.3-0.1-0.6-0.3-0.8C71.3,79.6,71,79.5,70.7,79.5z"/>
	<path d="M84.8,79.9l-8.6-10.8c-0.2-0.2-0.4-0.4-0.7-0.4c0,0-3.9-0.7-9.3-2.5c-3.6-1.2-6.6-1.2-8.8,0c-0.9,0.5-1.5,1-2,1.6
		c-0.5-0.5-1.1-1.1-2-1.6c-2.3-1.2-5.2-1.2-8.8,0c-5.4,1.7-9.3,2.5-9.3,2.5c-0.3,0.1-0.5,0.2-0.7,0.4L26,79.9
		c-0.3,0.3-0.3,0.8-0.1,1.2c0.2,0.4,0.6,0.7,1,0.7h24.7c0.5,1.6,2,2.8,3.8,2.8c1.8,0,3.3-1.2,3.8-2.8H66c0.6,0,1.2-0.5,1.2-1.2
		c0-0.6-0.5-1.2-1.2-1.2h-7.1l-2.3-2.3c0.3-0.6,1-1.7,2.5-2.5c2.3-1.2,5.4-1.1,9.3,0.1c6.1,2,10.7,3,11.9,3.2l1.1,1.4h-6.1
		c-0.6,0-1.2,0.5-1.2,1.2c0,0.6,0.5,1.2,1.2,1.2h8.5c0.4,0,0.9-0.3,1-0.7C85.1,80.8,85.1,80.3,84.8,79.9z M36.1,70.9
		c1.2-0.2,4.6-1,9.2-2.5c3.2-1,5.7-1,7.4,0.1c1,0.6,1.4,1.4,1.5,1.7v3.5c-0.4-0.4-0.9-0.7-1.5-1c-2.8-1.5-6.6-1.5-11.1,0
		c-3.7,1.2-6.8,2-8.9,2.5L36.1,70.9z M30.4,78.1c1.3-0.3,5.8-1.2,11.9-3.2c3.9-1.3,7-1.3,9.3-0.2c1.5,0.8,2.2,1.9,2.5,2.5l-2.3,2.3
		H29.3L30.4,78.1z M55.4,82.3c-0.8,0-1.5-0.6-1.6-1.5l1.6-1.6l1.6,1.6C56.9,81.6,56.2,82.3,55.4,82.3z M69.2,72.7
		c-4.5-1.5-8.3-1.5-11.1,0c-0.6,0.3-1.1,0.7-1.5,1v-3.5c0.1-0.3,0.6-1.3,1.9-1.9c1.7-0.9,4.1-0.8,7,0.1c4.5,1.5,8,2.2,9.2,2.5
		l3.5,4.3C75.9,74.7,72.8,73.9,69.2,72.7z"/>
	<path d="M32,64.5c0.1,0.5,0.6,0.9,1.1,0.9c0.1,0,0.2,0,0.3,0c0.6-0.2,1-0.8,0.8-1.4L28,39.8c-0.2-0.6-0.8-1-1.4-0.8
		c-0.6,0.2-1,0.8-0.8,1.4L32,64.5z"/>
	<path d="M77.3,65.4c0.1,0,0.2,0,0.3,0c0.5,0,1-0.3,1.1-0.9L85,40.4c0.2-0.6-0.2-1.3-0.8-1.4c-0.6-0.2-1.3,0.2-1.4,0.8L76.5,64
		C76.4,64.6,76.7,65.2,77.3,65.4z"/>
	<path d="M37.3,29c0.6,0,1.2-0.5,1.2-1.2v-1.5c0-0.6-0.5-1.2-1.2-1.2c-0.6,0-1.2,0.5-1.2,1.2v1.5C36.2,28.5,36.7,29,37.3,29z"/>
	<path d="M37.3,36c0.6,0,1.2-0.5,1.2-1.2v-1.5c0-0.6-0.5-1.2-1.2-1.2c-0.6,0-1.2,0.5-1.2,1.2v1.5C36.2,35.5,36.7,36,37.3,36z"/>
	<path d="M40.1,31.8h1.5c0.6,0,1.2-0.5,1.2-1.2c0-0.6-0.5-1.2-1.2-1.2h-1.5c-0.6,0-1.2,0.5-1.2,1.2C39,31.3,39.5,31.8,40.1,31.8z"/>
	<path d="M33.1,31.8h1.5c0.6,0,1.2-0.5,1.2-1.2c0-0.6-0.5-1.2-1.2-1.2h-1.5c-0.6,0-1.2,0.5-1.2,1.2C31.9,31.3,32.5,31.8,33.1,31.8z"
		/>
	<path d="M68.1,50.7c0-0.6-0.5-1.2-1.2-1.2s-1.2,0.5-1.2,1.2v1.5c0,0.6,0.5,1.2,1.2,1.2s1.2-0.5,1.2-1.2V50.7z"/>
	<path d="M67,56.5c-0.6,0-1.2,0.5-1.2,1.2v1.5c0,0.6,0.5,1.2,1.2,1.2s1.2-0.5,1.2-1.2v-1.5C68.1,57.1,67.6,56.5,67,56.5z"/>
	<path d="M69.7,53.8c-0.6,0-1.2,0.5-1.2,1.2c0,0.6,0.5,1.2,1.2,1.2h1.5c0.6,0,1.2-0.5,1.2-1.2c0-0.6-0.5-1.2-1.2-1.2H69.7z"/>
	<path d="M64.2,53.8h-1.5c-0.6,0-1.2,0.5-1.2,1.2c0,0.6,0.5,1.2,1.2,1.2h1.5c0.6,0,1.2-0.5,1.2-1.2C65.3,54.3,64.8,53.8,64.2,53.8z"
		/>
	<path d="M37.5,43.1c-0.4,0.1-0.8,0.4-0.9,0.8c-0.1,0.4,0,0.9,0.3,1.2l3.3,3.2l-0.8,4.6c-0.1,0.4,0.1,0.9,0.5,1.1
		c0.2,0.1,0.4,0.2,0.7,0.2c0.2,0,0.4,0,0.5-0.1l4.1-2.2l4.1,2.2c0.4,0.2,0.9,0.2,1.2-0.1c0.4-0.3,0.5-0.7,0.5-1.1l-0.8-4.6l3.3-3.2
		c0.3-0.3,0.4-0.8,0.3-1.2c-0.1-0.4-0.5-0.7-0.9-0.8l-4.6-0.7l-2.1-4.2c-0.2-0.4-0.6-0.6-1-0.6c-0.4,0-0.8,0.3-1,0.6l-2,4.2
		L37.5,43.1z M43.9,44l1.3-2.6l1.3,2.6c0.2,0.3,0.5,0.6,0.9,0.6l2.9,0.4l-2.1,2c-0.3,0.3-0.4,0.7-0.3,1l0.5,2.8l-2.6-1.3
		c-0.3-0.2-0.7-0.2-1.1,0L42,50.9l0.5-2.8c0.1-0.4-0.1-0.8-0.3-1l-2.1-2l2.9-0.4C43.4,44.6,43.7,44.3,43.9,44z"/>
	<path d="M60.7,34l3.4,1l1,3.4c0.1,0.4,0.5,0.7,0.9,0.8c0.1,0,0.1,0,0.2,0c0.4,0,0.7-0.2,0.9-0.5l2-2.9l3.5,0c0.4,0,0.8-0.2,1-0.6
		c0.2-0.4,0.2-0.9-0.1-1.2l-2.1-2.8l1.1-3.3c0.1-0.4,0-0.9-0.3-1.2s-0.8-0.4-1.2-0.3l-3.3,1.1l-2.8-2.1c-0.4-0.3-0.8-0.3-1.2-0.1
		c-0.4,0.2-0.6,0.6-0.6,1l0,3.5l-2.9,2c-0.4,0.3-0.5,0.7-0.5,1.1C60,33.5,60.3,33.9,60.7,34z M65.1,31.5c0.3-0.2,0.5-0.6,0.5-1
		l0-1.8l1.4,1.1c0.3,0.2,0.7,0.3,1.1,0.2l1.7-0.6l-0.6,1.7c-0.1,0.4-0.1,0.8,0.2,1.1l1.1,1.4l-1.8,0c0,0,0,0,0,0
		c-0.4,0-0.7,0.2-0.9,0.5l-1,1.5l-0.5-1.7c-0.1-0.4-0.4-0.7-0.8-0.8l-1.7-0.5L65.1,31.5z"/>
	<path d="M53.9,41c0.6,0,1.2-0.5,1.2-1.2V33c0-0.6-0.5-1.2-1.2-1.2c-0.6,0-1.2,0.5-1.2,1.2v6.8C52.7,40.5,53.2,41,53.9,41z"/>
	<path d="M53.9,30c0.3,0,0.6-0.1,0.8-0.3c0.2-0.2,0.3-0.5,0.3-0.8c0-0.3-0.1-0.6-0.3-0.8c-0.2-0.2-0.5-0.3-0.8-0.3S53.3,27.8,53,28
		c-0.2,0.2-0.3,0.5-0.3,0.8c0,0.3,0.1,0.6,0.3,0.8C53.3,29.8,53.6,30,53.9,30z"/>
</g>
</svg>
