<?xml version="1.0" encoding="UTF-8"?>
<svg width="79px" height="81px" viewBox="0 0 79 81" version="1.1" xmlns="http://www.w3.org/2000/svg" xmlns:xlink="http://www.w3.org/1999/xlink">
    <!-- Generator: sketchtool 60.1 (101010) - https://sketch.com -->
    <title>822FA042-C764-433F-9188-6319017C1982</title>
    <desc>Created with sketchtool.</desc>
    <defs>
        <polygon id="path-1" points="0 0.843428571 78.699751 0.843428571 78.699751 47.4144082 0 47.4144082"></polygon>
        <polygon id="path-3" points="0 81.1567388 78.7953061 81.1567388 78.7953061 1.67363673 0 1.67363673"></polygon>
    </defs>
    <g id="Desktop" stroke="none" stroke-width="1" fill="none" fill-rule="evenodd">
        <g id="MPEd-Landing-Page---Design" transform="translate(-663.000000, -2280.000000)">
            <g id="Why-Choose-MPEd?" transform="translate(-70.000000, 1977.000000)">
                <g id="Onine-Delivery---Card" transform="translate(698.000000, 262.000000)">
                    <g id="Group-4-Copy">
                        <g id="online-delivery" transform="translate(35.000000, 40.000000)">
                            <path d="M8.66472245,28.1695102 L35.4619878,41.0200816 L38.0558653,42.3638776 L75.6470082,24.5113061 L75.0780286,38.7926939 L39.5686816,56.4109796 L6.34362041,41.4970204 L6.27500816,29.6806531 C6.27500816,29.6806531 6.37206939,27.2507755 8.66472245,28.1695102" id="Fill-1" fill="#FFFFFF"></path>
                            <path d="M65.9402163,12.3679429 C61.7883388,9.80753469 57.0875633,8.3750449 53.3055224,5.19545306 L53.303849,5.19545306 L20.0168694,21.8397796 C17.7493184,22.9743918 16.3168286,25.2921469 16.3168286,27.8257796 L16.3168286,30.6840653 C16.8824612,31.1124735 17.4313592,31.5592898 17.9518082,32.0312082 C18.4053184,32.312351 18.8554816,32.5951673 19.3307469,32.8445143 C20.5473592,33.4804327 21.8041347,34.0310041 23.0023388,34.7003918 C24.1720939,35.3530449 25.2397673,36.166351 26.2974,36.986351 L38.0568694,42.3648816 C44.2871959,40.0153306 49.6807878,35.8400245 55.6065429,32.8512082 C62.0795224,29.5845959 69.0394816,27.4643102 75.6480122,24.5123102 C75.8438082,22.8907184 76.6152776,21.3343918 77.9791551,20.2131673 C78.1950327,20.0357796 78.4276449,19.8901878 78.6652776,19.7596571 C74.0582163,17.8987592 70.1640531,14.9718612 65.9402163,12.3679429" id="Fill-3" fill="#ECB278"></path>
                            <g id="Group-7" transform="translate(0.000000, 0.830208)">
                                <mask id="mask-2" fill="white">
                                    <use xlink:href="#path-1"></use>
                                </mask>
                                <g id="Clip-6"></g>
                                <path d="M17.4373837,47.4144082 L4.39436327,40.8945714 C1.68334286,39.5373878 -0.000167346939,36.8129796 -0.000167346939,33.7823265 L-0.000167346939,26.9964082 C-0.000167346939,23.9674286 1.68334286,21.2430204 4.3926898,19.8875102 L40.462649,1.85253061 C43.1552612,0.507061224 46.3750163,0.507061224 49.0676286,1.85253061 L76.1544041,15.3959184 C77.7241184,16.1807755 78.699751,17.7571837 78.699751,19.5126531 C78.699751,21.2681224 77.7241184,22.8445306 76.1544041,23.6293878 L40.0894653,41.6610204 C38.8126082,42.2969388 37.3449755,42.312 36.0614245,41.7045306 L8.12787347,28.4740816 C7.94379184,28.3870612 7.79652653,28.454 7.72456735,28.4975102 C7.65260816,28.5443673 7.5304449,28.6497959 7.5304449,28.8506122 L7.5304449,33.8877551 L5.02024082,33.8877551 L5.02024082,28.8506122 C5.02024082,27.8415102 5.53064898,26.9160816 6.38411837,26.3772245 C7.23424082,25.8366939 8.2902,25.773102 9.20224082,26.2048571 L37.1357918,39.4353061 C37.7164857,39.7114286 38.3858735,39.7080816 38.9682408,39.416898 L75.0331796,21.3835918 C75.7577918,21.0221224 76.1895469,20.3226122 76.1895469,19.5126531 C76.1895469,18.7043673 75.7577918,18.0048571 75.0331796,17.6417143 L47.9464041,4.09832653 C45.953302,3.10261224 43.5769755,3.10261224 41.5838735,4.09832653 L5.51558776,22.1333061 C3.66305714,23.0604082 2.51003673,24.9246531 2.51003673,26.9964082 L2.51003673,33.7823265 C2.51003673,35.8574286 3.66305714,37.72 5.51726122,38.6487755 L18.5586082,45.1686122 L17.4373837,47.4144082 Z" id="Fill-5" fill="#000000" mask="url(#mask-2)"></path>
                            </g>
                            <path d="M38.0714286,58.0158367 C37.363551,58.0158367 36.6573469,57.8551837 36.0147347,57.5338776 L27.4766939,53.2648571 L28.6012653,51.0190612 L37.1359592,55.2880816 C37.7216735,55.5792653 38.4228571,55.5792653 39.0085714,55.2880816 L45.7626939,51.9126939 L46.8839184,54.1568163 L40.1281224,57.5338776 C39.4855102,57.8551837 38.7776327,58.0158367 38.0714286,58.0158367" id="Fill-8" fill="#000000"></path>
                            <polygon id="Fill-10" fill="#000000" points="61.5261061 46.8342163 60.4048816 44.5884204 77.6734122 35.9549918 78.7946367 38.2007878"></polygon>
                            <mask id="mask-4" fill="white">
                                <use xlink:href="#path-3"></use>
                            </mask>
                            <g id="Clip-13"></g>
                            <polygon id="Fill-12" fill="#000000" mask="url(#mask-4)" points="73.6326531 33.0444939 76.1428571 33.0444939 76.1428571 24.6771469 73.6326531 24.6771469"></polygon>
                            <path d="M26.9324816,56.8506 C26.937502,53.9839469 27.0395837,51.1156204 27.1132163,48.2422735 C27.1282776,47.6983959 27.0964816,47.1628857 27.0881143,46.6223551 C27.0881143,46.5688041 27.0881143,46.5420286 27.0897878,46.5052122 C27.0864408,46.4968449 27.0864408,46.4968449 27.0830939,46.4868041 C27.0429306,46.301049 27.0111347,46.1152939 26.965951,45.9312122 C26.9190939,45.7538245 26.8521551,45.5747633 26.805298,45.3973755 C26.7032163,45.2417429 26.4655837,44.8786 26.3886041,44.739702 C26.2229306,44.5723551 25.9217061,44.2543959 25.8380327,44.1774163 C25.7275837,44.0753347 25.3878694,43.7975388 25.2874612,43.7088449 C25.0381143,43.5247633 24.7753796,43.3574163 24.5210122,43.1800286 C24.4858694,43.1900694 24.4574204,43.2118245 24.4222776,43.2201918 C24.1093388,43.263702 23.7947265,43.3038653 23.4801143,43.3473755 C22.9931347,43.3641102 22.5362776,43.263702 22.1128898,43.0411306 C21.7547673,42.9256612 21.446849,42.7248449 21.1673796,42.472151 L21.1673796,56.7635796 L27.4847265,61.0409673 L26.9324816,56.8506 Z" id="Fill-14" fill="#91327D" mask="url(#mask-4)"></path>
                            <path d="M23.0102041,54.7194367 C23.3750204,54.7194367 23.726449,54.8784163 23.9657551,55.1629061 L26.7755102,58.4646612 L26.7755102,45.9136408 L19.244898,42.0763755 L19.244898,55.2967837 L22.8160816,54.734498 C22.8813469,54.7244571 22.9449388,54.7194367 23.0102041,54.7194367 M28.0306122,63.1336408 C27.6691429,63.1336408 27.3177143,62.9796816 27.0750612,62.6918449 L22.5098367,57.3250286 L18.1839184,58.0044571 C17.8308163,58.0563347 17.4542857,57.9559265 17.1748163,57.7182939 C16.8953469,57.4789878 16.7346939,57.1309061 16.7346939,56.7644163 L16.7346939,40.0297224 C16.7346939,39.5929469 16.9622857,39.1879673 17.3337959,38.958702 C17.7053061,38.7294367 18.1688571,38.7143755 18.560449,38.9118449 L28.6012653,44.0259673 C29.0213061,44.2401714 29.2857143,44.6719265 29.2857143,45.1438449 L29.2857143,61.8785388 C29.2857143,62.4056816 28.9577143,62.8759265 28.4640408,63.0566612 C28.3217959,63.1102122 28.1762041,63.1336408 28.0306122,63.1336408" id="Fill-15" fill="#000000" mask="url(#mask-4)"></path>
                            <path d="M72.0686286,77.3342 C72.0669551,77.3308531 72.0669551,77.3275061 72.0669551,77.3224857 C71.9029551,76.4623224 71.6703429,75.6272612 71.3791592,74.8022408 C71.2268735,74.3738327 71.0645469,73.9521184 70.8972,73.5304041 C70.8152,73.3279143 70.7332,73.127098 70.6495265,72.9262816 C70.3466286,72.2167306 70.0119347,71.5155469 69.7625878,70.7859143 C69.6822612,70.5499551 69.6588327,70.3156694 69.6571592,70.0813837 C69.2220571,69.6563224 68.7718939,69.2463224 68.3083429,68.8497102 C67.1770776,67.8824449 67.3946286,66.075098 68.3083429,65.0810571 C69.2337714,64.0719551 70.6930367,64.1522816 71.7473224,64.8400776 L74.4901388,64.8400776 C74.5436898,64.6426082 74.6106286,64.4468122 74.6993224,64.2593837 C74.7428327,64.1690163 74.7712816,64.107098 74.7947102,64.0585673 C74.8516082,63.9029347 74.9034857,63.7456286 74.9503429,63.586649 C74.9737714,63.4979551 75.0189551,63.2000776 75.0373633,63.1247714 C75.0390367,63.0494653 75.0423837,62.9741592 75.0407102,62.8988531 C75.0390367,62.8185265 75.0306694,62.6863224 75.0038939,62.5909347 C74.9838122,62.520649 74.9620571,62.4604041 74.940302,62.4102 C74.8382204,62.2411796 74.7428327,62.0721592 74.6357306,61.9064857 C74.5654449,61.8261592 74.4968327,61.7475061 74.4232,61.6688531 C74.2709143,61.5065265 74.1136082,61.3508939 73.9496082,61.2002816 C73.7789143,61.044649 73.6015265,60.9007306 73.4274857,60.7484449 C73.3789551,60.7049347 73.3572,60.6848531 73.328751,60.6580776 C73.2952816,60.6363224 73.2668327,60.6162408 73.2116082,60.5760776 C72.7731592,60.2564449 72.3296898,59.9418327 71.8845469,59.6339143 C70.8754449,58.9360776 69.8763837,58.2348939 68.9141388,57.4768122 C68.134302,56.862649 66.8992816,55.8853429 65.8801388,55.0151388 C64.8208327,54.1131388 63.7816082,53.1910571 62.722302,52.2890571 C60.7927918,50.6473837 58.7996898,49.0994245 56.4802612,48.0116694 L56.4802612,71.2327306 C56.8752,70.4897102 57.6182204,69.9408122 58.7160163,69.9408122 C59.880751,69.9408122 60.6388327,70.556649 61.0153633,71.3666082 L64.362302,68.1317918 L70.1156898,78.2763633 C70.6143837,77.7040367 71.3574041,77.2957102 72.0686286,77.3342" id="Fill-16" fill="#F1AE2C" mask="url(#mask-4)"></path>
                            <path d="M59.3412245,66.8766898 C59.3997959,66.8766898 59.4600408,66.8817102 59.5202857,66.8900776 C59.9051837,66.945302 60.241551,67.1762408 60.4323265,67.5126082 L66.6626531,78.4955878 C66.6927755,78.5424449 66.7797959,78.5993429 66.9069796,78.6277918 C67.1345714,78.6830163 67.4123673,78.6244449 67.6533469,78.4704857 L70.2589388,76.8321592 C70.6756327,76.5694245 70.8446531,76.0924857 70.709102,75.8565265 L64.7247755,65.4659551 C64.5022041,65.0793837 64.5022041,64.6007714 64.726449,64.2125265 C64.9506939,63.8242816 65.3657143,63.5849755 65.8125306,63.5849755 L73.4318367,63.5849755 C73.5104898,63.4544449 73.5807755,63.2352204 73.5958367,63.0762408 L52.7142857,47.9028939 L52.7142857,72.7840367 L58.4693469,67.2297918 C58.7053061,67.0005265 59.0182449,66.8766898 59.3412245,66.8766898 M67.076,81.1564041 C66.8283265,81.1564041 66.5789796,81.1296286 66.338,81.0727306 C65.5564898,80.8903224 64.9038367,80.4301184 64.5005306,79.7724449 L59.0483673,70.1600367 L53.7568571,75.2741592 C53.054,75.9586082 52.1754286,76.1694653 51.3972653,75.8448122 C50.6609388,75.5335469 50.2040816,74.7821592 50.2040816,73.8835061 L50.2040816,45.4395469 C50.2040816,44.9676286 50.4684898,44.5358735 50.8885306,44.3216694 C51.3085714,44.1091388 51.8173061,44.149302 52.1955102,44.4254245 L75.2408571,61.1701592 C76.0340816,61.7190571 76.3118776,62.8419551 75.9470612,64.0451796 C75.5705306,65.2919143 74.6685306,66.0951796 73.6493878,66.0951796 L67.9846939,66.0951796 L72.8879592,74.6081184 C73.7062857,76.0439551 73.1272653,77.9918735 71.5960408,78.9574653 L68.9921224,80.5941184 C68.4064082,80.9639551 67.7370204,81.1564041 67.076,81.1564041" id="Fill-17" fill="#000000" mask="url(#mask-4)"></path>
                        </g>
                    </g>
                </g>
            </g>
        </g>
    </g>
</svg>