<?xml version="1.0" encoding="UTF-8"?>
<svg width="82px" height="81px" viewBox="0 0 82 81" version="1.1" xmlns="http://www.w3.org/2000/svg" xmlns:xlink="http://www.w3.org/1999/xlink">
    <!-- Generator: sketchtool 60.1 (101010) - https://sketch.com -->
    <title>CA22A7B3-41FD-48EC-9A38-FF164EE7DE46</title>
    <desc>Created with sketchtool.</desc>
    <defs>
        <polygon id="path-1" points="0 80.5691489 81.8617021 80.5691489 81.8617021 0 0 0"></polygon>
    </defs>
    <g id="Desktop" stroke="none" stroke-width="1" fill="none" fill-rule="evenodd">
        <g id="MPEd-Landing-Page---Design" transform="translate(-194.000000, -2271.000000)">
            <g id="Why-Choose-MPEd?" transform="translate(-70.000000, 1977.000000)">
                <g id="Real-World-Focus---Card" transform="translate(231.666667, 262.000000)">
                    <g id="Group-4">
                        <g id="real-world-icon" transform="translate(32.333333, 32.000000)">
                            <path d="M68.5053191,57.7660979 C69.3463404,57.1887574 71.5367872,54.5398851 71.7229149,54.4812894 C72.8396809,53.6075234 74.3648936,54.7777149 75.743617,54.8328638 C76.0365957,54.7018851 76.3295745,54.5760766 76.6208298,54.4106298 C78.4441915,53.3748638 80.1210638,52.1409064 81.7582979,50.8483532 L81.7582979,47.2895234 C81.396383,46.5984383 81.1637234,45.7901617 81.1068511,44.866417 C80.8638511,40.9973745 81.3481277,37.1421191 81.7582979,33.2713532 L81.7582979,18.0243957 C81.2619574,13.2678 80.3899149,8.57841702 79.0249787,3.94418298 C78.7388936,2.97562979 78.7164894,2.09324681 78.8629787,1.29186383 L37.4840426,1.29186383 C34.6300851,1.29186383 32.3138298,3.60811915 32.3138298,6.4620766 L32.3138298,54.3916723 L56.0054681,54.4812894 L57.8805319,67.6119064 L68.5053191,54.7173957 L68.5053191,57.7660979 Z" id="Fill-1" fill="#7FCDF3"></path>
                            <path d="M58.1750617,68.7157468 C57.8131468,68.7157468 57.4477851,68.6502574 57.0927638,68.5158319 C55.9122319,68.0660234 55.1487638,66.9595979 55.1487638,65.6963426 L55.1487638,56.0108106 L42.5058702,56.0108106 L42.5058702,53.4257043 L56.441317,53.4257043 C57.1548064,53.4257043 57.7338702,54.0047681 57.7338702,54.7182574 L57.7338702,65.6963426 C57.7338702,65.9427894 57.8855298,66.0513638 58.0113383,66.0978957 C58.1388702,66.1478745 58.3232745,66.1668319 58.4887213,65.9824277 L69.2634447,53.8600021 C69.5081681,53.5842574 69.8597426,53.4257043 70.2285511,53.4257043 L75.3987638,53.4257043 C77.5357851,53.4257043 79.2764234,51.685066 79.2764234,49.5480447 L79.2764234,6.4629383 C79.2764234,4.32591702 77.5357851,2.58527872 75.3987638,2.58527872 L25.4200404,2.58527872 C23.2830191,2.58527872 21.5423809,4.32591702 21.5423809,6.4629383 L21.5423809,45.6893426 L18.9572745,45.6893426 L18.9572745,6.4629383 C18.9572745,2.9006617 21.8577638,0.000172340426 25.4200404,0.000172340426 L75.3987638,0.000172340426 C78.9627638,0.000172340426 81.8615298,2.9006617 81.8615298,6.4629383 L81.8615298,49.5480447 C81.8615298,53.1103213 78.9627638,56.0108106 75.3987638,56.0108106 L70.8093383,56.0108106 L60.4206574,67.6989383 C59.8329766,68.3607255 59.016083,68.7157468 58.1750617,68.7157468" id="Fill-3" fill="#000000"></path>
                            <mask id="mask-2" fill="white">
                                <use xlink:href="#path-1"></use>
                            </mask>
                            <g id="Clip-6"></g>
                            <polygon id="Fill-5" fill="#7F85B4" mask="url(#mask-2)" points="14.2111915 80.5208936 26.8127234 80.5208936 26.8127234 72.908617 14.2111915 72.908617"></polygon>
                            <path d="M30.1680191,49.2212872 C29.9060617,49.0420532 29.6320404,48.874883 29.3804234,48.6835851 C29.1081255,48.7197766 28.8409979,48.7663085 28.5462957,48.7663085 C26.2317638,48.7663085 24.6427851,47.6443723 23.7776362,46.1002021 L18.5264234,46.1002021 C12.351466,46.1002021 8.18599787,48.7059894 8.18599787,56.4406277 L8.18599787,63.3342447 C8.18599787,70.2278617 13.7681043,71.951266 18.5264234,71.951266 L20.2670617,71.951266 C20.9977851,67.0516277 23.7690191,62.960266 25.0064234,58.2260745 C25.7061255,55.5461809 27.6932106,54.319117 29.8095511,54.1898617 C29.2666787,52.5784787 29.3924872,50.7240957 30.1680191,49.2212872" id="Fill-7" fill="#7F85B4" mask="url(#mask-2)"></path>
                            <path d="M34.8686043,68.6518085 C35.3942426,67.3937234 35.9250511,66.1459787 36.4041574,64.8741064 C36.4558596,63.9779362 36.6816255,63.0852128 37.0814553,62.280383 C37.2020936,62.037383 37.3451362,61.811617 37.4795617,61.5789574 C37.7914979,60.6621064 38.3395404,59.8710638 39.0461362,59.2575319 C39.4856043,58.6853617 39.9354128,58.1218085 40.3869447,57.5582553 C40.498966,57.4186596 40.6196043,57.2618298 40.6988809,57.1549787 C40.8884553,56.8895745 41.0797532,56.6241702 41.253817,56.3449787 C41.4140936,56.0881915 41.5485191,55.8193404 41.6984553,55.557383 C41.7036255,55.502234 41.722583,55.4074468 41.7794553,55.2109787 C41.8277106,55.0369149 41.910434,54.8835319 41.9742,54.7180851 L28.3644766,54.7180851 L18.0240511,75.3989362 L30.6910723,75.3989362 C30.1895617,72.5484255 31.588966,69.3204894 34.8686043,68.6518085" id="Fill-8" fill="#FFFFFF" mask="url(#mask-2)"></path>
                            <path d="M37.5833106,68.6518085 C38.071034,67.3937234 38.5622043,66.1459787 39.0068426,64.8741064 C39.0550979,63.9779362 39.2636298,63.0852128 39.6341617,62.280383 C39.746183,62.037383 39.8771617,61.811617 40.0012468,61.5789574 C40.2925021,60.6621064 40.799183,59.8710638 41.4540766,59.2575319 C41.8608,58.6853617 42.2795872,58.1218085 42.6983745,57.5582553 C42.8000553,57.4186596 42.9120766,57.2618298 42.986183,57.1549787 C43.1619702,56.8895745 43.3412043,56.6241702 43.5014809,56.3449787 C43.6496936,56.0881915 43.7737787,55.8193404 43.9116511,55.557383 C43.9168213,55.502234 43.9340553,55.4074468 43.9857574,55.2109787 C44.0322894,55.0369149 44.1081191,54.8835319 44.1667149,54.7180851 L31.556566,54.7180851 L21.9727149,75.3989362 L33.7142681,75.3989362 C33.5040128,74.1098298 34.9637362,73.1654043 35.4721404,71.9934894 C36.0873957,70.5734043 35.9185021,69.0188936 37.5833106,68.6518085" id="Fill-9" fill="#8DC487" mask="url(#mask-2)"></path>
                            <path d="M21.5559957,39.0962872 C22.047166,37.4211383 25.0769106,29.6365213 23.539634,28.5973085 C21.6955915,27.3495638 20.9493574,25.5658404 20.9596979,23.8027979 C17.5387404,24.3198191 15.0794426,27.3650745 15.0794426,31.0824574 L15.0794426,33.5452021 C15.0794426,37.3952872 17.7162511,40.5180957 21.3285064,40.8627766 C21.3216128,40.3043936 21.3733149,39.721883 21.5559957,39.0962872" id="Fill-10" fill="#F0CCAE" mask="url(#mask-2)"></path>
                            <path d="M16.8031915,24.9893617 C13.6631489,24.9893617 11.2021277,27.6658085 11.2021277,31.0815957 L11.2021277,33.5460638 C11.2021277,36.9618511 13.6631489,39.6382979 16.8031915,39.6382979 C19.943234,39.6382979 22.4042553,36.9618511 22.4042553,33.5460638 L22.4042553,31.0815957 C22.4042553,27.6658085 19.943234,24.9893617 16.8031915,24.9893617 M16.8031915,42.2234043 C12.213766,42.2234043 8.61702128,38.411234 8.61702128,33.5460638 L8.61702128,31.0815957 C8.61702128,26.2164255 12.213766,22.4042553 16.8031915,22.4042553 C21.392617,22.4042553 24.9893617,26.2164255 24.9893617,31.0815957 L24.9893617,33.5460638 C24.9893617,38.411234 21.392617,42.2234043 16.8031915,42.2234043" id="Fill-11" fill="#000000" mask="url(#mask-2)"></path>
                            <path d="M18.5265957,73.2446809 L11.6329787,73.2446809 C4.23957447,73.2446809 0,69.6324255 0,63.3351064 L0,56.4414894 C0,48.7223617 3.91385106,44.8085106 11.6329787,44.8085106 L20.25,44.8085106 C23.498617,44.937766 26.0423617,46.4250638 28.089766,47.619383 C28.5688723,47.9002979 29.0307447,48.1708723 29.475383,48.4069787 C29.897617,48.6310213 30.1612979,49.0704894 30.1612979,49.5478723 L30.1612979,54.7180851 L27.5761915,54.7180851 L27.5761915,50.309617 C27.3194043,50.1631277 27.054,50.0097447 26.7851489,49.8529149 C24.8928511,48.7464894 22.7506596,47.4952979 20.1982979,47.3918936 L11.6329787,47.393617 C5.37529787,47.393617 2.58510638,50.1838085 2.58510638,56.4414894 L2.58510638,63.3351064 C2.58510638,69.3894255 7.50370213,70.6595745 11.6329787,70.6595745 L18.5265957,70.6595745 L18.5265957,73.2446809 Z" id="Fill-12" fill="#000000" mask="url(#mask-2)"></path>
                            <path d="M21.9734043,64.6276596 L11.6329787,64.6276596 C9.96989362,64.6276596 8.61702128,63.2747872 8.61702128,61.6117021 L8.61702128,54.7180851 L11.2021277,54.7180851 L11.2021277,61.6117021 C11.2021277,61.8495319 11.3951489,62.0425532 11.6329787,62.0425532 L21.9734043,62.0425532 L21.9734043,64.6276596 Z" id="Fill-13" fill="#000000" mask="url(#mask-2)"></path>
                            <polygon id="Fill-14" fill="#000000" mask="url(#mask-2)" points="6.89361702 80.5691489 9.4787234 80.5691489 9.4787234 71.9521277 6.89361702 71.9521277"></polygon>
                            <polygon id="Fill-15" fill="#000000" mask="url(#mask-2)" points="25.8510638 80.5691489 28.4361702 80.5691489 28.4361702 75.3989362 25.8510638 75.3989362"></polygon>
                            <path d="M39.0828447,66.1811362 C39.3448021,65.9157319 39.7773766,65.2694553 40.1323979,64.9937106 C40.1634191,64.9402851 40.192717,64.8920298 40.2220149,64.8420511 C40.2582064,64.7317532 40.2875043,64.6231787 40.3202489,64.5146043 C40.3185255,64.3095191 40.3529936,64.0596255 40.354717,63.9096894 C40.3702277,63.0790085 40.5546319,62.3069234 40.8665681,61.6123915 L36.9923553,61.6123915 L33.5455468,68.5060085 L37.7351426,68.5060085 C38.005717,67.6408596 38.4434617,66.8274128 39.0828447,66.1811362" id="Fill-16" fill="#FFFFFF" mask="url(#mask-2)"></path>
                            <path d="M42.0196979,66.1811362 C42.2833787,65.9157319 42.7159532,65.2694553 43.0692511,64.9937106 C43.1002723,64.9402851 43.1295702,64.8920298 43.1605915,64.8420511 C43.1950596,64.7317532 43.2260809,64.6231787 43.2588255,64.5146043 C43.2553787,64.3095191 43.2898468,64.0596255 43.2932936,63.9096894 C43.3070809,63.0790085 43.4914851,62.3069234 43.8051447,61.6123915 L39.9309319,61.6123915 L36.4841234,68.5060085 L40.6737191,68.5060085 C40.9442936,67.6408596 41.3820383,66.8274128 42.0196979,66.1811362" id="Fill-17" fill="#F0CCAE" mask="url(#mask-2)"></path>
                            <path d="M34.4058702,67.212766 L38.8022745,67.212766 C39.6226149,67.212766 40.3619553,66.7560638 40.7290404,66.023617 L41.9750617,63.5281277 C42.0681255,63.3402766 42.0026362,63.1834468 41.9561043,63.107617 C41.9095723,63.0317872 41.7992745,62.9042553 41.5907426,62.9042553 L36.5601255,62.9042553 L34.4058702,67.212766 Z M38.8022745,69.7978723 L32.3136574,69.7978723 C31.8655723,69.7978723 31.4502319,69.5652128 31.2141255,69.1860638 C30.9797426,68.8034681 30.9573383,68.3278085 31.1572532,67.9279787 L34.6040617,61.0343617 C34.822934,60.5948936 35.2710191,60.3191489 35.760466,60.3191489 L41.5907426,60.3191489 C42.6437426,60.3191489 43.6019553,60.8551277 44.1551681,61.7495745 C44.7101043,62.6457447 44.7583596,63.7418298 44.2861468,64.6845319 L43.0418489,67.1765745 C42.2335723,68.7948511 40.6101255,69.7978723 38.8022745,69.7978723 L38.8022745,69.7978723 Z" id="Fill-18" fill="#000000" mask="url(#mask-2)"></path>
                            <polygon id="Fill-19" fill="#000000" mask="url(#mask-2)" points="22.687066 62.419634 15.7934489 53.8026128 17.8132787 52.187783 24.7068957 60.8048043"></polygon>
                            <path d="M34.037234,76.6914894 L16.8031915,76.6914894 C16.3551064,76.6914894 15.939766,76.4588298 15.7036596,76.0796809 C15.4692766,75.6970851 15.4468723,75.2214255 15.6467872,74.8215957 L25.9872128,54.1407447 C26.2060851,53.7012766 26.6541702,53.4255319 27.143617,53.4255319 L44.3776596,53.4255319 C44.8257447,53.4255319 45.2410851,53.6581915 45.4771915,54.0373404 C45.7115745,54.4199362 45.7339787,54.8955957 45.5340638,55.2954255 L42.0872553,62.1890426 L39.7744468,61.0343617 L42.2854468,56.0106383 L27.9432766,56.0106383 L18.8954043,74.106383 L33.2375745,74.106383 L36.3276383,67.9279787 L38.6404468,69.0826596 L35.1936383,75.9762766 C34.974766,76.4157447 34.5266809,76.6914894 34.037234,76.6914894" id="Fill-20" fill="#000000" mask="url(#mask-2)"></path>
                            <path d="M53.1073915,40.9308511 C55.6235617,34.902383 56.8247745,28.5326809 53.3400511,22.2939574 C52.9574553,21.6080426 52.755817,20.9324681 52.6524128,20.2775745 C52.5627957,20.2741277 52.4783489,20.25 52.3870085,20.25 C47.6304128,20.25 43.7751574,24.1087021 43.7751574,28.8670213 C43.7751574,31.3987021 44.8333277,33.453 46.4619447,35.1143617 C47.5425191,36.2173404 48.9367532,37.6512128 48.9367532,39.2074468 L48.9367532,40.9308511 L53.1073915,40.9308511 Z" id="Fill-21" fill="#FFFFFF" mask="url(#mask-2)"></path>
                            <path d="M55.2397596,40.9308511 C57.7559298,34.902383 60.8839085,28.5326809 57.3991851,22.2939574 C57.0165894,21.6080426 56.8132277,20.9324681 56.7115468,20.2775745 C56.6219298,20.2741277 56.537483,20.25 56.4461426,20.25 C51.6895468,20.25 47.8342915,24.1087021 47.8342915,28.8670213 C47.8342915,31.3987021 48.8924617,33.453 50.5210787,35.1143617 C51.5999298,36.2173404 52.9941638,37.6512128 52.9941638,39.2074468 L52.9941638,40.9308511 L55.2397596,40.9308511 Z" id="Fill-22" fill="#F1AE2C" mask="url(#mask-2)"></path>
                            <path d="M49.1170213,39.6382979 L53.4255319,39.6382979 L53.4255319,39.2074468 C53.4255319,37.1221277 55.0765532,35.4383617 56.2812128,34.2095745 C57.8391702,32.6205957 58.5957447,30.8713404 58.5957447,28.8670213 C58.5957447,24.8273617 55.3126596,21.5425532 51.2764468,21.5425532 C47.240234,21.5425532 43.9571489,24.8273617 43.9571489,28.8670213 C43.9571489,30.8713404 44.7137234,32.6188723 46.2751277,34.2112979 C47.474617,35.4366383 49.1170213,37.115234 49.1170213,39.2074468 L49.1170213,39.6382979 Z M54.7180851,42.2234043 L47.8244681,42.2234043 C47.1109787,42.2234043 46.5319149,41.6443404 46.5319149,40.9308511 L46.5319149,39.2074468 C46.5319149,38.168234 45.3151915,36.927383 44.4259149,36.0174255 C42.4009149,33.9493404 41.3720426,31.5434681 41.3720426,28.8670213 C41.3720426,23.4021064 45.8149787,18.9574468 51.2764468,18.9574468 C56.7379149,18.9574468 61.1808511,23.4021064 61.1808511,28.8670213 C61.1808511,31.5451915 60.1537021,33.9510638 58.1287021,36.0174255 C57.2342553,36.9308298 56.0106383,38.1785745 56.0106383,39.2074468 L56.0106383,40.9308511 C56.0106383,41.6443404 55.4315745,42.2234043 54.7180851,42.2234043 L54.7180851,42.2234043 Z" id="Fill-23" fill="#000000" mask="url(#mask-2)"></path>
                            <polygon id="Fill-24" fill="#000000" mask="url(#mask-2)" points="49.9787234 15.0797872 52.5638298 15.0797872 52.5638298 6.46276596 49.9787234 6.46276596"></polygon>
                            <polygon id="Fill-25" fill="#000000" mask="url(#mask-2)" points="39.390817 18.8126809 34.5153064 13.9388936 36.3421149 12.1103617 41.2193489 16.9841489"></polygon>
                            <polygon id="Fill-26" fill="#000000" mask="url(#mask-2)" points="28.8670213 30.1595745 37.4840426 30.1595745 37.4840426 27.5744681 28.8670213 27.5744681"></polygon>
                            <polygon id="Fill-27" fill="#000000" mask="url(#mask-2)" points="36.3429766 45.6231638 34.5144447 43.7946319 39.3916787 38.9208447 41.2184872 40.7493766"></polygon>
                            <polygon id="Fill-28" fill="#000000" mask="url(#mask-2)" points="66.1995766 45.6231638 61.3257894 40.7493766 63.1525979 38.9208447 68.0281085 43.7946319"></polygon>
                            <polygon id="Fill-29" fill="#000000" mask="url(#mask-2)" points="65.0585106 30.1595745 73.6755319 30.1595745 73.6755319 27.5744681 65.0585106 27.5744681"></polygon>
                            <polygon id="Fill-30" fill="#000000" mask="url(#mask-2)" points="63.1532872 18.8126809 61.3247553 16.9841489 66.200266 12.1103617 68.0270745 13.9388936"></polygon>
                            <path d="M52.9946809,47.393617 L49.5478723,47.393617 C49.2049149,47.393617 48.8757447,47.2574681 48.6344681,47.0144681 L46.9110638,45.2910638 C46.6680638,45.0497872 46.5319149,44.720617 46.5319149,44.3776596 L46.5319149,40.9308511 L49.1170213,40.9308511 L49.1170213,43.8416809 L50.0838511,44.8085106 L52.4587021,44.8085106 L53.4255319,43.8416809 L53.4255319,40.9308511 L56.0106383,40.9308511 L56.0106383,44.3776596 C56.0106383,44.720617 55.8744894,45.0497872 55.6314894,45.2910638 L53.9080851,47.0144681 C53.6668085,47.2574681 53.3376383,47.393617 52.9946809,47.393617" id="Fill-31" fill="#000000" mask="url(#mask-2)"></path>
                        </g>
                    </g>
                </g>
            </g>
        </g>
    </g>
</svg>